# vtk DataFile Version 1.0
Cube
ASCII

DATASET POLYDATA
POINTS 78 float
-21.165262 34.148952 8.823738
-20.797085 33.323392 10.070532
-21.224995 33.888935 11.437520
-21.013253 35.413495 11.387722
-19.626622 36.068873 11.248673
-21.165262 34.148952 122.292338
-20.797085 33.323392 123.539132
-21.224995 33.888935 124.906120
-21.013253 35.413495 124.856322
-19.626622 36.068873 124.717273
28.478138 34.148952 8.823738
28.846315 33.323392 10.070532
28.418405 33.888935 11.437520
28.630147 35.413495 11.387722
30.016778 36.068873 11.248673
28.478138 34.148952 122.292338
28.846315 33.323392 123.539132
28.418405 33.888935 124.906120
28.630147 35.413495 124.856322
30.016778 36.068873 124.717273
28.591460 26.424748 93.334608
30.022967 25.964848 93.667596
30.087973 24.505053 94.153777
31.428435 24.166597 94.832165
31.543719 22.641482 95.011978
3.727917 2.865258 -8.468213
3.709426 4.376628 -8.173223
4.603565 5.267132 -9.055900
4.309348 6.778310 -9.018770
4.575848 7.612942 -10.285248
3.727917 2.865258 105.000387
3.709426 4.376628 105.295377
4.603565 5.267132 104.412700
4.309348 6.778310 104.449830
4.575848 7.612942 103.183352
17.143136 40.148837 62.941766
16.314044 39.494902 64.062736
16.700599 38.005222 64.117776
16.486156 37.282496 62.774913
15.044920 36.800880 62.524945
19.923215 36.949288 18.587311
20.291161 35.829923 19.578895
20.416152 34.474764 18.858117
21.762042 34.226282 18.152116
21.800081 32.778524 17.628522
-7.247921 29.314148 0.525325
-7.383526 29.085446 1.006789
-8.279075 29.477588 0.178902
-7.247921 29.314148 113.993925
-7.383526 29.085446 114.475389
-8.279075 29.477588 113.647502
-8.951147 9.408224 1.090069
-8.986972 9.928200 1.265685
-8.510874 10.149752 1.772929
-8.951147 9.408224 114.558669
-8.986972 9.928200 114.734285
-8.510874 10.149752 115.241529
40.692253 9.408224 1.090069
40.656428 9.928200 1.265685
41.132526 10.149752 1.772929
40.692253 9.408224 114.558669
40.656428 9.928200 114.734285
41.132526 10.149752 115.241529
-7.396533 36.188574 34.505252
-7.202559 35.788244 34.828687
-6.963406 35.579561 35.312409
26.817174 -4.208829 86.532444
26.602356 -4.493799 86.113941
27.167594 -3.334085 85.964969
1.995474 38.783617 86.532444
1.780656 38.498647 86.113941
2.345894 39.658361 85.964969
-20.306320 34.305609 75.280458
-20.310724 34.385388 74.736292
-19.310347 34.399953 75.737771
29.337080 34.305609 75.280458
29.332676 34.385388 74.736292
30.333053 34.399953 75.737771
LINES 69 207
2 0 1
2 1 2
2 2 3
2 3 4
2 5 6
2 6 7
2 7 8
2 8 9
2 10 11
2 11 12
2 12 13
2 13 14
2 15 16
2 16 17
2 17 18
2 18 19
2 20 21
2 21 22
2 22 23
2 23 24
2 25 26
2 26 27
2 27 28
2 28 29
2 30 31
2 31 32
2 32 33
2 33 34
2 35 36
2 36 37
2 37 38
2 38 39
2 40 41
2 41 42
2 42 43
2 43 44
2 45 47
2 45 46
2 46 47
2 48 50
2 48 49
2 49 50
2 51 53
2 51 52
2 52 53
2 54 56
2 54 55
2 55 56
2 57 59
2 57 58
2 58 59
2 60 62
2 60 61
2 61 62
2 63 65
2 63 64
2 64 65
2 66 68
2 66 67
2 67 68
2 69 71
2 69 70
2 70 71
2 72 74
2 72 73
2 73 74
2 75 77
2 75 76
2 76 77
POINT_DATA 78
SCALARS my_scalars float
LOOKUP_TABLE default
-1
-1
-1
-1
-1
-1
-1
-1
-1
-1
-1
-1
-1
-1
-1
-1
-1
-1
-1
-1
-1
-1
-1
-1
-1
-1
-1
-1
-1
-1
-1
-1
-1
-1
-1
-1
-1
-1
-1
-1
-1
-1
-1
-1
-1
1.55
-1
1.55
1.55
-1
1.55
1.55
-1
1.55
1.55
-1
1.55
1.55
-1
1.55
1.55
-1
1.55
1.55
-1
1.55
1.55
-1
1.55
1.55
-1
1.55
1.55
-1
1.55
1.55
-1
1.55
VECTORS vectors float
-0.03125 0 0
-0.03125 0 0
-0.03125 0 0
-0.03125 0 0
-0.03125 0 0
-0.03125 0 0
-0.03125 0 0
-0.03125 0 0
-0.03125 0 0
-0.03125 0 0
-0.03125 0 0
-0.03125 0 0
-0.03125 0 0
-0.03125 0 0
-0.03125 0 0
-0.03125 0 0
-0.03125 0 0
-0.03125 0 0
-0.03125 0 0
-0.03125 0 0
-0.03125 0 0
-0.03125 0 0
-0.03125 0 0
-0.03125 0 0
-0.03125 0 0
-0.03125 0 0
-0.03125 0 0
-0.03125 0 0
-0.03125 0 0
-0.03125 0 0
-0.03125 0 0
-0.03125 0 0
-0.03125 0 0
-0.03125 0 0
-0.03125 0 0
-0.03125 0 0
-0.03125 0 0
-0.03125 0 0
-0.03125 0 0
-0.03125 0 0
-0.03125 0 0
-0.03125 0 0
-0.03125 0 0
-0.03125 0 0
-0.03125 0 0
0 0 0
-0.03125 0 0
0 0 0
0 0 0
-0.03125 0 0
0 0 0
0 0 0
-0.03125 0 0
0 0 0
0 0 0
-0.03125 0 0
0 0 0
0 0 0
-0.03125 0 0
0 0 0
0 0 0
-0.03125 0 0
0 0 0
0 0 0
-0.03125 0 0
0 0 0
0 0 0
-0.03125 0 0
0 0 0
0 0 0
-0.03125 0 0
0 0 0
0 0 0
-0.03125 0 0
0 0 0
0 0 0
-0.03125 0 0
0 0 0
