# vtk DataFile Version 1.0
Cube
ASCII

DATASET POLYDATA
POINTS 10 float
-12.932768 23.494614 28.872683
-11.884356 23.046450 29.907854
-11.204499 21.731487 29.483275
-10.470523 20.907913 30.557801
-11.350862 20.947365 31.820753
36.710632 23.494614 28.872683
37.759044 23.046450 29.907854
38.438901 21.731487 29.483275
39.172877 20.907913 30.557801
38.292538 20.947365 31.820753
LINES 8 24
2 0 1
2 1 2
2 2 3
2 3 4
2 5 6
2 6 7
2 7 8
2 8 9
POINT_DATA 10
SCALARS my_scalars float
LOOKUP_TABLE default
-1
-1
-1
-1
-1
-1
-1
-1
-1
-1
VECTORS vectors float
-0.03125 0 0
-0.03125 0 0
-0.03125 0 0
-0.03125 0 0
-0.03125 0 0
-0.03125 0 0
-0.03125 0 0
-0.03125 0 0
-0.03125 0 0
-0.03125 0 0
