# vtk DataFile Version 1.0
Cube
ASCII

DATASET POLYDATA
POINTS 14 float
31.584588 6.755486 48.599616
32.829553 5.908407 48.276941
34.075178 5.062628 47.953405
35.319407 4.214352 47.631034
36.567149 3.371942 47.306868
37.814282 2.528228 46.983746
39.064219 1.688719 46.660508
6.762888 49.747932 48.599616
8.007853 48.900853 48.276941
9.253478 48.055073 47.953405
10.497707 47.206798 47.631034
11.745449 46.364387 47.306868
12.992582 45.520674 46.983746
14.242519 44.681165 46.660508
LINES 12 36
2 0 1
2 1 2
2 2 3
2 3 4
2 4 5
2 5 6
2 7 8
2 8 9
2 9 10
2 10 11
2 11 12
2 12 13
POINT_DATA 14
SCALARS my_scalars float
LOOKUP_TABLE default
-1
-1
-1
-1
-1
-1
-1
-1
-1
-1
-1
-1
-1
-1
VECTORS vectors float
-0.03125 0 0
-0.03125 0 0
-0.03125 0 0
-0.03125 0 0
-0.03125 0 0
-0.03125 0 0
-0.03125 0 0
-0.03125 0 0
-0.03125 0 0
-0.03125 0 0
-0.03125 0 0
-0.03125 0 0
-0.03125 0 0
-0.03125 0 0
