# vtk DataFile Version 1.0
Cube
ASCII

DATASET POLYDATA
POINTS 7 float
24.278675 7.798960 7.146971
24.800865 9.180625 7.582768
25.320090 10.562118 8.022633
25.840820 11.943860 8.459932
26.359411 13.325399 8.900403
26.878909 14.707070 9.339384
27.398288 16.088709 9.778610
LINES 6 18
2 0 1
2 1 2
2 2 3
2 3 4
2 4 5
2 5 6
POINT_DATA 7
SCALARS my_scalars float
LOOKUP_TABLE default
-1
-1
-1
-1
-1
-1
-1
VECTORS vectors float
-0.03125 0 0
-0.03125 0 0
-0.03125 0 0
-0.03125 0 0
-0.03125 0 0
-0.03125 0 0
-0.03125 0 0
