# vtk DataFile Version 1.0
Cube
ASCII

DATASET POLYDATA
POINTS 474 float
-0.000124 14.330887 14.183575
12.410974 7.165336 42.550725
2.757691 12.738662 14.183575
9.653159 8.757561 42.550725
0.000000 17.515122 14.183575
12.410850 3.981100 42.550725
-2.757691 12.738662 14.183575
15.168541 8.757561 42.550725
4.541130 11.708993 14.183575
7.869720 9.787230 42.550725
0.000000 19.574460 14.183575
12.410850 1.921762 42.550725
-4.541130 11.708993 14.183575
16.951980 9.787230 42.550725
6.205425 10.748111 14.183575
6.205425 10.748111 42.550725
12.410850 0.000000 14.183575
-12.410850 42.992446 14.183575
12.410850 0.000000 42.550725
-12.410850 42.992446 42.550725
-6.205425 10.748111 14.183575
43.437975 10.748111 14.183575
-6.205425 10.748111 42.550725
43.437975 10.748111 42.550725
6.205425 10.748111 9.457608
6.205425 10.748111 47.276692
12.410850 0.000000 9.457608
-12.410850 42.992446 9.457608
12.410850 0.000000 47.276692
-12.410850 42.992446 47.276692
-6.205425 10.748111 9.457608
43.437975 10.748111 9.457608
-6.205425 10.748111 47.276692
43.437975 10.748111 47.276692
6.205425 10.748111 4.725967
6.205425 10.748111 52.008333
12.410850 0.000000 4.725967
-12.410850 42.992446 4.725967
12.410850 0.000000 52.008333
-12.410850 42.992446 52.008333
-6.205425 10.748111 4.725967
43.437975 10.748111 4.725967
-6.205425 10.748111 52.008333
43.437975 10.748111 52.008333
6.205425 10.748111 0.000000
6.205425 10.748111 56.734300
12.410850 0.000000 0.000000
12.410850 0.000000 56.734300
-12.410850 42.992446 0.000000
-12.410850 42.992446 56.734300
-6.205425 10.748111 0.000000
-6.205425 10.748111 56.734300
43.437975 10.748111 0.000000
43.437975 10.748111 56.734300
24.821576 0.000072 33.095008
-0.000124 42.992517 33.095008
0.000124 14.330744 4.727858
-9.653159 19.904069 33.095008
-2.757691 15.922969 4.727858
-0.000000 3.184307 33.095008
-0.000000 11.146508 4.727858
9.653159 19.904069 33.095008
2.757691 15.922969 4.727858
-7.869720 18.874400 33.095008
-4.541130 16.952638 4.727858
-0.000000 5.243645 33.095008
0.000000 9.087170 4.727858
7.869720 18.874400 33.095008
4.541130 16.952638 4.727858
-6.205425 17.913519 33.095008
-6.205425 17.913519 4.727858
-0.000000 7.165408 33.095008
-0.000000 7.165408 4.727858
6.205425 17.913519 33.095008
6.205425 17.913519 4.727858
-6.205425 17.913519 28.369041
-6.205425 17.913519 9.453826
-0.000000 7.165408 28.369041
-0.000000 7.165408 9.453826
6.205425 17.913519 28.369041
6.205425 17.913519 9.453826
-6.205425 17.913519 23.637401
-6.205425 17.913519 14.185466
-0.000000 7.165408 23.637401
-0.000000 7.165408 14.185466
6.205425 17.913519 23.637401
6.205425 17.913519 14.185466
-6.205425 17.913519 18.911433
-0.000000 7.165408 18.911433
6.205425 17.913519 18.911433
12.410850 21.496079 33.095008
0.000124 0.000072 33.095008
-24.821576 42.992517 33.095008
49.643524 0.000072 33.095008
24.821824 42.992517 33.095008
12.410726 7.165479 52.006442
-12.410726 21.496151 23.639292
37.232674 21.496151 23.639292
15.168541 5.573254 52.006442
22.064009 1.592154 23.639292
12.410850 10.349715 52.006442
12.410850 18.311916 23.639292
9.653159 5.573254 52.006442
2.757691 1.592154 23.639292
16.951980 4.543585 52.006442
20.280570 2.621823 23.639292
12.410850 12.409053 52.006442
12.410850 16.252577 23.639292
7.869720 4.543585 52.006442
4.541130 2.621823 23.639292
18.616275 3.582704 52.006442
18.616275 3.582704 23.639292
12.410850 14.330815 52.006442
12.410850 14.330815 23.639292
6.205425 3.582704 52.006442
6.205425 3.582704 23.639292
18.616275 3.582704 47.280474
18.616275 3.582704 28.365259
12.410850 14.330815 47.280474
12.410850 14.330815 28.365259
6.205425 3.582704 47.280474
6.205425 3.582704 28.365259
18.616275 3.582704 42.548834
18.616275 3.582704 33.096899
12.410850 14.330815 42.548834
12.410850 14.330815 33.096899
6.205425 3.582704 42.548834
6.205425 3.582704 33.096899
18.616275 3.582704 37.822867
12.410850 14.330815 37.822867
6.205425 3.582704 37.822867
0.000000 0.000143 23.639292
-24.821700 42.992589 23.639292
49.643400 0.000143 23.639292
24.821700 42.992589 23.639292
12.410726 21.496151 23.639292
-12.410974 35.827110 14.183575
0.000124 28.661559 42.550725
-9.653159 34.234884 14.183575
-2.757691 30.253784 42.550725
-12.410850 39.011345 14.183575
0.000000 25.477323 42.550725
-15.168541 34.234884 14.183575
2.757691 30.253784 42.550725
-7.869720 33.205215 14.183575
-4.541130 31.283453 42.550725
-12.410850 41.070683 14.183575
0.000000 23.417985 42.550725
-16.951980 33.205215 14.183575
4.541130 31.283453 42.550725
-6.205425 32.244334 14.183575
-6.205425 32.244334 42.550725
0.000000 21.496223 14.183575
0.000000 21.496223 42.550725
-18.616275 32.244334 14.183575
31.027125 32.244334 14.183575
-18.616275 32.244334 42.550725
31.027125 32.244334 42.550725
-6.205425 32.244334 9.457608
-6.205425 32.244334 47.276692
0.000000 21.496223 9.457608
0.000000 21.496223 47.276692
-18.616275 32.244334 9.457608
31.027125 32.244334 9.457608
-18.616275 32.244334 47.276692
31.027125 32.244334 47.276692
-6.205425 32.244334 4.725967
-6.205425 32.244334 52.008333
0.000000 21.496223 4.725967
0.000000 21.496223 52.008333
-18.616275 32.244334 4.725967
31.027125 32.244334 4.725967
-18.616275 32.244334 52.008333
31.027125 32.244334 52.008333
-6.205425 32.244334 0.000000
-6.205425 32.244334 56.734300
0.000000 21.496223 0.000000
0.000000 21.496223 56.734300
-18.616275 32.244334 0.000000
-18.616275 32.244334 56.734300
31.027125 32.244334 0.000000
31.027125 32.244334 56.734300
-12.410726 35.826966 4.727858
-22.064009 41.400292 33.095008
-15.168541 37.419192 4.727858
-12.410850 24.680530 33.095008
-12.410850 32.642731 4.727858
-2.757691 41.400292 33.095008
-9.653159 37.419192 4.727858
-20.280570 40.370623 33.095008
-16.951980 38.448861 4.727858
-12.410850 26.739868 33.095008
-12.410850 30.583393 4.727858
-4.541130 40.370623 33.095008
-7.869720 38.448861 4.727858
-18.616275 39.409742 33.095008
-18.616275 39.409742 4.727858
-12.410850 28.661630 33.095008
-12.410850 28.661630 4.727858
-6.205425 39.409742 33.095008
-6.205425 39.409742 4.727858
-18.616275 39.409742 28.369041
-18.616275 39.409742 9.453826
-12.410850 28.661630 28.369041
-12.410850 28.661630 9.453826
-6.205425 39.409742 28.369041
-6.205425 39.409742 9.453826
-18.616275 39.409742 23.637401
-18.616275 39.409742 14.185466
-12.410850 28.661630 23.637401
-12.410850 28.661630 14.185466
-6.205425 39.409742 23.637401
-6.205425 39.409742 14.185466
-18.616275 39.409742 18.911433
-12.410850 28.661630 18.911433
-6.205425 39.409742 18.911433
-12.410726 21.496294 33.095008
37.232674 21.496294 33.095008
-0.000124 28.661702 52.006442
2.757691 27.069477 52.006442
9.653159 23.088376 23.639292
0.000000 31.845937 52.006442
0.000000 39.808138 23.639292
-2.757691 27.069477 52.006442
-9.653159 23.088376 23.639292
4.541130 26.039808 52.006442
7.869720 24.118045 23.639292
0.000000 33.905276 52.006442
0.000000 37.748800 23.639292
-4.541130 26.039808 52.006442
-7.869720 24.118045 23.639292
6.205425 25.078927 52.006442
6.205425 25.078927 23.639292
0.000000 35.827038 52.006442
0.000000 35.827038 23.639292
-6.205425 25.078927 52.006442
-6.205425 25.078927 23.639292
6.205425 25.078927 47.280474
6.205425 25.078927 28.365259
0.000000 35.827038 47.280474
0.000000 35.827038 28.365259
-6.205425 25.078927 47.280474
-6.205425 25.078927 28.365259
6.205425 25.078927 42.548834
6.205425 25.078927 33.096899
0.000000 35.827038 42.548834
0.000000 35.827038 33.096899
-6.205425 25.078927 42.548834
-6.205425 25.078927 33.096899
6.205425 25.078927 37.822867
0.000000 35.827038 37.822867
-6.205425 25.078927 37.822867
24.821576 -0.000072 23.639292
-0.000124 42.992374 23.639292
24.821576 14.330887 14.183575
37.232674 7.165336 42.550725
27.579391 12.738662 14.183575
34.474859 8.757561 42.550725
24.821700 17.515122 14.183575
37.232550 3.981100 42.550725
22.064009 12.738662 14.183575
39.990241 8.757561 42.550725
29.362830 11.708993 14.183575
32.691420 9.787230 42.550725
24.821700 19.574460 14.183575
37.232550 1.921762 42.550725
20.280570 11.708993 14.183575
41.773680 9.787230 42.550725
31.027125 10.748111 14.183575
31.027125 10.748111 42.550725
37.232550 0.000000 14.183575
12.410850 42.992446 14.183575
37.232550 0.000000 42.550725
12.410850 42.992446 42.550725
18.616275 10.748111 14.183575
18.616275 10.748111 42.550725
31.027125 10.748111 9.457608
31.027125 10.748111 47.276692
37.232550 0.000000 9.457608
12.410850 42.992446 9.457608
37.232550 0.000000 47.276692
12.410850 42.992446 47.276692
18.616275 10.748111 9.457608
18.616275 10.748111 47.276692
31.027125 10.748111 4.725967
31.027125 10.748111 52.008333
37.232550 0.000000 4.725967
12.410850 42.992446 4.725967
37.232550 0.000000 52.008333
12.410850 42.992446 52.008333
18.616275 10.748111 4.725967
18.616275 10.748111 52.008333
31.027125 10.748111 0.000000
31.027125 10.748111 56.734300
37.232550 0.000000 0.000000
37.232550 0.000000 56.734300
12.410850 42.992446 0.000000
12.410850 42.992446 56.734300
18.616275 10.748111 0.000000
18.616275 10.748111 56.734300
24.821824 14.330744 4.727858
15.168541 19.904069 33.095008
22.064009 15.922969 4.727858
24.821700 3.184307 33.095008
24.821700 11.146508 4.727858
34.474859 19.904069 33.095008
27.579391 15.922969 4.727858
16.951980 18.874400 33.095008
20.280570 16.952638 4.727858
24.821700 5.243645 33.095008
24.821700 9.087170 4.727858
32.691420 18.874400 33.095008
29.362830 16.952638 4.727858
18.616275 17.913519 33.095008
18.616275 17.913519 4.727858
24.821700 7.165408 33.095008
24.821700 7.165408 4.727858
31.027125 17.913519 33.095008
31.027125 17.913519 4.727858
18.616275 17.913519 28.369041
18.616275 17.913519 9.453826
24.821700 7.165408 28.369041
24.821700 7.165408 9.453826
31.027125 17.913519 28.369041
31.027125 17.913519 9.453826
18.616275 17.913519 23.637401
18.616275 17.913519 14.185466
24.821700 7.165408 23.637401
24.821700 7.165408 14.185466
31.027125 17.913519 23.637401
31.027125 17.913519 14.185466
18.616275 17.913519 18.911433
24.821700 7.165408 18.911433
31.027125 17.913519 18.911433
37.232426 7.165479 52.006442
39.990241 5.573254 52.006442
46.885709 1.592154 23.639292
37.232550 10.349715 52.006442
37.232550 18.311916 23.639292
34.474859 5.573254 52.006442
27.579391 1.592154 23.639292
41.773680 4.543585 52.006442
45.102270 2.621823 23.639292
37.232550 12.409053 52.006442
37.232550 16.252577 23.639292
32.691420 4.543585 52.006442
29.362830 2.621823 23.639292
43.437975 3.582704 52.006442
43.437975 3.582704 23.639292
37.232550 14.330815 52.006442
37.232550 14.330815 23.639292
31.027125 3.582704 52.006442
31.027125 3.582704 23.639292
43.437975 3.582704 47.280474
43.437975 3.582704 28.365259
37.232550 14.330815 47.280474
37.232550 14.330815 28.365259
31.027125 3.582704 47.280474
31.027125 3.582704 28.365259
43.437975 3.582704 42.548834
43.437975 3.582704 33.096899
37.232550 14.330815 42.548834
37.232550 14.330815 33.096899
31.027125 3.582704 42.548834
31.027125 3.582704 33.096899
43.437975 3.582704 37.822867
37.232550 14.330815 37.822867
31.027125 3.582704 37.822867
12.410726 35.827110 14.183575
24.821824 28.661559 42.550725
15.168541 34.234884 14.183575
22.064009 30.253784 42.550725
12.410850 39.011345 14.183575
24.821700 25.477323 42.550725
9.653159 34.234884 14.183575
27.579391 30.253784 42.550725
16.951980 33.205215 14.183575
20.280570 31.283453 42.550725
12.410850 41.070683 14.183575
24.821700 23.417985 42.550725
7.869720 33.205215 14.183575
29.362830 31.283453 42.550725
18.616275 32.244334 14.183575
18.616275 32.244334 42.550725
24.821700 21.496223 14.183575
24.821700 21.496223 42.550725
6.205425 32.244334 14.183575
6.205425 32.244334 42.550725
18.616275 32.244334 9.457608
18.616275 32.244334 47.276692
24.821700 21.496223 9.457608
24.821700 21.496223 47.276692
6.205425 32.244334 9.457608
6.205425 32.244334 47.276692
18.616275 32.244334 4.725967
18.616275 32.244334 52.008333
24.821700 21.496223 4.725967
24.821700 21.496223 52.008333
6.205425 32.244334 4.725967
6.205425 32.244334 52.008333
18.616275 32.244334 0.000000
18.616275 32.244334 56.734300
24.821700 21.496223 0.000000
24.821700 21.496223 56.734300
6.205425 32.244334 0.000000
6.205425 32.244334 56.734300
12.410974 35.826966 4.727858
2.757691 41.400292 33.095008
9.653159 37.419192 4.727858
12.410850 24.680530 33.095008
12.410850 32.642731 4.727858
22.064009 41.400292 33.095008
15.168541 37.419192 4.727858
4.541130 40.370623 33.095008
7.869720 38.448861 4.727858
12.410850 26.739868 33.095008
12.410850 30.583393 4.727858
20.280570 40.370623 33.095008
16.951980 38.448861 4.727858
6.205425 39.409742 33.095008
6.205425 39.409742 4.727858
12.410850 28.661630 33.095008
12.410850 28.661630 4.727858
18.616275 39.409742 33.095008
18.616275 39.409742 4.727858
6.205425 39.409742 28.369041
6.205425 39.409742 9.453826
12.410850 28.661630 28.369041
12.410850 28.661630 9.453826
18.616275 39.409742 28.369041
18.616275 39.409742 9.453826
6.205425 39.409742 23.637401
6.205425 39.409742 14.185466
12.410850 28.661630 23.637401
12.410850 28.661630 14.185466
18.616275 39.409742 23.637401
18.616275 39.409742 14.185466
6.205425 39.409742 18.911433
12.410850 28.661630 18.911433
18.616275 39.409742 18.911433
24.821576 28.661702 52.006442
27.579391 27.069477 52.006442
34.474859 23.088376 23.639292
24.821700 31.845937 52.006442
24.821700 39.808138 23.639292
22.064009 27.069477 52.006442
15.168541 23.088376 23.639292
29.362830 26.039808 52.006442
32.691420 24.118045 23.639292
24.821700 33.905276 52.006442
24.821700 37.748800 23.639292
20.280570 26.039808 52.006442
16.951980 24.118045 23.639292
31.027125 25.078927 52.006442
31.027125 25.078927 23.639292
24.821700 35.827038 52.006442
24.821700 35.827038 23.639292
18.616275 25.078927 52.006442
18.616275 25.078927 23.639292
31.027125 25.078927 47.280474
31.027125 25.078927 28.365259
24.821700 35.827038 47.280474
24.821700 35.827038 28.365259
18.616275 25.078927 47.280474
18.616275 25.078927 28.365259
31.027125 25.078927 42.548834
31.027125 25.078927 33.096899
24.821700 35.827038 42.548834
24.821700 35.827038 33.096899
18.616275 25.078927 42.548834
18.616275 25.078927 33.096899
31.027125 25.078927 37.822867
24.821700 35.827038 37.822867
18.616275 25.078927 37.822867
POINT_DATA 474
SCALARS my_scalars float
LOOKUP_TABLE default
1.39
1.39
1.52
1.52
1.52
1.52
1.52
1.52
1.7
1.7
1.7
1.7
1.7
1.7
1.7
1.7
1.7
1.7
1.7
1.7
1.7
1.7
1.7
1.7
1.7
1.7
1.7
1.7
1.7
1.7
1.7
1.7
1.7
1.7
1.7
1.7
1.7
1.7
1.7
1.7
1.7
1.7
1.7
1.7
1.7
1.7
1.7
1.7
1.7
1.7
1.7
1.7
1.7
1.7
1.39
1.39
1.39
1.52
1.52
1.52
1.52
1.52
1.52
1.7
1.7
1.7
1.7
1.7
1.7
1.7
1.7
1.7
1.7
1.7
1.7
1.7
1.7
1.7
1.7
1.7
1.7
1.7
1.7
1.7
1.7
1.7
1.7
1.7
1.7
1.7
1.39
1.39
1.39
1.39
1.39
1.39
1.39
1.39
1.52
1.52
1.52
1.52
1.52
1.52
1.7
1.7
1.7
1.7
1.7
1.7
1.7
1.7
1.7
1.7
1.7
1.7
1.7
1.7
1.7
1.7
1.7
1.7
1.7
1.7
1.7
1.7
1.7
1.7
1.7
1.7
1.7
1.39
1.39
1.39
1.39
1.39
1.39
1.39
1.52
1.52
1.52
1.52
1.52
1.52
1.7
1.7
1.7
1.7
1.7
1.7
1.7
1.7
1.7
1.7
1.7
1.7
1.7
1.7
1.7
1.7
1.7
1.7
1.7
1.7
1.7
1.7
1.7
1.7
1.7
1.7
1.7
1.7
1.7
1.7
1.7
1.7
1.7
1.7
1.7
1.7
1.7
1.7
1.39
1.52
1.52
1.52
1.52
1.52
1.52
1.7
1.7
1.7
1.7
1.7
1.7
1.7
1.7
1.7
1.7
1.7
1.7
1.7
1.7
1.7
1.7
1.7
1.7
1.7
1.7
1.7
1.7
1.7
1.7
1.7
1.7
1.7
1.39
1.39
1.39
1.52
1.52
1.52
1.52
1.52
1.52
1.7
1.7
1.7
1.7
1.7
1.7
1.7
1.7
1.7
1.7
1.7
1.7
1.7
1.7
1.7
1.7
1.7
1.7
1.7
1.7
1.7
1.7
1.7
1.7
1.7
1.7
1.7
1.39
1.39
1.39
1.39
1.52
1.52
1.52
1.52
1.52
1.52
1.7
1.7
1.7
1.7
1.7
1.7
1.7
1.7
1.7
1.7
1.7
1.7
1.7
1.7
1.7
1.7
1.7
1.7
1.7
1.7
1.7
1.7
1.7
1.7
1.7
1.7
1.7
1.7
1.7
1.7
1.7
1.7
1.7
1.7
1.7
1.7
1.7
1.7
1.39
1.52
1.52
1.52
1.52
1.52
1.52
1.7
1.7
1.7
1.7
1.7
1.7
1.7
1.7
1.7
1.7
1.7
1.7
1.7
1.7
1.7
1.7
1.7
1.7
1.7
1.7
1.7
1.7
1.7
1.7
1.7
1.7
1.7
1.39
1.52
1.52
1.52
1.52
1.52
1.52
1.7
1.7
1.7
1.7
1.7
1.7
1.7
1.7
1.7
1.7
1.7
1.7
1.7
1.7
1.7
1.7
1.7
1.7
1.7
1.7
1.7
1.7
1.7
1.7
1.7
1.7
1.7
1.39
1.39
1.52
1.52
1.52
1.52
1.52
1.52
1.7
1.7
1.7
1.7
1.7
1.7
1.7
1.7
1.7
1.7
1.7
1.7
1.7
1.7
1.7
1.7
1.7
1.7
1.7
1.7
1.7
1.7
1.7
1.7
1.7
1.7
1.7
1.7
1.7
1.7
1.39
1.52
1.52
1.52
1.52
1.52
1.52
1.7
1.7
1.7
1.7
1.7
1.7
1.7
1.7
1.7
1.7
1.7
1.7
1.7
1.7
1.7
1.7
1.7
1.7
1.7
1.7
1.7
1.7
1.7
1.7
1.7
1.7
1.7
1.39
1.52
1.52
1.52
1.52
1.52
1.52
1.7
1.7
1.7
1.7
1.7
1.7
1.7
1.7
1.7
1.7
1.7
1.7
1.7
1.7
1.7
1.7
1.7
1.7
1.7
1.7
1.7
1.7
1.7
1.7
1.7
1.7
1.7
VECTORS vectors float
0.4375 0 0
0.4375 0 0
0.03125 0 0
0.03125 0 0
0.03125 0 0
0.03125 0 0
0.03125 0 0
0.03125 0 0
0.3125 0 0
0.3125 0 0
0.3125 0 0
0.3125 0 0
0.3125 0 0
0.3125 0 0
0.3125 0 0
0.3125 0 0
0.3125 0 0
0.3125 0 0
0.3125 0 0
0.3125 0 0
0.3125 0 0
0.3125 0 0
0.3125 0 0
0.3125 0 0
0.3125 0 0
0.3125 0 0
0.3125 0 0
0.3125 0 0
0.3125 0 0
0.3125 0 0
0.3125 0 0
0.3125 0 0
0.3125 0 0
0.3125 0 0
0.3125 0 0
0.3125 0 0
0.3125 0 0
0.3125 0 0
0.3125 0 0
0.3125 0 0
0.3125 0 0
0.3125 0 0
0.3125 0 0
0.3125 0 0
0.3125 0 0
0.3125 0 0
0.3125 0 0
0.3125 0 0
0.3125 0 0
0.3125 0 0
0.3125 0 0
0.3125 0 0
0.3125 0 0
0.3125 0 0
0.4375 0 0
0.4375 0 0
0.4375 0 0
0.03125 0 0
0.03125 0 0
0.03125 0 0
0.03125 0 0
0.03125 0 0
0.03125 0 0
0.3125 0 0
0.3125 0 0
0.3125 0 0
0.3125 0 0
0.3125 0 0
0.3125 0 0
0.3125 0 0
0.3125 0 0
0.3125 0 0
0.3125 0 0
0.3125 0 0
0.3125 0 0
0.3125 0 0
0.3125 0 0
0.3125 0 0
0.3125 0 0
0.3125 0 0
0.3125 0 0
0.3125 0 0
0.3125 0 0
0.3125 0 0
0.3125 0 0
0.3125 0 0
0.3125 0 0
0.3125 0 0
0.3125 0 0
0.3125 0 0
0.4375 0 0
0.4375 0 0
0.4375 0 0
0.4375 0 0
0.4375 0 0
0.4375 0 0
0.4375 0 0
0.4375 0 0
0.03125 0 0
0.03125 0 0
0.03125 0 0
0.03125 0 0
0.03125 0 0
0.03125 0 0
0.3125 0 0
0.3125 0 0
0.3125 0 0
0.3125 0 0
0.3125 0 0
0.3125 0 0
0.3125 0 0
0.3125 0 0
0.3125 0 0
0.3125 0 0
0.3125 0 0
0.3125 0 0
0.3125 0 0
0.3125 0 0
0.3125 0 0
0.3125 0 0
0.3125 0 0
0.3125 0 0
0.3125 0 0
0.3125 0 0
0.3125 0 0
0.3125 0 0
0.3125 0 0
0.3125 0 0
0.3125 0 0
0.3125 0 0
0.3125 0 0
0.4375 0 0
0.4375 0 0
0.4375 0 0
0.4375 0 0
0.4375 0 0
0.4375 0 0
0.4375 0 0
0.03125 0 0
0.03125 0 0
0.03125 0 0
0.03125 0 0
0.03125 0 0
0.03125 0 0
0.3125 0 0
0.3125 0 0
0.3125 0 0
0.3125 0 0
0.3125 0 0
0.3125 0 0
0.3125 0 0
0.3125 0 0
0.3125 0 0
0.3125 0 0
0.3125 0 0
0.3125 0 0
0.3125 0 0
0.3125 0 0
0.3125 0 0
0.3125 0 0
0.3125 0 0
0.3125 0 0
0.3125 0 0
0.3125 0 0
0.3125 0 0
0.3125 0 0
0.3125 0 0
0.3125 0 0
0.3125 0 0
0.3125 0 0
0.3125 0 0
0.3125 0 0
0.3125 0 0
0.3125 0 0
0.3125 0 0
0.3125 0 0
0.3125 0 0
0.3125 0 0
0.3125 0 0
0.3125 0 0
0.3125 0 0
0.3125 0 0
0.4375 0 0
0.03125 0 0
0.03125 0 0
0.03125 0 0
0.03125 0 0
0.03125 0 0
0.03125 0 0
0.3125 0 0
0.3125 0 0
0.3125 0 0
0.3125 0 0
0.3125 0 0
0.3125 0 0
0.3125 0 0
0.3125 0 0
0.3125 0 0
0.3125 0 0
0.3125 0 0
0.3125 0 0
0.3125 0 0
0.3125 0 0
0.3125 0 0
0.3125 0 0
0.3125 0 0
0.3125 0 0
0.3125 0 0
0.3125 0 0
0.3125 0 0
0.3125 0 0
0.3125 0 0
0.3125 0 0
0.3125 0 0
0.3125 0 0
0.3125 0 0
0.4375 0 0
0.4375 0 0
0.4375 0 0
0.03125 0 0
0.03125 0 0
0.03125 0 0
0.03125 0 0
0.03125 0 0
0.03125 0 0
0.3125 0 0
0.3125 0 0
0.3125 0 0
0.3125 0 0
0.3125 0 0
0.3125 0 0
0.3125 0 0
0.3125 0 0
0.3125 0 0
0.3125 0 0
0.3125 0 0
0.3125 0 0
0.3125 0 0
0.3125 0 0
0.3125 0 0
0.3125 0 0
0.3125 0 0
0.3125 0 0
0.3125 0 0
0.3125 0 0
0.3125 0 0
0.3125 0 0
0.3125 0 0
0.3125 0 0
0.3125 0 0
0.3125 0 0
0.3125 0 0
0.4375 0 0
0.4375 0 0
0.4375 0 0
0.4375 0 0
0.03125 0 0
0.03125 0 0
0.03125 0 0
0.03125 0 0
0.03125 0 0
0.03125 0 0
0.3125 0 0
0.3125 0 0
0.3125 0 0
0.3125 0 0
0.3125 0 0
0.3125 0 0
0.3125 0 0
0.3125 0 0
0.3125 0 0
0.3125 0 0
0.3125 0 0
0.3125 0 0
0.3125 0 0
0.3125 0 0
0.3125 0 0
0.3125 0 0
0.3125 0 0
0.3125 0 0
0.3125 0 0
0.3125 0 0
0.3125 0 0
0.3125 0 0
0.3125 0 0
0.3125 0 0
0.3125 0 0
0.3125 0 0
0.3125 0 0
0.3125 0 0
0.3125 0 0
0.3125 0 0
0.3125 0 0
0.3125 0 0
0.3125 0 0
0.3125 0 0
0.3125 0 0
0.3125 0 0
0.3125 0 0
0.3125 0 0
0.4375 0 0
0.03125 0 0
0.03125 0 0
0.03125 0 0
0.03125 0 0
0.03125 0 0
0.03125 0 0
0.3125 0 0
0.3125 0 0
0.3125 0 0
0.3125 0 0
0.3125 0 0
0.3125 0 0
0.3125 0 0
0.3125 0 0
0.3125 0 0
0.3125 0 0
0.3125 0 0
0.3125 0 0
0.3125 0 0
0.3125 0 0
0.3125 0 0
0.3125 0 0
0.3125 0 0
0.3125 0 0
0.3125 0 0
0.3125 0 0
0.3125 0 0
0.3125 0 0
0.3125 0 0
0.3125 0 0
0.3125 0 0
0.3125 0 0
0.3125 0 0
0.4375 0 0
0.03125 0 0
0.03125 0 0
0.03125 0 0
0.03125 0 0
0.03125 0 0
0.03125 0 0
0.3125 0 0
0.3125 0 0
0.3125 0 0
0.3125 0 0
0.3125 0 0
0.3125 0 0
0.3125 0 0
0.3125 0 0
0.3125 0 0
0.3125 0 0
0.3125 0 0
0.3125 0 0
0.3125 0 0
0.3125 0 0
0.3125 0 0
0.3125 0 0
0.3125 0 0
0.3125 0 0
0.3125 0 0
0.3125 0 0
0.3125 0 0
0.3125 0 0
0.3125 0 0
0.3125 0 0
0.3125 0 0
0.3125 0 0
0.3125 0 0
0.4375 0 0
0.4375 0 0
0.03125 0 0
0.03125 0 0
0.03125 0 0
0.03125 0 0
0.03125 0 0
0.03125 0 0
0.3125 0 0
0.3125 0 0
0.3125 0 0
0.3125 0 0
0.3125 0 0
0.3125 0 0
0.3125 0 0
0.3125 0 0
0.3125 0 0
0.3125 0 0
0.3125 0 0
0.3125 0 0
0.3125 0 0
0.3125 0 0
0.3125 0 0
0.3125 0 0
0.3125 0 0
0.3125 0 0
0.3125 0 0
0.3125 0 0
0.3125 0 0
0.3125 0 0
0.3125 0 0
0.3125 0 0
0.3125 0 0
0.3125 0 0
0.3125 0 0
0.3125 0 0
0.3125 0 0
0.3125 0 0
0.4375 0 0
0.03125 0 0
0.03125 0 0
0.03125 0 0
0.03125 0 0
0.03125 0 0
0.03125 0 0
0.3125 0 0
0.3125 0 0
0.3125 0 0
0.3125 0 0
0.3125 0 0
0.3125 0 0
0.3125 0 0
0.3125 0 0
0.3125 0 0
0.3125 0 0
0.3125 0 0
0.3125 0 0
0.3125 0 0
0.3125 0 0
0.3125 0 0
0.3125 0 0
0.3125 0 0
0.3125 0 0
0.3125 0 0
0.3125 0 0
0.3125 0 0
0.3125 0 0
0.3125 0 0
0.3125 0 0
0.3125 0 0
0.3125 0 0
0.3125 0 0
0.4375 0 0
0.03125 0 0
0.03125 0 0
0.03125 0 0
0.03125 0 0
0.03125 0 0
0.03125 0 0
0.3125 0 0
0.3125 0 0
0.3125 0 0
0.3125 0 0
0.3125 0 0
0.3125 0 0
0.3125 0 0
0.3125 0 0
0.3125 0 0
0.3125 0 0
0.3125 0 0
0.3125 0 0
0.3125 0 0
0.3125 0 0
0.3125 0 0
0.3125 0 0
0.3125 0 0
0.3125 0 0
0.3125 0 0
0.3125 0 0
0.3125 0 0
0.3125 0 0
0.3125 0 0
0.3125 0 0
0.3125 0 0
0.3125 0 0
0.3125 0 0
