# vtk DataFile Version 1.0
Cube
ASCII

DATASET POLYDATA
POINTS 878 float
-0.000124 14.330887 14.183575
12.410974 7.165336 42.550725
2.757691 12.738662 14.183575
9.653159 8.757561 42.550725
0.000000 17.515122 14.183575
12.410850 3.981100 42.550725
-12.410850 46.973546 42.550725
-2.757691 12.738662 14.183575
46.885709 12.738662 14.183575
15.168541 8.757561 42.550725
4.541130 11.708993 14.183575
7.869720 9.787230 42.550725
0.000000 19.574460 14.183575
12.410850 1.921762 42.550725
-12.410850 44.914208 42.550725
-4.541130 11.708993 14.183575
45.102270 11.708993 14.183575
16.951980 9.787230 42.550725
6.205425 10.748111 14.183575
6.205425 10.748111 42.550725
12.410850 0.000000 14.183575
-12.410850 42.992446 14.183575
12.410850 0.000000 42.550725
-12.410850 42.992446 42.550725
-6.205425 10.748111 14.183575
43.437975 10.748111 14.183575
-6.205425 10.748111 42.550725
43.437975 10.748111 42.550725
6.205425 10.748111 9.457608
6.205425 10.748111 47.276692
12.410850 0.000000 9.457608
-12.410850 42.992446 9.457608
12.410850 0.000000 47.276692
-12.410850 42.992446 47.276692
-6.205425 10.748111 9.457608
43.437975 10.748111 9.457608
-6.205425 10.748111 47.276692
43.437975 10.748111 47.276692
6.205425 10.748111 4.725967
6.205425 10.748111 61.460267
6.205425 10.748111 -4.725967
6.205425 10.748111 52.008333
12.410850 0.000000 4.725967
12.410850 0.000000 61.460267
-12.410850 42.992446 4.725967
-12.410850 42.992446 61.460267
12.410850 -0.000000 -4.725967
12.410850 0.000000 52.008333
-12.410850 42.992446 -4.725967
-12.410850 42.992446 52.008333
-6.205425 10.748111 4.725967
-6.205425 10.748111 61.460267
43.437975 10.748111 4.725967
43.437975 10.748111 61.460267
-6.205425 10.748111 -4.725967
-6.205425 10.748111 52.008333
43.437975 10.748111 -4.725967
43.437975 10.748111 52.008333
6.205425 10.748111 0.000000
6.205425 10.748111 56.734300
12.410850 0.000000 0.000000
12.410850 0.000000 56.734300
-12.410850 42.992446 0.000000
-12.410850 42.992446 56.734300
-6.205425 10.748111 0.000000
-6.205425 10.748111 56.734300
43.437975 10.748111 0.000000
43.437975 10.748111 56.734300
24.821576 0.000072 33.095008
-0.000124 42.992517 33.095008
0.000124 14.330744 4.727858
0.000124 14.330744 61.462158
-9.653159 19.904069 33.095008
39.990241 19.904069 33.095008
-2.757691 15.922969 4.727858
-2.757691 15.922969 61.462158
46.885709 15.922969 4.727858
46.885709 15.922969 61.462158
-0.000000 3.184307 33.095008
-24.821700 46.176753 33.095008
49.643400 3.184307 33.095008
24.821700 46.176753 33.095008
-0.000000 11.146508 4.727858
0.000000 11.146508 61.462158
49.643400 11.146508 4.727858
49.643400 11.146508 61.462158
9.653159 19.904069 33.095008
2.757691 15.922969 4.727858
2.757691 15.922969 61.462158
-7.869720 18.874400 33.095008
41.773680 18.874400 33.095008
-4.541130 16.952638 4.727858
-4.541130 16.952638 61.462158
45.102270 16.952638 4.727858
45.102270 16.952638 61.462158
-0.000000 5.243645 33.095008
-24.821700 48.236091 33.095008
49.643400 5.243645 33.095008
24.821700 48.236091 33.095008
0.000000 9.087170 4.727858
0.000000 9.087170 61.462158
49.643400 9.087170 4.727858
49.643400 9.087170 61.462158
7.869720 18.874400 33.095008
4.541130 16.952638 4.727858
4.541130 16.952638 61.462158
-6.205425 17.913519 33.095008
43.437975 17.913519 33.095008
-6.205425 17.913519 4.727858
-6.205425 17.913519 61.462158
43.437975 17.913519 4.727858
43.437975 17.913519 61.462158
-0.000000 7.165408 33.095008
49.643400 7.165408 33.095008
-0.000000 7.165408 4.727858
0.000000 7.165408 61.462158
49.643400 7.165408 4.727858
49.643400 7.165408 61.462158
6.205425 17.913519 33.095008
6.205425 17.913519 4.727858
6.205425 17.913519 61.462158
-6.205425 17.913519 28.369041
43.437975 17.913519 28.369041
-6.205425 17.913519 9.453826
43.437975 17.913519 9.453826
-0.000000 7.165408 28.369041
49.643400 7.165408 28.369041
-0.000000 7.165408 9.453826
49.643400 7.165408 9.453826
6.205425 17.913519 28.369041
6.205425 17.913519 9.453826
-6.205425 17.913519 23.637401
43.437975 17.913519 23.637401
-6.205425 17.913519 14.185466
43.437975 17.913519 14.185466
-0.000000 7.165408 23.637401
49.643400 7.165408 23.637401
-0.000000 7.165408 14.185466
49.643400 7.165408 14.185466
6.205425 17.913519 23.637401
6.205425 17.913519 14.185466
-6.205425 17.913519 18.911433
43.437975 17.913519 18.911433
-0.000000 7.165408 18.911433
49.643400 7.165408 18.911433
6.205425 17.913519 18.911433
12.410850 21.496079 33.095008
0.000124 0.000072 33.095008
-24.821576 42.992517 33.095008
49.643524 0.000072 33.095008
24.821824 42.992517 33.095008
12.410726 7.165479 -4.727858
12.410726 7.165479 52.006442
-12.410726 21.496151 23.639292
37.232674 21.496151 23.639292
15.168541 5.573254 -4.727858
15.168541 5.573254 52.006442
-9.653159 48.565700 -4.727858
-9.653159 48.565700 52.006442
22.064009 1.592154 23.639292
-2.757691 44.584599 23.639292
12.410850 10.349715 -4.727858
12.410850 10.349715 52.006442
12.410850 18.311916 23.639292
9.653159 5.573254 -4.727858
9.653159 5.573254 52.006442
-15.168541 48.565700 -4.727858
-15.168541 48.565700 52.006442
2.757691 1.592154 23.639292
-22.064009 44.584599 23.639292
52.401091 1.592154 23.639292
27.579391 44.584599 23.639292
16.951980 4.543585 -4.727858
16.951980 4.543585 52.006442
-7.869720 47.536030 -4.727858
-7.869720 47.536030 52.006442
20.280570 2.621823 23.639292
-4.541130 45.614268 23.639292
12.410850 12.409053 -4.727858
12.410850 12.409053 52.006442
12.410850 16.252577 23.639292
7.869720 4.543585 -4.727858
7.869720 4.543585 52.006442
-16.951980 47.536030 -4.727858
-16.951980 47.536030 52.006442
4.541130 2.621823 23.639292
-20.280570 45.614268 23.639292
54.184530 2.621823 23.639292
29.362830 45.614268 23.639292
18.616275 3.582704 -4.727858
18.616275 3.582704 52.006442
-6.205425 46.575149 -4.727858
-6.205425 46.575149 52.006442
18.616275 3.582704 23.639292
-6.205425 46.575149 23.639292
12.410850 14.330815 -4.727858
12.410850 14.330815 52.006442
12.410850 14.330815 23.639292
6.205425 3.582704 -4.727858
6.205425 3.582704 52.006442
-18.616275 46.575149 -4.727858
-18.616275 46.575149 52.006442
6.205425 3.582704 23.639292
-18.616275 46.575149 23.639292
18.616275 3.582704 47.280474
-6.205425 46.575149 47.280474
18.616275 3.582704 28.365259
-6.205425 46.575149 28.365259
12.410850 14.330815 47.280474
12.410850 14.330815 28.365259
6.205425 3.582704 47.280474
-18.616275 46.575149 47.280474
6.205425 3.582704 28.365259
-18.616275 46.575149 28.365259
18.616275 3.582704 42.548834
-6.205425 46.575149 42.548834
18.616275 3.582704 33.096899
-6.205425 46.575149 33.096899
12.410850 14.330815 42.548834
12.410850 14.330815 33.096899
6.205425 3.582704 42.548834
-18.616275 46.575149 42.548834
6.205425 3.582704 33.096899
-18.616275 46.575149 33.096899
18.616275 3.582704 37.822867
-6.205425 46.575149 37.822867
12.410850 14.330815 37.822867
6.205425 3.582704 37.822867
-18.616275 46.575149 37.822867
0.000000 0.000143 23.639292
-24.821700 42.992589 23.639292
49.643400 0.000143 23.639292
24.821700 42.992589 23.639292
12.410726 21.496151 23.639292
-12.410974 35.827110 14.183575
0.000124 28.661559 42.550725
-9.653159 34.234884 14.183575
-2.757691 30.253784 42.550725
12.410850 -3.981100 14.183575
-12.410850 39.011345 14.183575
0.000000 25.477323 42.550725
-15.168541 34.234884 14.183575
34.474859 34.234884 14.183575
2.757691 30.253784 42.550725
-7.869720 33.205215 14.183575
-4.541130 31.283453 42.550725
12.410850 -1.921762 14.183575
-12.410850 41.070683 14.183575
0.000000 23.417985 42.550725
-16.951980 33.205215 14.183575
32.691420 33.205215 14.183575
4.541130 31.283453 42.550725
-6.205425 32.244334 14.183575
-6.205425 32.244334 42.550725
0.000000 21.496223 14.183575
0.000000 21.496223 42.550725
-18.616275 32.244334 14.183575
31.027125 32.244334 14.183575
-18.616275 32.244334 42.550725
31.027125 32.244334 42.550725
-6.205425 32.244334 9.457608
-6.205425 32.244334 47.276692
0.000000 21.496223 9.457608
0.000000 21.496223 47.276692
-18.616275 32.244334 9.457608
31.027125 32.244334 9.457608
-18.616275 32.244334 47.276692
31.027125 32.244334 47.276692
-6.205425 32.244334 4.725967
-6.205425 32.244334 61.460267
-6.205425 32.244334 -4.725967
-6.205425 32.244334 52.008333
0.000000 21.496223 4.725967
0.000000 21.496223 61.460267
0.000000 21.496223 -4.725967
0.000000 21.496223 52.008333
-18.616275 32.244334 4.725967
-18.616275 32.244334 61.460267
31.027125 32.244334 4.725967
31.027125 32.244334 61.460267
-18.616275 32.244334 -4.725967
-18.616275 32.244334 52.008333
31.027125 32.244334 -4.725967
31.027125 32.244334 52.008333
-6.205425 32.244334 0.000000
-6.205425 32.244334 56.734300
0.000000 21.496223 0.000000
0.000000 21.496223 56.734300
-18.616275 32.244334 0.000000
-18.616275 32.244334 56.734300
31.027125 32.244334 0.000000
31.027125 32.244334 56.734300
-12.410726 35.826966 4.727858
-12.410726 35.826966 61.462158
2.757691 -1.592154 33.095008
-22.064009 41.400292 33.095008
52.401091 -1.592154 33.095008
27.579391 41.400292 33.095008
9.653159 -5.573254 4.727858
9.653159 -5.573254 61.462158
-15.168541 37.419192 4.727858
-15.168541 37.419192 61.462158
59.296559 -5.573254 4.727858
59.296559 -5.573254 61.462158
34.474859 37.419192 4.727858
34.474859 37.419192 61.462158
-12.410850 24.680530 33.095008
37.232550 24.680530 33.095008
-12.410850 32.642731 4.727858
-12.410850 32.642731 61.462158
37.232550 32.642731 4.727858
37.232550 32.642731 61.462158
22.064009 -1.592154 33.095008
-2.757691 41.400292 33.095008
15.168541 -5.573254 4.727858
15.168541 -5.573254 61.462158
-9.653159 37.419192 4.727858
-9.653159 37.419192 61.462158
4.541130 -2.621823 33.095008
-20.280570 40.370623 33.095008
54.184530 -2.621823 33.095008
29.362830 40.370623 33.095008
7.869720 -4.543585 4.727858
7.869720 -4.543585 61.462158
-16.951980 38.448861 4.727858
-16.951980 38.448861 61.462158
57.513120 -4.543585 4.727858
57.513120 -4.543585 61.462158
32.691420 38.448861 4.727858
32.691420 38.448861 61.462158
-12.410850 26.739868 33.095008
37.232550 26.739868 33.095008
-12.410850 30.583393 4.727858
-12.410850 30.583393 61.462158
37.232550 30.583393 4.727858
37.232550 30.583393 61.462158
20.280570 -2.621823 33.095008
-4.541130 40.370623 33.095008
16.951980 -4.543585 4.727858
16.951980 -4.543585 61.462158
-7.869720 38.448861 4.727858
-7.869720 38.448861 61.462158
6.205425 -3.582704 33.095008
-18.616275 39.409742 33.095008
55.848825 -3.582704 33.095008
31.027125 39.409742 33.095008
6.205425 -3.582704 4.727858
6.205425 -3.582704 61.462158
-18.616275 39.409742 4.727858
-18.616275 39.409742 61.462158
55.848825 -3.582704 4.727858
55.848825 -3.582704 61.462158
31.027125 39.409742 4.727858
31.027125 39.409742 61.462158
-12.410850 28.661630 33.095008
37.232550 28.661630 33.095008
-12.410850 28.661630 4.727858
-12.410850 28.661630 61.462158
37.232550 28.661630 4.727858
37.232550 28.661630 61.462158
18.616275 -3.582704 33.095008
-6.205425 39.409742 33.095008
18.616275 -3.582704 4.727858
18.616275 -3.582704 61.462158
-6.205425 39.409742 4.727858
-6.205425 39.409742 61.462158
6.205425 -3.582704 28.369041
-18.616275 39.409742 28.369041
55.848825 -3.582704 28.369041
31.027125 39.409742 28.369041
6.205425 -3.582704 9.453826
-18.616275 39.409742 9.453826
55.848825 -3.582704 9.453826
31.027125 39.409742 9.453826
-12.410850 28.661630 28.369041
37.232550 28.661630 28.369041
-12.410850 28.661630 9.453826
37.232550 28.661630 9.453826
18.616275 -3.582704 28.369041
-6.205425 39.409742 28.369041
18.616275 -3.582704 9.453826
-6.205425 39.409742 9.453826
6.205425 -3.582704 23.637401
-18.616275 39.409742 23.637401
55.848825 -3.582704 23.637401
31.027125 39.409742 23.637401
6.205425 -3.582704 14.185466
-18.616275 39.409742 14.185466
55.848825 -3.582704 14.185466
31.027125 39.409742 14.185466
-12.410850 28.661630 23.637401
37.232550 28.661630 23.637401
-12.410850 28.661630 14.185466
37.232550 28.661630 14.185466
18.616275 -3.582704 23.637401
-6.205425 39.409742 23.637401
18.616275 -3.582704 14.185466
-6.205425 39.409742 14.185466
6.205425 -3.582704 18.911433
-18.616275 39.409742 18.911433
55.848825 -3.582704 18.911433
31.027125 39.409742 18.911433
-12.410850 28.661630 18.911433
37.232550 28.661630 18.911433
18.616275 -3.582704 18.911433
-6.205425 39.409742 18.911433
-12.410726 21.496294 33.095008
37.232674 21.496294 33.095008
-0.000124 28.661702 -4.727858
-0.000124 28.661702 52.006442
2.757691 27.069477 -4.727858
2.757691 27.069477 52.006442
9.653159 23.088376 23.639292
0.000000 31.845937 -4.727858
0.000000 31.845937 52.006442
24.821700 -3.184307 23.639292
0.000000 39.808138 23.639292
-2.757691 27.069477 -4.727858
-2.757691 27.069477 52.006442
-9.653159 23.088376 23.639292
39.990241 23.088376 23.639292
4.541130 26.039808 -4.727858
4.541130 26.039808 52.006442
7.869720 24.118045 23.639292
0.000000 33.905276 -4.727858
0.000000 33.905276 52.006442
24.821700 -5.243645 23.639292
0.000000 37.748800 23.639292
-4.541130 26.039808 -4.727858
-4.541130 26.039808 52.006442
-7.869720 24.118045 23.639292
41.773680 24.118045 23.639292
6.205425 25.078927 -4.727858
6.205425 25.078927 52.006442
6.205425 25.078927 23.639292
0.000000 35.827038 -4.727858
0.000000 35.827038 52.006442
0.000000 35.827038 23.639292
-6.205425 25.078927 -4.727858
-6.205425 25.078927 52.006442
-6.205425 25.078927 23.639292
6.205425 25.078927 47.280474
6.205425 25.078927 28.365259
0.000000 35.827038 47.280474
0.000000 35.827038 28.365259
-6.205425 25.078927 47.280474
-6.205425 25.078927 28.365259
6.205425 25.078927 42.548834
6.205425 25.078927 33.096899
0.000000 35.827038 42.548834
0.000000 35.827038 33.096899
-6.205425 25.078927 42.548834
-6.205425 25.078927 33.096899
6.205425 25.078927 37.822867
0.000000 35.827038 37.822867
-6.205425 25.078927 37.822867
24.821576 -0.000072 23.639292
-0.000124 42.992374 23.639292
24.821576 14.330887 14.183575
37.232674 7.165336 42.550725
27.579391 12.738662 14.183575
34.474859 8.757561 42.550725
24.821700 17.515122 14.183575
37.232550 3.981100 42.550725
12.410850 46.973546 42.550725
22.064009 12.738662 14.183575
-9.653159 8.757561 42.550725
39.990241 8.757561 42.550725
29.362830 11.708993 14.183575
32.691420 9.787230 42.550725
24.821700 19.574460 14.183575
37.232550 1.921762 42.550725
12.410850 44.914208 42.550725
20.280570 11.708993 14.183575
-7.869720 9.787230 42.550725
41.773680 9.787230 42.550725
31.027125 10.748111 14.183575
31.027125 10.748111 42.550725
37.232550 0.000000 14.183575
12.410850 42.992446 14.183575
37.232550 0.000000 42.550725
12.410850 42.992446 42.550725
18.616275 10.748111 14.183575
18.616275 10.748111 42.550725
31.027125 10.748111 9.457608
31.027125 10.748111 47.276692
37.232550 0.000000 9.457608
12.410850 42.992446 9.457608
37.232550 0.000000 47.276692
12.410850 42.992446 47.276692
18.616275 10.748111 9.457608
18.616275 10.748111 47.276692
31.027125 10.748111 4.725967
31.027125 10.748111 61.460267
31.027125 10.748111 -4.725967
31.027125 10.748111 52.008333
37.232550 0.000000 4.725967
37.232550 0.000000 61.460267
12.410850 42.992446 4.725967
12.410850 42.992446 61.460267
37.232550 -0.000000 -4.725967
37.232550 0.000000 52.008333
12.410850 42.992446 -4.725967
12.410850 42.992446 52.008333
18.616275 10.748111 4.725967
18.616275 10.748111 61.460267
18.616275 10.748111 -4.725967
18.616275 10.748111 52.008333
31.027125 10.748111 0.000000
31.027125 10.748111 56.734300
37.232550 0.000000 0.000000
37.232550 0.000000 56.734300
12.410850 42.992446 0.000000
12.410850 42.992446 56.734300
18.616275 10.748111 0.000000
18.616275 10.748111 56.734300
24.821824 14.330744 4.727858
24.821824 14.330744 61.462158
15.168541 19.904069 33.095008
22.064009 15.922969 4.727858
22.064009 15.922969 61.462158
24.821700 3.184307 33.095008
0.000000 46.176753 33.095008
24.821700 11.146508 4.727858
24.821700 11.146508 61.462158
-15.168541 19.904069 33.095008
34.474859 19.904069 33.095008
27.579391 15.922969 4.727858
27.579391 15.922969 61.462158
16.951980 18.874400 33.095008
20.280570 16.952638 4.727858
20.280570 16.952638 61.462158
24.821700 5.243645 33.095008
0.000000 48.236091 33.095008
24.821700 9.087170 4.727858
24.821700 9.087170 61.462158
-16.951980 18.874400 33.095008
32.691420 18.874400 33.095008
29.362830 16.952638 4.727858
29.362830 16.952638 61.462158
18.616275 17.913519 33.095008
18.616275 17.913519 4.727858
18.616275 17.913519 61.462158
24.821700 7.165408 33.095008
24.821700 7.165408 4.727858
24.821700 7.165408 61.462158
31.027125 17.913519 33.095008
31.027125 17.913519 4.727858
31.027125 17.913519 61.462158
18.616275 17.913519 28.369041
18.616275 17.913519 9.453826
24.821700 7.165408 28.369041
24.821700 7.165408 9.453826
31.027125 17.913519 28.369041
31.027125 17.913519 9.453826
18.616275 17.913519 23.637401
18.616275 17.913519 14.185466
24.821700 7.165408 23.637401
24.821700 7.165408 14.185466
31.027125 17.913519 23.637401
31.027125 17.913519 14.185466
18.616275 17.913519 18.911433
24.821700 7.165408 18.911433
31.027125 17.913519 18.911433
37.232426 7.165479 -4.727858
37.232426 7.165479 52.006442
-9.653159 5.573254 -4.727858
-9.653159 5.573254 52.006442
-34.474859 48.565700 -4.727858
-34.474859 48.565700 52.006442
39.990241 5.573254 -4.727858
39.990241 5.573254 52.006442
15.168541 48.565700 -4.727858
15.168541 48.565700 52.006442
-2.757691 1.592154 23.639292
-27.579391 44.584599 23.639292
46.885709 1.592154 23.639292
22.064009 44.584599 23.639292
-12.410850 10.349715 -4.727858
-12.410850 10.349715 52.006442
37.232550 10.349715 -4.727858
37.232550 10.349715 52.006442
-12.410850 18.311916 23.639292
37.232550 18.311916 23.639292
34.474859 5.573254 -4.727858
34.474859 5.573254 52.006442
9.653159 48.565700 -4.727858
9.653159 48.565700 52.006442
27.579391 1.592154 23.639292
2.757691 44.584599 23.639292
-7.869720 4.543585 -4.727858
-7.869720 4.543585 52.006442
-32.691420 47.536030 -4.727858
-32.691420 47.536030 52.006442
41.773680 4.543585 -4.727858
41.773680 4.543585 52.006442
16.951980 47.536030 -4.727858
16.951980 47.536030 52.006442
-4.541130 2.621823 23.639292
-29.362830 45.614268 23.639292
45.102270 2.621823 23.639292
20.280570 45.614268 23.639292
-12.410850 12.409053 -4.727858
-12.410850 12.409053 52.006442
37.232550 12.409053 -4.727858
37.232550 12.409053 52.006442
-12.410850 16.252577 23.639292
37.232550 16.252577 23.639292
32.691420 4.543585 -4.727858
32.691420 4.543585 52.006442
7.869720 47.536030 -4.727858
7.869720 47.536030 52.006442
29.362830 2.621823 23.639292
4.541130 45.614268 23.639292
-6.205425 3.582704 -4.727858
-6.205425 3.582704 52.006442
-31.027125 46.575149 -4.727858
-31.027125 46.575149 52.006442
43.437975 3.582704 -4.727858
43.437975 3.582704 52.006442
18.616275 46.575149 -4.727858
18.616275 46.575149 52.006442
-6.205425 3.582704 23.639292
-31.027125 46.575149 23.639292
43.437975 3.582704 23.639292
18.616275 46.575149 23.639292
-12.410850 14.330815 -4.727858
-12.410850 14.330815 52.006442
37.232550 14.330815 -4.727858
37.232550 14.330815 52.006442
-12.410850 14.330815 23.639292
37.232550 14.330815 23.639292
31.027125 3.582704 -4.727858
31.027125 3.582704 52.006442
6.205425 46.575149 -4.727858
6.205425 46.575149 52.006442
31.027125 3.582704 23.639292
6.205425 46.575149 23.639292
-6.205425 3.582704 47.280474
-31.027125 46.575149 47.280474
43.437975 3.582704 47.280474
18.616275 46.575149 47.280474
-6.205425 3.582704 28.365259
-31.027125 46.575149 28.365259
43.437975 3.582704 28.365259
18.616275 46.575149 28.365259
-12.410850 14.330815 47.280474
37.232550 14.330815 47.280474
-12.410850 14.330815 28.365259
37.232550 14.330815 28.365259
31.027125 3.582704 47.280474
6.205425 46.575149 47.280474
31.027125 3.582704 28.365259
6.205425 46.575149 28.365259
-6.205425 3.582704 42.548834
-31.027125 46.575149 42.548834
43.437975 3.582704 42.548834
18.616275 46.575149 42.548834
-6.205425 3.582704 33.096899
-31.027125 46.575149 33.096899
43.437975 3.582704 33.096899
18.616275 46.575149 33.096899
-12.410850 14.330815 42.548834
37.232550 14.330815 42.548834
-12.410850 14.330815 33.096899
37.232550 14.330815 33.096899
31.027125 3.582704 42.548834
6.205425 46.575149 42.548834
31.027125 3.582704 33.096899
6.205425 46.575149 33.096899
-6.205425 3.582704 37.822867
-31.027125 46.575149 37.822867
43.437975 3.582704 37.822867
18.616275 46.575149 37.822867
-12.410850 14.330815 37.822867
37.232550 14.330815 37.822867
31.027125 3.582704 37.822867
6.205425 46.575149 37.822867
12.410726 35.827110 14.183575
24.821824 28.661559 42.550725
15.168541 34.234884 14.183575
22.064009 30.253784 42.550725
37.232550 -3.981100 14.183575
12.410850 39.011345 14.183575
24.821700 25.477323 42.550725
9.653159 34.234884 14.183575
-22.064009 30.253784 42.550725
27.579391 30.253784 42.550725
16.951980 33.205215 14.183575
20.280570 31.283453 42.550725
37.232550 -1.921762 14.183575
12.410850 41.070683 14.183575
24.821700 23.417985 42.550725
7.869720 33.205215 14.183575
-20.280570 31.283453 42.550725
29.362830 31.283453 42.550725
18.616275 32.244334 14.183575
18.616275 32.244334 42.550725
24.821700 21.496223 14.183575
24.821700 21.496223 42.550725
6.205425 32.244334 14.183575
6.205425 32.244334 42.550725
18.616275 32.244334 9.457608
18.616275 32.244334 47.276692
24.821700 21.496223 9.457608
24.821700 21.496223 47.276692
6.205425 32.244334 9.457608
6.205425 32.244334 47.276692
18.616275 32.244334 4.725967
18.616275 32.244334 61.460267
18.616275 32.244334 -4.725967
18.616275 32.244334 52.008333
24.821700 21.496223 4.725967
24.821700 21.496223 61.460267
24.821700 21.496223 -4.725967
24.821700 21.496223 52.008333
6.205425 32.244334 4.725967
6.205425 32.244334 61.460267
6.205425 32.244334 -4.725967
6.205425 32.244334 52.008333
18.616275 32.244334 0.000000
18.616275 32.244334 56.734300
24.821700 21.496223 0.000000
24.821700 21.496223 56.734300
6.205425 32.244334 0.000000
6.205425 32.244334 56.734300
12.410974 35.826966 4.727858
12.410974 35.826966 61.462158
27.579391 -1.592154 33.095008
2.757691 41.400292 33.095008
34.474859 -5.573254 4.727858
34.474859 -5.573254 61.462158
9.653159 37.419192 4.727858
9.653159 37.419192 61.462158
12.410850 24.680530 33.095008
12.410850 32.642731 4.727858
12.410850 32.642731 61.462158
-2.757691 -1.592154 33.095008
-27.579391 41.400292 33.095008
46.885709 -1.592154 33.095008
22.064009 41.400292 33.095008
39.990241 -5.573254 4.727858
39.990241 -5.573254 61.462158
15.168541 37.419192 4.727858
15.168541 37.419192 61.462158
29.362830 -2.621823 33.095008
4.541130 40.370623 33.095008
32.691420 -4.543585 4.727858
32.691420 -4.543585 61.462158
7.869720 38.448861 4.727858
7.869720 38.448861 61.462158
12.410850 26.739868 33.095008
12.410850 30.583393 4.727858
12.410850 30.583393 61.462158
-4.541130 -2.621823 33.095008
-29.362830 40.370623 33.095008
45.102270 -2.621823 33.095008
20.280570 40.370623 33.095008
41.773680 -4.543585 4.727858
41.773680 -4.543585 61.462158
16.951980 38.448861 4.727858
16.951980 38.448861 61.462158
31.027125 -3.582704 33.095008
6.205425 39.409742 33.095008
31.027125 -3.582704 4.727858
31.027125 -3.582704 61.462158
6.205425 39.409742 4.727858
6.205425 39.409742 61.462158
12.410850 28.661630 33.095008
12.410850 28.661630 4.727858
12.410850 28.661630 61.462158
43.437975 -3.582704 33.095008
18.616275 39.409742 33.095008
43.437975 -3.582704 4.727858
43.437975 -3.582704 61.462158
18.616275 39.409742 4.727858
18.616275 39.409742 61.462158
31.027125 -3.582704 28.369041
6.205425 39.409742 28.369041
31.027125 -3.582704 9.453826
6.205425 39.409742 9.453826
12.410850 28.661630 28.369041
12.410850 28.661630 9.453826
43.437975 -3.582704 28.369041
18.616275 39.409742 28.369041
43.437975 -3.582704 9.453826
18.616275 39.409742 9.453826
31.027125 -3.582704 23.637401
6.205425 39.409742 23.637401
31.027125 -3.582704 14.185466
6.205425 39.409742 14.185466
12.410850 28.661630 23.637401
12.410850 28.661630 14.185466
43.437975 -3.582704 23.637401
18.616275 39.409742 23.637401
43.437975 -3.582704 14.185466
18.616275 39.409742 14.185466
31.027125 -3.582704 18.911433
6.205425 39.409742 18.911433
12.410850 28.661630 18.911433
43.437975 -3.582704 18.911433
18.616275 39.409742 18.911433
24.821576 28.661702 -4.727858
24.821576 28.661702 52.006442
-22.064009 27.069477 -4.727858
-22.064009 27.069477 52.006442
27.579391 27.069477 -4.727858
27.579391 27.069477 52.006442
-15.168541 23.088376 23.639292
34.474859 23.088376 23.639292
-24.821700 31.845937 -4.727858
-24.821700 31.845937 52.006442
24.821700 31.845937 -4.727858
24.821700 31.845937 52.006442
-0.000000 -3.184307 23.639292
-24.821700 39.808138 23.639292
49.643400 -3.184307 23.639292
24.821700 39.808138 23.639292
22.064009 27.069477 -4.727858
22.064009 27.069477 52.006442
15.168541 23.088376 23.639292
-20.280570 26.039808 -4.727858
-20.280570 26.039808 52.006442
29.362830 26.039808 -4.727858
29.362830 26.039808 52.006442
-16.951980 24.118045 23.639292
32.691420 24.118045 23.639292
-24.821700 33.905276 -4.727858
-24.821700 33.905276 52.006442
24.821700 33.905276 -4.727858
24.821700 33.905276 52.006442
-0.000000 -5.243645 23.639292
-24.821700 37.748800 23.639292
49.643400 -5.243645 23.639292
24.821700 37.748800 23.639292
20.280570 26.039808 -4.727858
20.280570 26.039808 52.006442
16.951980 24.118045 23.639292
-18.616275 25.078927 -4.727858
-18.616275 25.078927 52.006442
31.027125 25.078927 -4.727858
31.027125 25.078927 52.006442
-18.616275 25.078927 23.639292
31.027125 25.078927 23.639292
-24.821700 35.827038 -4.727858
-24.821700 35.827038 52.006442
24.821700 35.827038 -4.727858
24.821700 35.827038 52.006442
-24.821700 35.827038 23.639292
24.821700 35.827038 23.639292
18.616275 25.078927 -4.727858
18.616275 25.078927 52.006442
18.616275 25.078927 23.639292
-18.616275 25.078927 47.280474
31.027125 25.078927 47.280474
-18.616275 25.078927 28.365259
31.027125 25.078927 28.365259
-24.821700 35.827038 47.280474
24.821700 35.827038 47.280474
-24.821700 35.827038 28.365259
24.821700 35.827038 28.365259
18.616275 25.078927 47.280474
18.616275 25.078927 28.365259
-18.616275 25.078927 42.548834
31.027125 25.078927 42.548834
-18.616275 25.078927 33.096899
31.027125 25.078927 33.096899
-24.821700 35.827038 42.548834
24.821700 35.827038 42.548834
-24.821700 35.827038 33.096899
24.821700 35.827038 33.096899
18.616275 25.078927 42.548834
18.616275 25.078927 33.096899
-18.616275 25.078927 37.822867
31.027125 25.078927 37.822867
-24.821700 35.827038 37.822867
24.821700 35.827038 37.822867
18.616275 25.078927 37.822867
LINES 158 474
2 10 18
2 11 19
2 12 254
2 13 22
2 14 23
2 15 24
2 16 25
2 17 483
2 20 246
2 21 247
2 26 474
2 27 475
2 89 106
2 90 107
2 91 108
2 92 109
2 93 110
2 94 111
2 95 112
2 97 113
2 99 114
2 100 115
2 101 116
2 102 117
2 103 118
2 104 119
2 105 120
2 172 189
2 173 190
2 174 191
2 175 192
2 176 193
2 177 194
2 178 195
2 179 196
2 180 197
2 181 198
2 182 199
2 183 200
2 184 201
2 185 202
2 186 203
2 244 252
2 245 253
2 248 255
2 249 256
2 250 257
2 251 701
2 258 694
2 259 695
2 318 342
2 319 343
2 320 344
2 321 345
2 322 346
2 323 347
2 324 348
2 325 349
2 326 350
2 327 351
2 328 352
2 329 353
2 330 354
2 331 355
2 332 356
2 333 357
2 334 358
2 335 359
2 336 360
2 337 361
2 338 362
2 339 363
2 340 364
2 341 365
2 421 432
2 422 433
2 423 434
2 424 435
2 425 436
2 427 437
2 428 438
2 429 439
2 430 440
2 468 476
2 469 477
2 470 698
2 471 480
2 472 481
2 473 482
2 478 690
2 479 691
2 529 540
2 530 541
2 531 542
2 532 543
2 534 544
2 535 545
2 537 546
2 538 547
2 539 548
2 590 614
2 591 615
2 592 616
2 593 617
2 594 618
2 595 619
2 596 620
2 597 621
2 598 622
2 599 623
2 600 624
2 601 625
2 602 626
2 603 627
2 604 628
2 605 629
2 606 630
2 607 631
2 608 632
2 609 633
2 610 634
2 611 635
2 612 636
2 613 637
2 688 696
2 689 697
2 692 699
2 693 700
2 745 762
2 746 763
2 747 764
2 748 765
2 749 766
2 750 767
2 751 768
2 752 769
2 753 770
2 756 771
2 757 772
2 758 773
2 759 774
2 760 775
2 761 776
2 821 838
2 822 839
2 823 840
2 824 841
2 825 842
2 826 843
2 827 844
2 828 845
2 829 846
2 830 847
2 832 848
2 834 849
2 835 850
2 836 851
2 837 852
