# vtk DataFile Version 1.0
Cube
ASCII

DATASET POLYDATA
POINTS 328 float
12.653660 -1.953336 4.558393
12.355626 -0.635497 3.819424
12.653660 28.046664 4.558393
12.355626 29.364503 3.819424
2.458841 12.381101 2.504277
3.348366 13.638157 2.491853
2.458841 12.381101 32.504277
3.348366 13.638157 32.491853
32.458841 12.381101 2.504277
33.348366 13.638157 2.491853
32.458841 12.381101 32.504277
33.348366 13.638157 32.491853
14.921436 24.182734 7.596127
14.731880 25.693225 7.363566
0.447892 8.421356 2.219806
-0.191655 7.377193 3.153778
0.447892 8.421356 32.219806
-0.191655 7.377193 33.153778
30.447892 8.421356 2.219806
29.808345 7.377193 3.153778
30.447892 8.421356 32.219806
29.808345 7.377193 33.153778
12.322294 8.416253 16.611075
12.915803 8.037188 17.980621
22.168811 21.819480 4.423482
20.679346 21.455495 4.567041
16.016969 2.889790 9.299761
16.931904 3.590680 8.278366
-1.212610 25.342875 13.703624
-2.336021 25.459350 14.750515
28.787390 25.342875 13.703624
27.663979 25.459350 14.750515
9.985994 10.948718 1.676370
10.521515 11.979923 2.687029
9.985994 10.948718 31.676370
10.521515 11.979923 32.687029
13.924510 -0.134220 23.477703
14.968404 0.425159 22.493334
13.924510 29.865780 23.477703
14.968404 30.425159 22.493334
22.678145 4.217054 11.046505
21.489616 3.870466 10.130604
21.584545 25.039714 6.149710
21.254294 23.914913 7.148388
1.845259 26.378789 18.611264
0.402571 26.839556 18.890450
31.845259 26.378789 18.611264
30.402571 26.839556 18.890450
8.870070 8.947732 12.412629
9.868026 9.874209 11.693376
6.172348 20.983873 10.588293
5.815072 22.479445 10.503333
-2.510214 5.062148 13.923507
-2.424302 5.426787 15.417247
27.489786 5.062148 13.923507
27.575698 5.426787 15.417247
12.696222 10.831795 17.629642
12.192163 10.780263 16.175383
5.609734 14.898947 9.742863
5.256330 14.173357 11.054437
16.999775 10.783557 15.839510
17.988133 9.766994 15.238387
3.303227 9.069943 0.770805
3.591236 9.849445 -0.525739
3.303227 9.069943 30.770805
3.591236 9.849445 29.474261
13.152859 10.012008 1.034211
12.345568 10.256902 -0.254163
13.152859 10.012008 31.034211
12.345568 10.256902 29.745837
8.644771 17.212983 0.435648
9.743914 16.453547 -0.330343
8.644771 17.212983 30.435648
9.743914 16.453547 29.669657
-3.020312 15.375985 8.923276
-2.177033 16.410282 9.691854
26.979688 15.375985 8.923276
27.822967 16.410282 9.691854
14.671799 11.587592 21.268546
13.727628 12.505309 20.469836
14.775323 18.651926 17.145200
14.526768 19.728973 16.072917
7.381692 8.288104 5.374909
6.799125 7.055134 6.090451
7.703028 15.303748 16.034831
8.729749 16.449336 16.106060
13.915600 1.202512 8.792538
13.411731 -0.213678 9.127385
13.915600 31.202512 8.792538
13.411731 29.786322 9.127385
16.678469 -2.781595 25.691993
17.154506 -2.530859 24.249037
16.678469 27.218405 25.691993
17.154506 27.469141 24.249037
22.776507 23.112697 -1.195774
21.312534 22.956663 -0.744069
22.776507 23.112697 28.804226
21.312534 22.956663 29.255931
3.677396 7.833799 11.979797
2.908725 7.515809 13.275801
14.131354 6.375317 20.142203
13.327389 5.500583 21.122040
22.153224 12.918247 9.908729
22.999247 12.131176 8.890711
20.300439 0.203241 9.316675
20.387115 1.519455 8.521901
20.300439 30.203241 9.316675
20.387115 31.519455 8.521901
-0.711090 26.101390 21.759021
0.531141 27.002557 21.886931
29.288910 26.101390 21.759021
30.531141 27.002557 21.886931
18.962143 3.369690 9.928924
20.331348 3.721941 10.539496
13.609475 10.633908 14.918960
12.828050 9.444351 14.330802
27.480853 1.524085 8.236520
26.278673 1.620151 9.194191
27.480853 31.524085 8.236520
26.278673 31.620151 9.194191
5.445792 17.521578 15.814348
6.227545 16.813234 14.692425
7.352391 17.060551 5.014577
6.845641 16.036271 3.982271
-3.330987 14.888991 -0.052259
-2.447864 13.942448 -0.886376
-3.330987 14.888991 29.947741
-2.447864 13.942448 29.113624
26.669013 14.888991 -0.052259
27.552136 13.942448 -0.886376
26.669013 14.888991 29.947741
27.552136 13.942448 29.113624
14.955972 15.846438 21.338072
13.935837 14.981733 22.101755
7.119171 26.193515 9.185896
6.655904 26.521279 7.754269
18.165485 6.402529 7.776177
18.419512 7.907745 7.979638
23.602010 18.241398 11.827593
24.721126 18.954222 12.609297
21.875775 -3.033031 11.088443
21.947268 -1.664578 11.791169
21.875775 26.966969 11.088443
21.947268 28.335422 11.791169
16.896674 12.641942 17.777933
17.127714 14.151339 17.578077
0.681975 18.834240 8.830359
0.853873 17.346247 8.472690
30.681975 18.834240 8.830359
30.853873 17.346247 8.472690
14.452290 13.352585 27.282281
13.744309 14.520780 26.571167
25.023136 23.575273 8.303012
24.612260 24.958136 7.764058
2.922259 5.311407 11.622185
2.831126 5.985003 13.004055
32.922259 5.311407 11.622185
32.831126 5.985003 13.004055
18.383178 17.361134 6.195615
18.460121 18.123352 7.531543
15.276456 10.958103 8.412132
16.718062 11.374287 8.065485
-1.625986 25.974708 26.356759
-1.325965 24.529677 26.796614
28.374014 25.974708 26.356759
28.674035 24.529677 26.796614
-1.731093 6.690174 24.986210
-1.954014 7.814803 23.958049
28.268907 6.690174 24.986210
28.045986 7.814803 23.958049
2.654746 3.301930 -2.875295
1.519659 3.018627 -1.873838
2.654746 3.301930 27.124705
1.519659 3.018627 28.126162
32.654746 3.301930 -2.875295
31.519659 3.018627 -1.873838
32.654746 3.301930 27.124705
31.519659 3.018627 28.126162
25.325012 -3.406917 18.309972
26.369761 -2.388972 17.816124
25.325012 26.593083 18.309972
26.369761 27.611028 17.816124
10.418042 -1.147106 6.301050
11.325755 -1.896733 5.308218
10.418042 28.852894 6.301050
11.325755 28.103267 5.308218
-1.851179 15.945088 4.255377
-2.405753 15.914682 2.819020
28.148821 15.945088 4.255377
27.594247 15.914682 2.819020
20.647190 -1.201540 8.638647
19.696406 -1.962409 9.581349
20.647190 28.798460 8.638647
19.696406 28.037591 9.581349
4.852653 -1.440029 20.371160
4.596954 0.078408 20.347324
4.852653 28.559971 20.371160
4.596954 30.078408 20.347324
14.829863 22.669173 -1.939113
13.504651 23.166462 -1.332387
14.829863 22.669173 28.060887
13.504651 23.166462 28.667613
14.068375 8.990404 -1.078345
13.700897 10.100770 -2.080167
14.068375 8.990404 28.921655
13.700897 10.100770 27.919833
6.260002 7.644199 15.311288
5.389864 6.783297 14.376779
11.080972 13.603209 -2.122261
11.697647 15.010083 -2.012635
11.080972 13.603209 27.877739
11.697647 15.010083 27.987365
17.319018 19.484061 -3.031615
16.259743 18.624571 -2.316902
17.319018 19.484061 26.968385
16.259743 18.624571 27.683098
14.348900 10.199331 16.769880
15.650372 9.393529 16.938569
20.605718 3.406044 23.430100
20.603426 4.110177 24.799695
17.274077 22.496700 12.784316
18.725713 22.627421 13.281576
20.532364 19.509423 8.170815
21.538615 18.949593 9.193386
2.080995 1.572758 11.037339
2.888385 2.444578 10.057721
2.080995 31.572758 11.037339
2.888385 32.444578 10.057721
32.080995 1.572758 11.037339
32.888385 2.444578 10.057721
32.080995 31.572758 11.037339
32.888385 32.444578 10.057721
13.721350 25.301621 26.441638
14.319962 24.256490 27.401307
13.200168 17.854266 20.288878
14.518483 18.177458 21.016334
2.766446 2.222834 12.922675
2.013749 1.571325 11.747692
2.766446 32.222834 12.922675
2.013749 31.571325 11.747692
32.766446 2.222834 12.922675
32.013749 1.571325 11.747692
32.766446 32.222834 12.922675
32.013749 31.571325 11.747692
17.926214 20.557921 10.406829
17.562733 20.095408 8.983606
1.880667 11.417084 24.887471
2.556763 12.797682 24.795592
31.880667 11.417084 24.887471
32.556763 12.797682 24.795592
20.957270 -2.770358 2.626881
20.615301 -2.180592 1.245999
20.957270 -2.770358 32.626881
20.615301 -2.180592 31.245999
20.957270 27.229642 2.626881
20.615301 27.819408 1.245999
20.957270 27.229642 32.626881
20.615301 27.819408 31.245999
21.142983 2.419274 -1.720718
22.177767 2.422755 -0.580187
21.142983 2.419274 28.279282
22.177767 2.422755 29.419813
21.142983 32.419274 -1.720718
22.177767 32.422755 -0.580187
21.142983 32.419274 28.279282
22.177767 32.422755 29.419813
21.764425 12.413949 21.757265
21.987402 13.486579 22.839553
9.258786 20.280446 18.163590
8.190660 19.441930 17.437232
24.618151 1.843101 21.878480
26.138620 2.052746 21.752685
24.618151 31.843101 21.878480
26.138620 32.052746 21.752685
5.228994 3.252117 23.128133
5.616337 3.926641 21.799004
18.786289 22.254839 7.636656
19.965276 22.864513 8.417610
7.300464 -0.898738 13.752845
6.982020 0.605160 13.844949
7.300464 29.101262 13.752845
6.982020 30.605160 13.844949
6.689925 16.018969 23.626775
7.035000 14.647475 24.236305
19.148141 4.114627 18.515565
18.513509 2.868160 17.871234
3.928939 14.572703 9.654293
4.000156 15.773196 8.692345
26.409785 5.232749 3.939453
26.985839 3.848496 4.291030
12.467399 5.386536 24.503648
12.788257 6.544321 23.540225
2.306919 -1.423145 8.655721
3.612684 -0.607372 8.622681
2.306919 28.576855 8.655721
3.612684 29.392628 8.622681
32.306919 -1.423145 8.655721
33.612684 -0.607372 8.622681
32.306919 28.576855 8.655721
33.612684 29.392628 8.622681
1.577402 10.503838 26.680947
2.222505 11.862964 26.351983
31.577402 10.503838 26.680947
32.222505 11.862964 26.351983
20.168496 20.310300 6.489068
21.011309 21.301644 5.665356
7.294110 13.582241 4.133981
8.601606 14.363326 3.906036
1.806185 5.982614 6.122674
2.932974 5.247518 5.373287
31.806185 5.982614 6.122674
32.932974 5.247518 5.373287
10.495585 26.742220 14.265043
10.867719 26.091977 12.919569
2.420548 14.423157 26.045017
3.117855 15.018373 24.807648
32.420548 14.423157 26.045017
33.117855 15.018373 24.807648
12.824064 23.659718 15.067618
13.128847 22.717663 16.247127
12.814898 18.365671 25.297218
13.120254 17.897029 26.732046
11.543684 25.153146 22.024621
12.415384 23.931796 21.678149
23.629041 1.365097 20.084722
24.445902 1.508820 21.382290
23.629041 31.365097 20.084722
24.445902 31.508820 21.382290
LINES 164 492
2 0 1
2 2 3
2 4 5
2 6 7
2 8 9
2 10 11
2 12 13
2 14 15
2 16 17
2 18 19
2 20 21
2 22 23
2 24 25
2 26 27
2 28 29
2 30 31
2 32 33
2 34 35
2 36 37
2 38 39
2 40 41
2 42 43
2 44 45
2 46 47
2 48 49
2 50 51
2 52 53
2 54 55
2 56 57
2 58 59
2 60 61
2 62 63
2 64 65
2 66 67
2 68 69
2 70 71
2 72 73
2 74 75
2 76 77
2 78 79
2 80 81
2 82 83
2 84 85
2 86 87
2 88 89
2 90 91
2 92 93
2 94 95
2 96 97
2 98 99
2 100 101
2 102 103
2 104 105
2 106 107
2 108 109
2 110 111
2 112 113
2 114 115
2 116 117
2 118 119
2 120 121
2 122 123
2 124 125
2 126 127
2 128 129
2 130 131
2 132 133
2 134 135
2 136 137
2 138 139
2 140 141
2 142 143
2 144 145
2 146 147
2 148 149
2 150 151
2 152 153
2 154 155
2 156 157
2 158 159
2 160 161
2 162 163
2 164 165
2 166 167
2 168 169
2 170 171
2 172 173
2 174 175
2 176 177
2 178 179
2 180 181
2 182 183
2 184 185
2 186 187
2 188 189
2 190 191
2 192 193
2 194 195
2 196 197
2 198 199
2 200 201
2 202 203
2 204 205
2 206 207
2 208 209
2 210 211
2 212 213
2 214 215
2 216 217
2 218 219
2 220 221
2 222 223
2 224 225
2 226 227
2 228 229
2 230 231
2 232 233
2 234 235
2 236 237
2 238 239
2 240 241
2 242 243
2 244 245
2 246 247
2 248 249
2 250 251
2 252 253
2 254 255
2 256 257
2 258 259
2 260 261
2 262 263
2 264 265
2 266 267
2 268 269
2 270 271
2 272 273
2 274 275
2 276 277
2 278 279
2 280 281
2 282 283
2 284 285
2 286 287
2 288 289
2 290 291
2 292 293
2 294 295
2 296 297
2 298 299
2 300 301
2 302 303
2 304 305
2 306 307
2 308 309
2 310 311
2 312 313
2 314 315
2 316 317
2 318 319
2 320 321
2 322 323
2 324 325
2 326 327
POINT_DATA 328
SCALARS my_scalars float
LOOKUP_TABLE default
-1
-1
-1
-1
-1
-1
-1
-1
-1
-1
-1
-1
-1
-1
-1
-1
-1
-1
-1
-1
-1
-1
-1
-1
-1
-1
-1
-1
-1
-1
-1
-1
-1
-1
-1
-1
-1
-1
-1
-1
-1
-1
-1
-1
-1
-1
-1
-1
-1
-1
-1
-1
-1
-1
-1
-1
-1
-1
-1
-1
-1
-1
-1
-1
-1
-1
-1
-1
-1
-1
-1
-1
-1
-1
-1
-1
-1
-1
-1
-1
-1
-1
-1
-1
-1
-1
-1
-1
-1
-1
-1
-1
-1
-1
-1
-1
-1
-1
-1
-1
-1
-1
-1
-1
-1
-1
-1
-1
-1
-1
-1
-1
-1
-1
-1
-1
-1
-1
-1
-1
-1
-1
-1
-1
-1
-1
-1
-1
-1
-1
-1
-1
-1
-1
-1
-1
-1
-1
-1
-1
-1
-1
-1
-1
-1
-1
-1
-1
-1
-1
-1
-1
-1
-1
-1
-1
-1
-1
-1
-1
-1
-1
-1
-1
-1
-1
-1
-1
-1
-1
-1
-1
-1
-1
-1
-1
-1
-1
-1
-1
-1
-1
-1
-1
-1
-1
-1
-1
-1
-1
-1
-1
-1
-1
-1
-1
-1
-1
-1
-1
-1
-1
-1
-1
-1
-1
-1
-1
-1
-1
-1
-1
-1
-1
-1
-1
-1
-1
-1
-1
-1
-1
-1
-1
-1
-1
-1
-1
-1
-1
-1
-1
-1
-1
-1
-1
-1
-1
-1
-1
-1
-1
-1
-1
-1
-1
-1
-1
-1
-1
-1
-1
-1
-1
-1
-1
-1
-1
-1
-1
-1
-1
-1
-1
-1
-1
-1
-1
-1
-1
-1
-1
-1
-1
-1
-1
-1
-1
-1
-1
-1
-1
-1
-1
-1
-1
-1
-1
-1
-1
-1
-1
-1
-1
-1
-1
-1
-1
-1
-1
-1
-1
-1
-1
-1
-1
-1
-1
-1
-1
-1
-1
-1
-1
-1
-1
-1
-1
-1
-1
-1
-1
-1
-1
-1
-1
-1
-1
VECTORS vectors float
-0.03125 0 0
-0.03125 0 0
-0.03125 0 0
-0.03125 0 0
-0.03125 0 0
-0.03125 0 0
-0.03125 0 0
-0.03125 0 0
-0.03125 0 0
-0.03125 0 0
-0.03125 0 0
-0.03125 0 0
-0.03125 0 0
-0.03125 0 0
-0.03125 0 0
-0.03125 0 0
-0.03125 0 0
-0.03125 0 0
-0.03125 0 0
-0.03125 0 0
-0.03125 0 0
-0.03125 0 0
-0.03125 0 0
-0.03125 0 0
-0.03125 0 0
-0.03125 0 0
-0.03125 0 0
-0.03125 0 0
-0.03125 0 0
-0.03125 0 0
-0.03125 0 0
-0.03125 0 0
-0.03125 0 0
-0.03125 0 0
-0.03125 0 0
-0.03125 0 0
-0.03125 0 0
-0.03125 0 0
-0.03125 0 0
-0.03125 0 0
-0.03125 0 0
-0.03125 0 0
-0.03125 0 0
-0.03125 0 0
-0.03125 0 0
-0.03125 0 0
-0.03125 0 0
-0.03125 0 0
-0.03125 0 0
-0.03125 0 0
-0.03125 0 0
-0.03125 0 0
-0.03125 0 0
-0.03125 0 0
-0.03125 0 0
-0.03125 0 0
-0.03125 0 0
-0.03125 0 0
-0.03125 0 0
-0.03125 0 0
-0.03125 0 0
-0.03125 0 0
-0.03125 0 0
-0.03125 0 0
-0.03125 0 0
-0.03125 0 0
-0.03125 0 0
-0.03125 0 0
-0.03125 0 0
-0.03125 0 0
-0.03125 0 0
-0.03125 0 0
-0.03125 0 0
-0.03125 0 0
-0.03125 0 0
-0.03125 0 0
-0.03125 0 0
-0.03125 0 0
-0.03125 0 0
-0.03125 0 0
-0.03125 0 0
-0.03125 0 0
-0.03125 0 0
-0.03125 0 0
-0.03125 0 0
-0.03125 0 0
-0.03125 0 0
-0.03125 0 0
-0.03125 0 0
-0.03125 0 0
-0.03125 0 0
-0.03125 0 0
-0.03125 0 0
-0.03125 0 0
-0.03125 0 0
-0.03125 0 0
-0.03125 0 0
-0.03125 0 0
-0.03125 0 0
-0.03125 0 0
-0.03125 0 0
-0.03125 0 0
-0.03125 0 0
-0.03125 0 0
-0.03125 0 0
-0.03125 0 0
-0.03125 0 0
-0.03125 0 0
-0.03125 0 0
-0.03125 0 0
-0.03125 0 0
-0.03125 0 0
-0.03125 0 0
-0.03125 0 0
-0.03125 0 0
-0.03125 0 0
-0.03125 0 0
-0.03125 0 0
-0.03125 0 0
-0.03125 0 0
-0.03125 0 0
-0.03125 0 0
-0.03125 0 0
-0.03125 0 0
-0.03125 0 0
-0.03125 0 0
-0.03125 0 0
-0.03125 0 0
-0.03125 0 0
-0.03125 0 0
-0.03125 0 0
-0.03125 0 0
-0.03125 0 0
-0.03125 0 0
-0.03125 0 0
-0.03125 0 0
-0.03125 0 0
-0.03125 0 0
-0.03125 0 0
-0.03125 0 0
-0.03125 0 0
-0.03125 0 0
-0.03125 0 0
-0.03125 0 0
-0.03125 0 0
-0.03125 0 0
-0.03125 0 0
-0.03125 0 0
-0.03125 0 0
-0.03125 0 0
-0.03125 0 0
-0.03125 0 0
-0.03125 0 0
-0.03125 0 0
-0.03125 0 0
-0.03125 0 0
-0.03125 0 0
-0.03125 0 0
-0.03125 0 0
-0.03125 0 0
-0.03125 0 0
-0.03125 0 0
-0.03125 0 0
-0.03125 0 0
-0.03125 0 0
-0.03125 0 0
-0.03125 0 0
-0.03125 0 0
-0.03125 0 0
-0.03125 0 0
-0.03125 0 0
-0.03125 0 0
-0.03125 0 0
-0.03125 0 0
-0.03125 0 0
-0.03125 0 0
-0.03125 0 0
-0.03125 0 0
-0.03125 0 0
-0.03125 0 0
-0.03125 0 0
-0.03125 0 0
-0.03125 0 0
-0.03125 0 0
-0.03125 0 0
-0.03125 0 0
-0.03125 0 0
-0.03125 0 0
-0.03125 0 0
-0.03125 0 0
-0.03125 0 0
-0.03125 0 0
-0.03125 0 0
-0.03125 0 0
-0.03125 0 0
-0.03125 0 0
-0.03125 0 0
-0.03125 0 0
-0.03125 0 0
-0.03125 0 0
-0.03125 0 0
-0.03125 0 0
-0.03125 0 0
-0.03125 0 0
-0.03125 0 0
-0.03125 0 0
-0.03125 0 0
-0.03125 0 0
-0.03125 0 0
-0.03125 0 0
-0.03125 0 0
-0.03125 0 0
-0.03125 0 0
-0.03125 0 0
-0.03125 0 0
-0.03125 0 0
-0.03125 0 0
-0.03125 0 0
-0.03125 0 0
-0.03125 0 0
-0.03125 0 0
-0.03125 0 0
-0.03125 0 0
-0.03125 0 0
-0.03125 0 0
-0.03125 0 0
-0.03125 0 0
-0.03125 0 0
-0.03125 0 0
-0.03125 0 0
-0.03125 0 0
-0.03125 0 0
-0.03125 0 0
-0.03125 0 0
-0.03125 0 0
-0.03125 0 0
-0.03125 0 0
-0.03125 0 0
-0.03125 0 0
-0.03125 0 0
-0.03125 0 0
-0.03125 0 0
-0.03125 0 0
-0.03125 0 0
-0.03125 0 0
-0.03125 0 0
-0.03125 0 0
-0.03125 0 0
-0.03125 0 0
-0.03125 0 0
-0.03125 0 0
-0.03125 0 0
-0.03125 0 0
-0.03125 0 0
-0.03125 0 0
-0.03125 0 0
-0.03125 0 0
-0.03125 0 0
-0.03125 0 0
-0.03125 0 0
-0.03125 0 0
-0.03125 0 0
-0.03125 0 0
-0.03125 0 0
-0.03125 0 0
-0.03125 0 0
-0.03125 0 0
-0.03125 0 0
-0.03125 0 0
-0.03125 0 0
-0.03125 0 0
-0.03125 0 0
-0.03125 0 0
-0.03125 0 0
-0.03125 0 0
-0.03125 0 0
-0.03125 0 0
-0.03125 0 0
-0.03125 0 0
-0.03125 0 0
-0.03125 0 0
-0.03125 0 0
-0.03125 0 0
-0.03125 0 0
-0.03125 0 0
-0.03125 0 0
-0.03125 0 0
-0.03125 0 0
-0.03125 0 0
-0.03125 0 0
-0.03125 0 0
-0.03125 0 0
-0.03125 0 0
-0.03125 0 0
-0.03125 0 0
-0.03125 0 0
-0.03125 0 0
-0.03125 0 0
-0.03125 0 0
-0.03125 0 0
-0.03125 0 0
-0.03125 0 0
-0.03125 0 0
-0.03125 0 0
-0.03125 0 0
-0.03125 0 0
-0.03125 0 0
-0.03125 0 0
-0.03125 0 0
-0.03125 0 0
-0.03125 0 0
-0.03125 0 0
-0.03125 0 0
-0.03125 0 0
-0.03125 0 0
-0.03125 0 0
-0.03125 0 0
-0.03125 0 0
-0.03125 0 0
-0.03125 0 0
-0.03125 0 0
-0.03125 0 0
-0.03125 0 0
-0.03125 0 0
-0.03125 0 0
-0.03125 0 0
-0.03125 0 0
-0.03125 0 0
