# vtk DataFile Version 1.0
Cube
ASCII

DATASET POLYDATA
POINTS 1784 float
15.866791 20.695166 23.799084
14.601221 20.816346 22.930033
11.020100 25.771912 6.599010
11.430115 25.755762 5.114683
3.363258 20.457947 7.970231
3.611932 20.847679 6.501262
8.091583 26.312737 -1.581255
8.133626 25.058175 -0.689119
8.091583 26.312737 28.418745
8.133626 25.058175 29.310881
17.389320 25.745547 7.339092
16.574325 26.263166 8.538864
0.416616 -2.224461 11.431488
0.687277 -0.743811 11.757090
0.416616 27.775539 11.431488
0.687277 29.256189 11.757090
30.416616 -2.224461 11.431488
30.687277 -0.743811 11.757090
30.416616 27.775539 11.431488
30.687277 29.256189 11.757090
14.986788 6.036916 10.235529
15.611787 5.313817 11.443049
12.595458 16.534311 6.903808
12.560247 15.982418 8.341089
-0.782694 18.172553 19.031966
0.754048 18.073021 19.042798
29.217306 18.172553 19.031966
30.754048 18.073021 19.042798
2.012118 9.557297 2.162084
1.690616 9.070492 3.587306
2.012118 9.557297 32.162084
1.690616 9.070492 33.587306
32.012118 9.557297 2.162084
31.690616 9.070492 3.587306
32.012118 9.557297 32.162084
31.690616 9.070492 33.587306
10.433199 6.220999 7.187936
11.399237 7.181976 7.905497
3.699646 19.289476 2.524178
4.340309 18.176139 1.674687
3.699646 19.289476 32.524178
4.340309 18.176139 31.674687
25.366768 -0.914223 19.059342
26.310935 -2.002209 19.603800
25.366768 29.085777 19.059342
26.310935 27.997791 19.603800
11.781867 -0.590380 1.559270
11.741783 0.775253 2.269931
11.781867 -0.590380 31.559270
11.741783 0.775253 32.269931
11.781867 29.409620 1.559270
11.741783 30.775253 2.269931
11.781867 29.409620 31.559270
11.741783 30.775253 32.269931
20.933282 9.705269 18.512457
22.143967 9.190869 19.313228
19.031472 20.787247 5.828225
19.619645 22.025389 6.530120
-0.530795 21.452156 1.292370
-0.132635 20.028719 0.860054
-0.530795 21.452156 31.292370
-0.132635 20.028719 30.860054
29.469205 21.452156 1.292370
29.867365 20.028719 0.860054
29.469205 21.452156 31.292370
29.867365 20.028719 30.860054
0.560933 22.559069 19.096096
1.563002 23.579970 19.666375
30.560933 22.559069 19.096096
31.563002 23.579970 19.666375
21.674709 13.977039 -2.735757
22.906326 14.028793 -1.812697
21.674709 13.977039 27.264243
22.906326 14.028793 28.187303
10.376039 14.615703 -2.068984
11.343907 14.008406 -1.036500
10.376039 14.615703 27.931016
11.343907 14.008406 28.963500
6.256428 -2.437919 4.842039
7.651613 -2.831812 4.322514
6.256428 27.562081 4.842039
7.651613 27.168188 4.322514
5.875130 16.110271 -2.535081
5.639379 17.629888 -2.452705
5.875130 16.110271 27.464919
5.639379 17.629888 27.547295
23.736759 9.174227 4.053027
24.678826 9.307447 2.842092
1.265355 5.119423 8.612082
2.663157 4.550181 8.305957
31.265355 5.119423 8.612082
32.663157 4.550181 8.305957
11.585498 12.742341 23.731940
12.538086 12.313294 22.600527
17.208012 10.372808 18.797990
15.747320 10.631810 18.384594
-1.602622 23.829123 5.020480
-3.033474 23.409669 5.405606
28.397378 23.829123 5.020480
26.966526 23.409669 5.405606
20.246634 6.165676 16.504823
18.758749 5.886946 16.787859
24.726625 4.499561 21.375482
25.519321 4.516076 20.055270
8.746296 9.472804 -0.345427
10.062483 9.656446 -1.123582
8.746296 9.472804 29.654573
10.062483 9.656446 28.876418
26.074221 23.604993 -0.268774
25.859848 22.163263 0.228277
26.074221 23.604993 29.731226
25.859848 22.163263 30.228277
9.521295 20.388763 26.416263
10.401279 19.371499 27.166198
4.847981 24.701191 26.226838
5.001559 23.374957 25.459298
-0.278336 24.224904 14.852641
-1.100764 22.930859 14.708913
29.721664 24.224904 14.852641
28.899236 22.930859 14.708913
19.956067 21.413065 12.905976
19.834141 22.156470 11.562815
18.251016 14.195220 17.387592
18.659245 15.102261 18.563273
25.873856 12.054656 5.430748
25.772382 11.797061 6.945657
7.513912 20.613195 5.872295
8.842490 21.386332 5.965777
-2.609276 18.385692 12.147913
-1.782971 17.243829 11.527456
27.390724 18.385692 12.147913
28.217029 17.243829 11.527456
19.094522 0.587731 22.932053
20.022093 0.877397 24.126752
19.094522 30.587731 22.932053
20.022093 30.877397 24.126752
22.019790 24.821887 22.095497
22.244744 26.323576 21.838739
16.909783 11.243889 6.820962
17.778492 11.404223 5.559520
0.107229 23.297890 24.136800
0.588884 24.723232 23.808153
30.107229 23.297890 24.136800
30.588884 24.723232 23.808153
15.104778 4.116821 0.530033
15.720032 4.848656 -0.677229
15.104778 4.116821 30.530033
15.720032 4.848656 29.322771
3.899378 10.567344 13.532361
3.919615 12.052919 13.937649
0.925067 16.533462 15.244964
1.605129 15.871514 14.032140
30.925067 16.533462 15.244964
31.605129 15.871514 14.032140
25.011585 1.102953 -1.737026
25.206428 -0.420101 -1.855109
25.011585 1.102953 28.262974
25.206428 -0.420101 28.144891
25.011585 31.102953 -1.737026
25.206428 29.579899 -1.855109
25.011585 31.102953 28.262974
25.206428 29.579899 28.144891
-0.784994 5.850214 16.080398
0.210563 6.972755 16.427339
29.215006 5.850214 16.080398
30.210563 6.972755 16.427339
7.581860 -3.589480 12.154196
7.774244 -2.165126 11.601200
7.581860 26.410520 12.154196
7.774244 27.834874 11.601200
24.368683 5.089879 11.132181
25.821917 5.480164 10.804477
4.992744 15.449129 5.484818
3.733335 14.573948 5.345008
23.973902 8.475696 23.130610
24.797543 8.044799 24.358431
17.921948 1.854395 16.753355
16.823023 2.802210 16.237981
17.921948 31.854395 16.753355
16.823023 32.802210 16.237981
19.066114 23.380050 2.593708
19.404335 24.875988 2.732908
19.066114 23.380050 32.593708
19.404335 24.875988 32.732908
-2.272733 21.023033 21.301300
-2.621084 19.966192 22.365884
27.727267 21.023033 21.301300
27.378916 19.966192 22.365884
6.474343 20.187155 14.654899
5.141623 20.217950 13.883854
19.801496 21.517759 -1.113822
20.204966 22.992995 -1.294072
19.801496 21.517759 28.886178
20.204966 22.992995 28.705928
-3.239146 19.759903 6.555358
-2.010043 20.075300 7.427959
26.760854 19.759903 6.555358
27.989957 20.075300 7.427959
25.031405 6.376625 14.406438
26.117762 7.448351 14.199481
23.575518 27.044992 10.015695
22.918629 26.230976 8.885441
13.027158 11.646248 8.826295
13.881561 10.566167 9.515513
0.182487 26.219893 1.198243
-1.103433 25.373111 1.229363
0.182487 26.219893 31.198243
-1.103433 25.373111 31.229363
30.182487 26.219893 1.198243
28.896567 25.373111 1.229363
30.182487 26.219893 31.198243
28.896567 25.373111 31.229363
5.649474 7.126134 4.407309
7.016736 6.421206 4.334718
16.370199 2.911675 4.269088
15.227351 3.933619 4.414450
1.546345 12.845437 17.299119
2.834294 12.029523 17.516081
31.546345 12.845437 17.299119
32.834294 12.029523 17.516081
4.396624 16.447647 9.053988
4.478914 16.249448 10.578962
3.585292 1.369962 13.501875
3.923369 -0.131570 13.553907
3.585292 31.369962 13.501875
3.923369 29.868430 13.553907
12.582436 26.103266 9.723987
12.810016 27.410630 10.505399
26.750399 17.477686 -0.947049
26.014347 18.598062 -1.705063
26.750399 17.477686 29.052951
26.014347 18.598062 28.294937
20.978311 7.285952 -1.169734
20.823357 7.350369 0.361096
20.978311 7.285952 28.830266
20.823357 7.350369 30.361096
16.244708 25.883790 15.656511
17.258691 25.563201 14.542661
10.453269 5.821449 -0.647093
10.497610 4.294009 -0.455882
10.453269 5.821449 29.352907
10.497610 4.294009 29.544118
3.714854 6.415733 -1.204233
3.232246 7.694486 -1.913798
3.714854 6.415733 28.795767
3.232246 7.694486 28.086202
2.798310 12.457795 9.364514
1.681319 13.513960 9.456425
32.798310 12.457795 9.364514
31.681319 13.513960 9.456425
-0.138454 16.562394 24.124499
0.085583 17.074143 25.559602
29.861546 16.562394 24.124499
30.085583 17.074143 25.559602
14.277716 3.662740 23.969206
13.246014 4.027782 25.052688
1.542923 8.870742 19.510461
2.831830 9.153216 20.304518
31.542923 8.870742 19.510461
32.831830 9.153216 20.304518
22.815809 15.576728 7.041012
24.000399 14.861467 6.365181
7.263707 25.802796 21.359662
7.211774 24.915305 22.617145
0.730573 9.847492 23.882087
1.441200 10.084371 25.227635
30.730573 9.847492 23.882087
31.441200 10.084371 25.227635
7.366542 12.960293 7.852436
8.522956 12.964633 8.869436
23.106074 20.117464 6.607020
22.346386 19.391550 5.481177
13.796990 12.562970 3.119980
13.924104 12.221862 1.623622
13.796990 12.562970 33.119980
13.924104 12.221862 31.623622
26.105663 0.786310 11.055876
27.361466 1.669415 11.177050
26.105663 30.786310 11.055876
27.361466 31.669415 11.177050
-1.076030 -1.142392 7.152041
-1.058606 0.136758 8.009404
-1.076030 28.857608 7.152041
-1.058606 30.136758 8.009404
28.923970 -1.142392 7.152041
28.941394 0.136758 8.009404
28.923970 28.857608 7.152041
28.941394 30.136758 8.009404
17.160826 17.175975 24.323307
18.197229 16.267276 25.010138
22.233973 26.905510 -2.769437
23.105987 26.550097 -1.550883
22.233973 26.905510 27.230563
23.105987 26.550097 28.449117
7.995929 4.386824 19.608641
6.798739 3.514248 19.187990
-2.657467 0.893245 16.679714
-1.580121 1.780533 16.028834
-2.657467 30.893245 16.679714
-1.580121 31.780533 16.028834
27.342533 0.893245 16.679714
28.419879 1.780533 16.028834
27.342533 30.893245 16.679714
28.419879 31.780533 16.028834
2.713851 26.484144 16.710500
3.517911 25.357867 16.034788
21.862547 17.730912 13.503919
23.076723 17.140276 14.244545
24.427067 19.683180 18.644928
24.027643 19.127132 17.265483
25.268563 23.404550 16.616408
23.819892 23.882729 16.826872
16.484069 20.601726 1.784129
17.430862 19.407232 1.564201
16.484069 20.601726 31.784129
17.430862 19.407232 31.564201
13.688900 7.922708 20.786494
14.206803 8.306004 22.185229
7.705189 15.263975 19.485913
8.790758 15.777534 18.521861
18.407147 15.496553 10.376289
19.550297 15.148249 9.404954
-0.366010 12.146332 12.696065
-0.980277 12.646205 14.016823
29.633990 12.146332 12.696065
29.019723 12.646205 14.016823
23.484208 17.046403 2.658043
24.351521 16.737665 1.423520
23.484208 17.046403 32.658043
24.351521 16.737665 31.423520
4.720513 8.305987 8.214488
3.323853 8.198445 7.574664
27.337293 7.976631 18.931034
26.203208 7.945256 17.889657
7.554960 3.316574 11.208990
8.168751 4.288460 10.184149
20.679798 4.566059 24.534573
21.154674 3.970631 25.873064
1.381949 3.288512 2.585847
1.391663 1.761531 2.386260
1.381949 3.288512 32.585847
1.391663 1.761531 32.386260
1.381949 33.288512 2.585847
1.391663 31.761531 2.386260
1.381949 33.288512 32.585847
1.391663 31.761531 32.386260
31.381949 3.288512 2.585847
31.391663 1.761531 2.386260
31.381949 3.288512 32.585847
31.391663 1.761531 32.386260
31.381949 33.288512 2.585847
31.391663 31.761531 2.386260
31.381949 33.288512 32.585847
31.391663 31.761531 32.386260
18.282396 -0.772841 7.387350
18.967956 0.605407 7.342195
18.282396 29.227159 7.387350
18.967956 30.605407 7.342195
18.939714 12.292706 22.659618
17.438697 11.958489 22.742358
8.271318 11.317712 16.404909
7.205233 10.232591 16.164960
11.511941 5.911856 11.274308
10.706614 7.220921 11.371242
23.655453 3.238019 2.950323
23.830411 4.448969 2.015129
23.655453 3.238019 32.950323
23.830411 4.448969 32.015129
22.117485 3.123248 17.122496
23.517027 2.513526 16.919710
22.117485 33.123248 17.122496
23.517027 32.513526 16.919710
26.034068 13.336184 15.790207
26.034897 12.252497 16.884384
5.071194 20.963411 21.815229
4.896646 19.773860 20.852888
22.704151 12.118196 17.099839
22.095413 11.734576 15.738269
1.403656 12.723119 21.904826
2.242049 13.906476 21.386786
31.403656 12.723119 21.904826
32.242049 13.906476 21.386786
-0.252219 15.366448 6.256978
-0.058016 16.586547 5.337606
29.747781 15.366448 6.256978
29.941984 16.586547 5.337606
5.643835 21.518357 -0.180739
4.389931 21.201754 -1.016854
5.643835 21.518357 29.819261
4.389931 21.201754 28.983146
19.452601 16.114958 -0.995921
18.002461 16.369776 -1.447322
19.452601 16.114958 29.004079
18.002461 16.369776 28.552678
10.619460 16.673559 14.716810
11.048911 16.304122 13.284788
7.379067 4.789333 25.783566
7.933211 5.948117 24.934011
13.724500 20.441942 15.865769
12.761639 21.604584 16.170339
17.757911 18.828578 9.082801
19.072478 19.120242 9.830094
24.831643 7.557773 -1.634132
25.889083 7.146169 -0.592978
24.831643 7.557773 28.365868
25.889083 7.146169 29.407022
7.705262 23.136105 9.835928
7.079252 21.739070 10.003277
15.754923 8.551447 2.260718
15.174958 8.652018 0.837648
15.754923 8.551447 32.260718
15.174958 8.652018 30.837648
17.624329 -2.737093 4.443887
16.354166 -2.206728 3.753237
17.624329 27.262907 4.443887
16.354166 27.793272 3.753237
14.299563 0.892103 12.503406
15.549629 -0.003563 12.421445
14.299563 30.892103 12.503406
15.549629 29.996437 12.421445
10.524527 3.834105 4.519886
10.886149 5.142967 3.793450
3.488707 7.107881 24.061786
3.203297 5.633872 23.719092
7.456801 14.679450 1.052807
8.805239 15.237776 1.544321
7.456801 14.679450 31.052807
8.805239 15.237776 31.544321
0.700125 3.218888 20.156712
1.022086 4.360842 21.138486
30.700125 3.218888 20.156712
31.022086 4.360842 21.138486
15.671078 23.961615 4.583663
14.701598 23.889267 3.389312
20.125426 22.437330 23.150811
18.826719 23.176351 23.523381
7.330006 0.171262 1.320761
6.384214 1.368962 1.114383
7.330006 0.171262 31.320761
6.384214 1.368962 31.114383
7.330006 30.171262 1.320761
6.384214 31.368962 1.114383
7.330006 30.171262 31.320761
6.384214 31.368962 31.114383
10.212701 7.252102 20.846407
8.805214 7.453062 21.438179
16.144970 13.206629 26.412849
15.310275 11.971741 26.025636
11.806332 9.439274 3.894500
10.324217 9.125876 3.617527
0.785233 3.319348 11.888671
1.766450 4.376787 12.427778
30.785233 3.319348 11.888671
31.766450 4.376787 12.427778
17.209296 3.955787 20.971823
18.477103 4.827797 20.909657
17.422175 8.639586 27.174794
16.270428 8.174183 26.264586
23.086032 15.849381 19.764461
22.936898 16.340658 21.216359
10.556529 -1.437386 -2.865378
9.718904 -0.365187 -2.144008
10.556529 -1.437386 27.134622
9.718904 -0.365187 27.855992
10.556529 28.562614 -2.865378
9.718904 29.634813 -2.144008
10.556529 28.562614 27.134622
9.718904 29.634813 27.855992
17.349560 7.815624 14.022400
17.995735 9.211728 13.952024
12.552894 17.197514 22.472820
12.803938 17.055827 23.985600
2.804602 19.373867 15.742851
3.255849 19.445660 17.213505
19.299241 -0.805684 1.477480
20.508764 -1.467084 2.163924
19.299241 -0.805684 31.477480
20.508764 -1.467084 32.163924
19.299241 29.194316 1.477480
20.508764 28.532916 2.163924
19.299241 29.194316 31.477480
20.508764 28.532916 32.163924
25.990273 15.210006 25.112855
27.257359 14.337171 25.178065
10.765160 -1.040681 8.794744
10.260267 0.145144 9.637657
10.765160 28.959319 8.794744
10.260267 30.145144 9.637657
24.480337 15.104800 10.335589
25.314961 13.831249 10.105218
19.855289 8.498904 21.753661
18.329568 8.290791 21.775235
11.806246 0.987709 21.086649
11.604818 2.126206 22.103925
11.806246 30.987709 21.086649
11.604818 32.126206 22.103925
3.348967 -0.362322 4.487576
2.705967 0.123193 5.799989
3.348967 29.637678 4.487576
2.705967 30.123193 5.799989
33.348967 -0.362322 4.487576
32.705967 0.123193 5.799989
33.348967 29.637678 4.487576
32.705967 30.123193 5.799989
8.275488 -0.829360 16.827445
6.793069 -0.518151 16.549627
8.275488 29.170640 16.827445
6.793069 29.481849 16.549627
-2.622671 3.124749 1.609488
-2.693645 2.063634 2.723309
-2.622671 3.124749 31.609488
-2.693645 2.063634 32.723309
-2.622671 33.124749 1.609488
-2.693645 32.063634 2.723309
-2.622671 33.124749 31.609488
-2.693645 32.063634 32.723309
27.377329 3.124749 1.609488
27.306355 2.063634 2.723309
27.377329 3.124749 31.609488
27.306355 2.063634 32.723309
27.377329 33.124749 1.609488
27.306355 32.063634 2.723309
27.377329 33.124749 31.609488
27.306355 32.063634 32.723309
25.682724 -3.416391 23.834849
26.703702 -2.370192 24.319279
25.682724 26.583609 23.834849
26.703702 27.629808 24.319279
-1.440375 6.299840 23.517027
-1.742489 6.370787 22.008619
28.559625 6.299840 23.517027
28.257511 6.370787 22.008619
20.465990 -2.973824 17.360412
21.488275 -1.839811 17.561779
20.465990 27.026176 17.360412
21.488275 28.160189 17.561779
26.227319 6.261375 4.223834
27.166135 6.824345 5.307019
16.476290 18.824966 20.205596
16.412932 17.337705 20.600108
0.956395 12.935644 -2.292800
2.419326 12.886495 -2.771359
0.956395 12.935644 27.707200
2.419326 12.886495 27.228641
30.956395 12.935644 -2.292800
32.419326 12.886495 -2.771359
30.956395 12.935644 27.707200
32.419326 12.886495 27.228641
18.818196 -1.256613 11.741771
19.575899 -0.151212 12.500437
18.818196 28.743387 11.741771
19.575899 29.848788 12.500437
24.900265 21.326234 10.017794
24.458924 21.889063 11.381627
14.261347 11.366642 14.742376
14.174646 12.831066 14.273819
8.241409 17.714153 8.552469
8.217006 17.272860 10.027687
2.043085 22.550009 26.912931
1.799415 21.207556 26.198758
32.043085 22.550009 26.912931
31.799415 21.207556 26.198758
18.853854 11.885935 0.307454
18.300206 11.230923 1.586528
18.853854 11.885935 30.307454
18.300206 11.230923 31.586528
26.332054 -1.699704 2.654711
26.831677 -1.420870 1.224946
26.332054 -1.699704 32.654711
26.831677 -1.420870 31.224946
26.332054 28.300296 2.654711
26.831677 28.579130 1.224946
26.332054 28.300296 32.654711
26.831677 28.579130 31.224946
26.500427 10.210141 21.704453
25.914095 11.612908 21.459385
5.672685 11.779436 -0.082354
4.621018 10.851553 -0.718459
5.672685 11.779436 29.917646
4.621018 10.851553 29.281541
7.844644 9.725261 11.030640
7.044979 8.993137 12.124318
13.297739 3.686579 7.195963
12.564398 3.014466 8.371580
16.017516 16.821787 16.274354
14.793460 17.384802 17.020210
8.370438 6.975068 15.588000
7.584440 5.812975 16.223097
1.032783 7.227106 6.230190
-0.166686 8.097686 6.648477
31.032783 7.227106 6.230190
29.833314 8.097686 6.648477
24.336968 -2.550881 14.775238
23.699887 -1.653079 13.698354
24.336968 27.449119 14.775238
23.699887 28.346921 13.698354
27.352799 26.954464 12.932267
26.482707 25.937189 12.170892
8.472420 10.552454 20.163076
9.853215 11.204838 19.964581
1.952426 22.438471 12.279987
1.038064 22.054745 11.101727
31.952426 22.438471 12.279987
31.038064 22.054745 11.101727
23.270917 9.020247 12.711700
21.738729 9.174972 12.703958
12.984815 -2.840825 18.209522
13.637152 -1.557873 17.661718
12.984815 27.159175 18.209522
13.637152 28.442127 17.661718
1.651623 -0.341015 17.896969
2.686985 0.142542 18.929344
1.651623 29.658985 17.896969
2.686985 30.142542 18.929344
31.651623 -0.341015 17.896969
32.686985 0.142542 18.929344
31.651623 29.658985 17.896969
32.686985 30.142542 18.929344
-0.573272 7.067443 -0.460700
-0.389625 8.448585 -1.116687
-0.573272 7.067443 29.539300
-0.389625 8.448585 28.883313
29.426728 7.067443 -0.460700
29.610375 8.448585 -1.116687
29.426728 7.067443 29.539300
29.610375 8.448585 28.883313
17.518307 21.493095 16.107260
18.359523 20.203291 16.088237
2.778593 25.396703 6.602790
1.772718 24.256974 6.849433
32.778593 25.396703 6.602790
31.772718 24.256974 6.849433
23.823131 23.184098 24.909542
25.353787 23.135470 25.071799
11.602416 22.696736 6.567327
12.614815 22.281500 7.650944
22.411270 24.716806 13.295528
21.428144 25.832836 13.694951
25.068211 1.062295 5.470532
23.786415 0.210162 5.520223
25.068211 31.062295 5.470532
23.786415 30.210162 5.520223
14.730163 15.964345 -2.797060
15.309644 17.351104 -3.132774
14.730163 15.964345 27.202940
15.309644 17.351104 26.867226
1.383097 12.774676 1.461440
-0.127738 12.940800 1.213689
1.383097 12.774676 31.461440
-0.127738 12.940800 31.213689
31.383097 12.774676 1.461440
29.872262 12.940800 1.213689
31.383097 12.774676 31.461440
29.872262 12.940800 31.213689
10.708597 19.693777 11.122296
11.797228 20.692019 10.686410
10.765785 26.564593 23.391904
11.223597 25.780531 22.148017
10.030321 20.677078 19.081769
10.068326 19.798698 20.346127
3.612299 14.989857 24.038499
3.744660 16.460590 24.475562
11.116242 21.309902 0.977856
12.391322 20.913977 0.210382
11.116242 21.309902 30.977856
12.391322 20.913977 30.210382
25.453913 12.022442 -0.040992
26.565916 12.892144 0.574368
25.453913 12.022442 29.959008
26.565916 12.892144 30.574368
12.142907 3.032845 13.918186
11.026326 4.073578 14.122451
15.274768 -2.617699 27.436590
14.305473 -2.791490 26.252586
15.274768 27.382301 27.436590
14.305473 27.208510 26.252586
13.096521 10.333002 -1.688230
12.651046 11.499111 -2.590085
13.096521 10.333002 28.311770
12.651046 11.499111 27.409915
23.636939 12.235169 24.525497
22.463848 12.455585 23.552422
17.998623 5.172178 8.832003
18.319959 4.114263 7.760015
15.590537 1.514866 26.144975
16.830489 1.659786 27.046704
15.590537 31.514866 26.144975
16.830489 31.659786 27.046704
-2.814541 3.716853 6.746165
-1.639722 2.873637 6.216648
27.185459 3.716853 6.746165
28.360278 2.873637 6.216648
-0.244900 25.117092 26.743527
-1.726988 24.771647 26.507551
29.755100 25.117092 26.743527
28.273012 24.771647 26.507551
7.604334 0.759081 8.907069
6.366425 0.646037 9.816136
7.604334 30.759081 8.907069
6.366425 30.646037 9.816136
17.342162 26.642290 21.939269
17.928725 27.285100 23.209836
22.502549 13.081109 3.573981
21.264523 12.559835 4.327083
3.777080 25.885817 -0.052513
2.908507 25.635891 -1.299396
3.777080 25.885817 29.947487
2.908507 25.635891 28.700604
23.206839 20.931669 14.351574
24.420392 20.137244 13.834103
19.197729 10.953995 11.294259
17.747647 11.429900 11.088407
20.814644 19.266239 26.600607
21.799960 18.112447 26.336947
24.257962 25.036255 5.157323
23.438973 25.766083 4.076487
15.138200 18.335394 13.042009
15.144638 18.104162 11.519482
8.794604 0.771071 5.987843
7.461099 0.878040 5.225004
8.794604 30.771071 5.987843
7.461099 30.878040 5.225004
14.364101 1.254079 -0.776901
12.968748 1.388859 -1.414415
14.364101 1.254079 29.223099
12.968748 1.388859 28.585585
14.364101 31.254079 -0.776901
12.968748 31.388859 -1.414415
14.364101 31.254079 29.223099
12.968748 31.388859 28.585585
14.092494 3.812061 18.528236
12.871892 2.936683 18.188466
-1.166390 14.193100 17.867918
-2.421780 15.019914 18.202543
28.833610 14.193100 17.867918
27.578220 15.019914 18.202543
4.196054 26.119924 22.493235
4.526935 27.050341 23.674946
8.816208 25.225044 15.622380
7.838935 25.228856 16.812558
-1.724083 13.807159 22.053782
-2.738137 14.917690 22.385466
28.275917 13.807159 22.053782
27.261863 14.917690 22.385466
18.102711 21.799498 19.768370
18.783287 23.169849 19.943163
-0.256633 16.993909 2.286017
-1.766465 16.701363 2.366162
-0.256633 16.993909 32.286017
-1.766465 16.701363 32.366162
29.743367 16.993909 2.286017
28.233535 16.701363 2.366162
29.743367 16.993909 32.286017
28.233535 16.701363 32.366162
9.125647 11.899689 5.397535
9.333299 13.181756 4.570018
2.073715 -0.045389 -1.116210
0.971888 -0.631703 -0.214094
2.073715 -0.045389 28.883790
0.971888 -0.631703 29.785906
2.073715 29.954611 -1.116210
0.971888 29.368297 -0.214094
2.073715 29.954611 28.883790
0.971888 29.368297 29.785906
32.073715 -0.045389 -1.116210
30.971888 -0.631703 -0.214094
32.073715 -0.045389 28.883790
30.971888 -0.631703 29.785906
32.073715 29.954611 -1.116210
30.971888 29.368297 -0.214094
32.073715 29.954611 28.883790
30.971888 29.368297 29.785906
21.070723 3.601410 2.085431
19.552480 3.353210 2.015173
21.070723 3.601410 32.085431
19.552480 3.353210 32.015173
7.714550 15.234968 13.518470
7.004763 14.069942 12.803967
22.013132 0.378662 13.909944
21.801299 1.551140 14.885661
22.013132 30.378662 13.909944
21.801299 31.551140 14.885661
12.424981 23.222150 21.945226
12.359797 23.355410 23.478065
6.173194 24.680882 2.301099
5.283498 24.456951 3.537989
6.173194 24.680882 32.301099
5.283498 24.456951 33.537989
24.570192 9.978642 15.723824
23.846193 8.684132 16.138154
20.323333 4.179907 10.894495
20.647774 5.203180 11.998691
-3.065499 3.192007 24.795199
-2.563016 4.053097 25.968925
26.934501 3.192007 24.795199
27.436984 4.053097 25.968925
23.786260 9.656800 9.665137
25.320833 9.783144 9.692028
20.620541 25.420703 19.905633
21.086686 24.666206 18.646649
13.636861 24.338719 -1.854109
12.439914 24.762679 -0.982804
13.636861 24.338719 28.145891
12.439914 24.762679 29.017196
3.950354 4.865784 18.403689
3.433232 5.373640 17.044915
15.625626 14.285887 20.646979
15.569367 14.357056 19.109654
19.662697 2.969408 13.521633
19.386132 3.858924 14.747958
-3.281267 18.571865 25.249661
-2.131030 19.590961 25.149673
26.718733 18.571865 25.249661
27.868970 19.590961 25.149673
8.115548 22.668909 -2.262073
7.496534 23.346918 -3.498489
8.115548 22.668909 27.737927
7.496534 23.346918 26.501511
19.304631 -1.282383 25.779754
19.717345 -1.035246 27.242693
19.304631 28.717617 25.779754
19.717345 28.964754 27.242693
22.636072 21.539802 2.760487
22.560720 20.332165 1.807841
22.636072 21.539802 32.760487
22.560720 20.332165 31.807841
20.967364 20.534402 18.744473
21.064008 19.180304 19.471575
11.909595 16.245523 17.804579
11.519585 14.969730 18.573893
14.458017 24.876653 11.991066
13.941808 23.431309 12.117983
8.428183 13.139172 27.234325
7.023187 13.088289 26.605837
4.060567 2.903846 20.633076
4.530957 3.986560 21.622048
11.665834 19.188989 8.017177
11.794791 19.154736 6.482968
11.543704 13.367247 5.786546
11.981024 14.619015 5.003329
20.070498 18.180715 1.150812
19.952260 16.926623 2.036742
20.070498 18.180715 31.150812
19.952260 16.926623 32.036742
21.299938 4.196182 19.961804
21.394700 3.091357 21.030440
23.648345 5.045790 5.422854
22.818413 5.273880 6.699877
13.987649 0.992311 6.545106
15.000523 0.271884 7.454322
13.987649 30.992311 6.545106
15.000523 30.271884 7.454322
6.104552 2.237494 25.126806
6.863745 1.715751 23.892703
6.104552 32.237494 25.126806
6.863745 31.715751 23.892703
18.136321 -0.761024 19.073930
17.339447 -1.993092 18.606382
18.136321 29.238976 19.073930
17.339447 28.006908 18.606382
12.351506 9.462212 15.417813
12.416095 8.994382 16.883611
-0.855858 1.003757 21.397378
0.304439 0.085498 21.824124
-0.855858 31.003757 21.397378
0.304439 30.085498 21.824124
29.144142 1.003757 21.397378
30.304439 0.085498 21.824124
29.144142 31.003757 21.397378
30.304439 30.085498 21.824124
17.042452 13.456827 13.936103
18.443380 14.028413 13.649240
9.593312 1.695376 16.945662
9.013844 1.990116 15.549615
9.593312 31.695376 16.945662
9.013844 31.990116 15.549615
14.881291 24.618214 20.463852
15.693462 23.827168 21.506072
8.346489 18.822042 -0.564152
9.058966 17.604271 0.053108
8.346489 18.822042 29.435848
9.058966 17.604271 30.053108
17.273782 8.662955 9.039771
16.307096 8.173828 7.945297
18.963616 -2.445819 -0.582822
17.982972 -3.450500 0.050072
18.963616 -2.445819 29.417178
17.982972 -3.450500 30.050072
18.963616 27.554181 -0.582822
17.982972 26.549500 0.050072
18.963616 27.554181 29.417178
17.982972 26.549500 30.050072
8.666099 11.710995 24.082330
7.226569 11.599191 23.546742
26.430909 10.621171 12.833428
25.774209 11.860812 12.198104
4.739763 -2.223937 2.223215
3.246039 -1.877353 2.080846
4.739763 -2.223937 32.223215
3.246039 -1.877353 32.080846
4.739763 27.776063 2.223215
3.246039 28.122647 2.080846
4.739763 27.776063 32.223215
3.246039 28.122647 32.080846
-2.350984 10.023237 2.264059
-2.019408 10.167717 3.760983
-2.350984 10.023237 32.264059
-2.019408 10.167717 33.760983
27.649016 10.023237 2.264059
27.980592 10.167717 3.760983
27.649016 10.023237 32.264059
27.980592 10.167717 33.760983
-2.692158 21.898181 13.139767
-2.303784 22.071351 11.659639
27.307842 21.898181 13.139767
27.696216 22.071351 11.659639
8.569254 -0.532714 19.856623
8.063225 0.226660 21.097141
8.569254 29.467286 19.856623
8.063225 30.226660 21.097141
-2.322979 20.343187 16.534001
-2.792497 19.401738 15.409356
27.677021 20.343187 16.534001
27.207503 19.401738 15.409356
0.219055 -2.399738 24.708631
1.140674 -1.218790 25.065816
0.219055 27.600262 24.708631
1.140674 28.781210 25.065816
30.219055 -2.399738 24.708631
31.140674 -1.218790 25.065816
30.219055 27.600262 24.708631
31.140674 28.781210 25.065816
26.628127 2.507652 21.918852
26.269363 1.080361 21.465277
26.628127 32.507652 21.918852
26.269363 31.080361 21.465277
-2.653176 15.195513 -1.940694
-1.465900 14.217824 -2.018803
-2.653176 15.195513 28.059306
-1.465900 14.217824 27.981197
27.346824 15.195513 -1.940694
28.534100 14.217824 -2.018803
27.346824 15.195513 28.059306
28.534100 14.217824 27.981197
25.471564 25.878899 18.931987
24.495515 25.255621 19.947098
1.498483 17.201940 11.515561
1.604763 17.792876 10.097429
31.498483 17.201940 11.515561
31.604763 17.792876 10.097429
3.935247 -0.207466 22.265238
3.264253 0.976204 22.986551
3.935247 29.792534 22.265238
3.264253 30.976204 22.986551
-3.253097 10.375294 27.612150
-2.664527 10.313381 26.190408
26.746903 10.375294 27.612150
27.335473 10.313381 26.190408
15.842547 2.642792 8.945700
16.753396 2.269237 10.129934
15.842547 32.642792 8.945700
16.753396 32.269237 10.129934
15.030370 4.407420 14.949980
15.441088 5.480404 15.975464
23.242460 -0.113920 10.841555
22.978873 1.368585 11.164511
23.242460 29.886080 10.841555
22.978873 31.368585 11.164511
13.903096 -2.486047 0.803963
15.379700 -2.219341 0.457398
13.903096 -2.486047 30.803963
15.379700 -2.219341 30.457398
13.903096 27.513953 0.803963
15.379700 27.780659 0.457398
13.903096 27.513953 30.803963
15.379700 27.780659 30.457398
7.915530 17.306883 24.941296
7.448999 16.763080 23.578128
13.256904 6.183374 2.244951
13.775142 6.609321 3.631169
13.256904 6.183374 32.244951
13.775142 6.609321 33.631169
16.761733 18.103478 4.995655
15.928208 17.144825 4.125126
-2.024153 -1.394212 -2.508332
-2.016466 -2.732226 -1.745929
-2.024153 -1.394212 27.491668
-2.016466 -2.732226 28.254071
-2.024153 28.605788 -2.508332
-2.016466 27.267774 -1.745929
-2.024153 28.605788 27.491668
-2.016466 27.267774 28.254071
27.975847 -1.394212 -2.508332
27.983534 -2.732226 -1.745929
27.975847 -1.394212 27.491668
27.983534 -2.732226 28.254071
27.975847 28.605788 -2.508332
27.983534 27.267774 -1.745929
27.975847 28.605788 27.491668
27.983534 27.267774 28.254071
26.385517 23.245848 8.285279
27.438883 23.983566 9.132505
13.958786 6.434837 18.693044
14.916282 7.533277 18.194817
16.815282 15.054560 0.869174
16.898096 14.605028 2.339773
16.815282 15.054560 30.869174
16.898096 14.605028 32.339773
15.484585 14.594586 8.844406
16.501423 14.778694 7.702589
20.813509 7.615847 3.966980
19.291575 7.838593 3.891472
10.989035 10.377382 13.431080
11.700722 11.132884 12.293398
0.721003 12.126216 3.886233
0.768125 12.449276 5.391229
30.721003 12.126216 3.886233
30.768125 12.449276 5.391229
20.025607 4.495728 -0.784389
19.847949 3.257739 -1.682956
20.025607 4.495728 29.215611
19.847949 3.257739 28.317044
4.857977 3.010741 -2.758632
3.368927 2.794525 -2.430638
4.857977 3.010741 27.241368
3.368927 2.794525 27.569362
4.857977 33.010741 -2.758632
3.368927 32.794525 -2.430638
4.857977 33.010741 27.241368
3.368927 32.794525 27.569362
12.252499 19.430697 3.197055
11.508046 18.087688 3.079940
16.646807 -1.536936 14.855983
15.421184 -1.092540 15.675715
16.646807 28.463064 14.855983
15.421184 28.907460 15.675715
22.570433 8.970772 6.858966
21.224972 9.716802 6.789865
4.594691 16.197584 13.707110
5.697507 16.610351 14.699592
11.126458 -0.094409 4.709510
10.678932 -1.421270 4.068604
11.126458 29.905591 4.709510
10.678932 28.578730 4.068604
21.992481 11.376452 -2.158626
21.726369 10.064209 -2.919417
21.992481 11.376452 27.841374
21.726369 10.064209 27.080583
10.817222 24.360419 26.576361
9.992359 24.149423 25.293130
11.198731 6.648605 15.542520
11.594717 6.015991 16.889589
9.496715 2.689878 2.114608
8.028962 3.013205 2.450406
9.496715 2.689878 32.114608
8.028962 3.013205 32.450406
9.496715 32.689878 2.114608
8.028962 33.013205 2.450406
9.496715 32.689878 32.114608
8.028962 33.013205 32.450406
14.656445 23.289727 9.594936
15.766128 22.706319 8.700599
11.520242 9.060021 23.854587
11.013289 9.510348 25.237267
1.897723 10.206347 9.997504
0.978008 8.984098 9.819084
31.897723 10.206347 9.997504
30.978008 8.984098 9.819084
19.612182 12.469462 9.260799
20.700963 12.856882 8.242927
23.837910 10.021222 -0.233205
23.095315 8.878710 0.484304
23.837910 10.021222 29.766795
23.095315 8.878710 30.484304
1.780051 5.556543 27.005939
0.856403 6.332914 26.049006
31.780051 5.556543 27.005939
30.856403 6.332914 26.049006
21.496180 18.174381 16.026696
20.989971 17.211857 17.117064
5.315111 7.878790 15.629942
3.856914 8.361316 15.741440
3.227044 24.389631 9.708394
4.003656 24.903515 10.934933
17.491387 4.355307 24.398802
16.903531 5.710858 23.964627
8.556852 23.319033 2.864489
9.892849 24.060752 2.673270
8.556852 23.319033 32.864489
9.892849 24.060752 32.673270
13.845474 7.813853 13.460361
14.526741 8.965820 12.698491
11.403595 26.529747 2.310144
12.389154 25.438245 1.853090
11.403595 26.529747 32.310144
12.389154 25.438245 31.853090
24.387855 17.483140 11.513256
24.417360 18.557952 10.410755
9.849719 19.980980 14.710958
9.466315 21.463708 14.549346
6.842997 3.799264 -0.779898
7.019567 5.059055 0.088059
6.842997 3.799264 29.220102
7.019567 5.059055 30.088059
5.028265 3.048255 4.932702
5.159605 3.732338 6.306157
0.740414 19.454662 3.997541
0.026834 20.715147 4.520591
30.740414 19.454662 3.997541
30.026834 20.715147 4.520591
5.545770 9.335643 23.380669
4.607713 10.025478 24.388526
16.871943 21.500165 26.298108
16.140963 22.065886 27.529866
4.951759 13.839066 18.021244
4.576594 15.169378 18.700302
10.439624 9.826970 6.938108
11.457653 10.982217 6.913129
-1.019819 7.981273 11.215097
-1.057001 7.032402 12.427475
28.980181 7.981273 11.215097
28.942999 7.032402 12.427475
21.198038 -1.130273 7.923202
22.597212 -0.492561 7.838141
21.198038 28.869727 7.923202
22.597212 29.507439 7.838141
1.031101 19.285619 13.715700
-0.491749 19.071244 13.634637
31.031101 19.285619 13.715700
29.508251 19.071244 13.634637
1.039369 1.959445 24.567838
0.168262 1.687510 25.808331
1.039369 31.959445 24.567838
0.168262 31.687510 25.808331
31.039369 1.959445 24.567838
30.168262 1.687510 25.808331
31.039369 31.959445 24.567838
30.168262 31.687510 25.808331
24.684212 1.248437 7.936574
24.847779 2.599239 8.657807
24.684212 31.248437 7.936574
24.847779 32.599239 8.657807
8.405493 25.496319 7.713922
6.952870 25.828897 7.325490
-2.660068 21.267323 2.745301
-3.322521 20.001006 3.319058
27.339932 21.267323 2.745301
26.677479 20.001006 3.319058
15.473735 1.580672 19.360460
15.655475 1.707277 20.884449
15.473735 31.580672 19.360460
15.655475 31.707277 20.884449
24.006777 0.647356 24.395716
23.479465 2.032768 23.978374
24.006777 30.647356 24.395716
23.479465 32.032768 23.978374
15.019298 -2.621617 21.170608
14.877478 -2.741604 22.699362
15.019298 27.378383 21.170608
14.877478 27.258396 22.699362
6.663681 18.716350 17.355173
6.855475 18.123331 18.763414
0.939734 23.488929 3.634710
2.209726 23.008724 2.907988
30.939734 23.488929 3.634710
32.209726 23.008724 2.907988
-0.649955 13.985177 10.707401
-0.170498 15.323130 10.114442
29.350045 13.985177 10.707401
29.829502 15.323130 10.114442
-2.252796 3.912055 18.159038
-3.412201 4.354998 17.247346
27.747204 3.912055 18.159038
26.587799 4.354998 17.247346
-2.419284 13.195092 8.007718
-2.009208 11.839730 8.613053
27.580716 13.195092 8.007718
27.990792 11.839730 8.613053
16.276934 0.433691 2.231717
16.074866 1.780726 1.513199
16.276934 0.433691 32.231717
16.074866 1.780726 31.513199
16.276934 30.433691 2.231717
16.074866 31.780726 1.513199
16.276934 30.433691 32.231717
16.074866 31.780726 31.513199
10.422576 26.405385 18.077696
9.439058 25.747316 19.063210
5.491849 12.430930 3.411207
5.231643 11.152353 4.229214
22.330766 12.930968 0.765766
21.106713 13.862078 0.845325
22.330766 12.930968 30.765766
21.106713 13.862078 30.845325
6.567992 -2.760035 26.431176
7.308824 -1.409935 26.431429
6.567992 27.239965 26.431176
7.308824 28.590065 26.431429
19.656857 26.173319 9.667349
19.143166 24.813198 10.175081
19.494192 11.727514 25.281974
18.182095 10.931456 25.409618
12.081230 6.750750 24.844620
11.548145 6.437639 26.255074
20.516262 7.291089 7.477969
20.479672 7.569158 8.992214
9.438214 17.161616 4.500836
9.475199 16.761255 5.987424
27.431108 -3.034173 7.517841
26.120928 -2.298521 7.180432
27.431108 26.965827 7.517841
26.120928 27.701479 7.180432
3.331660 6.194804 10.446015
4.486553 6.272450 11.461788
21.449152 21.106634 9.198463
22.161821 19.743782 9.278073
6.016052 23.232872 15.612450
5.440745 22.211565 16.611226
20.805076 18.899164 22.621700
19.440797 19.455470 23.069880
22.851665 6.946426 26.727669
23.273178 5.968393 25.615294
-3.260545 27.264039 16.168227
-1.996770 26.409146 16.377107
26.739455 27.264039 16.168227
28.003230 26.409146 16.377107
3.856851 -1.244293 16.072756
4.507268 -2.218463 15.072981
3.856851 28.755707 16.072756
4.507268 27.781537 15.072981
13.120906 21.857721 3.056609
11.927002 22.160227 3.981100
23.403778 -0.170491 0.663159
24.657985 0.435884 1.319568
23.403778 -0.170491 30.663159
24.657985 0.435884 31.319568
23.403778 29.829509 0.663159
24.657985 30.435884 1.319568
23.403778 29.829509 30.663159
24.657985 30.435884 31.319568
15.070364 21.833624 18.825133
13.616658 21.576386 19.263503
24.571351 2.391253 13.794776
25.360077 1.071411 13.881545
24.571351 32.391253 13.794776
25.360077 31.071411 13.881545
-0.811375 -1.045788 18.652393
-0.833861 -1.201429 17.120444
-0.811375 28.954212 18.652393
-0.833861 28.798571 17.120444
29.188625 -1.045788 18.652393
29.166139 -1.201429 17.120444
29.188625 28.954212 18.652393
29.166139 28.798571 17.120444
9.706690 0.130697 24.912635
9.536452 1.282919 23.905161
9.706690 30.130697 24.912635
9.536452 31.282919 23.905161
14.748784 6.730369 -2.471095
13.793432 7.767171 -1.851463
14.748784 6.730369 27.528905
13.793432 7.767171 28.148537
8.263806 5.836832 12.428809
7.260899 6.579899 11.526795
-1.250151 23.838100 20.509974
-1.993286 25.113491 20.948980
28.749849 23.838100 20.509974
28.006714 25.113491 20.948980
-0.524227 10.167734 18.288258
-0.107356 11.519635 18.896685
29.475773 10.167734 18.288258
29.892644 11.519635 18.896685
22.140552 17.012303 24.107987
22.094986 15.503167 24.411357
3.730092 16.061415 -0.598744
2.215407 16.065938 -0.876790
3.730092 16.061415 29.401256
2.215407 16.065938 29.123210
33.730092 16.061415 -0.598744
32.215407 16.065938 -0.876790
33.730092 16.061415 29.401256
32.215407 16.065938 29.123210
-1.075351 -0.077592 14.135497
-0.494579 -1.502732 14.192785
-1.075351 29.922408 14.135497
-0.494579 28.497268 14.192785
28.924649 -0.077592 14.135497
29.505421 -1.502732 14.192785
28.924649 29.922408 14.135497
29.505421 28.497268 14.192785
3.721395 -3.184424 12.676680
3.230715 -2.113660 11.684562
3.721395 26.815576 12.676680
3.230715 27.886340 11.684562
10.704188 14.114058 11.455021
9.507704 13.145918 11.507288
16.008037 -1.869646 10.423335
16.694943 -0.896648 9.447099
16.008037 28.130354 10.423335
16.694943 29.103352 9.447099
5.480411 7.113349 0.691027
5.574521 8.645767 0.811181
5.480411 7.113349 30.691027
5.574521 8.645767 30.811181
1.224149 17.380609 22.035319
2.491761 17.914249 21.342507
31.224149 17.380609 22.035319
32.491761 17.914249 21.342507
2.095358 6.194527 1.895657
2.325409 6.289092 3.415438
2.095358 6.194527 31.895657
2.325409 6.289092 33.415438
32.095358 6.194527 1.895657
32.325409 6.289092 3.415438
32.095358 6.194527 31.895657
32.325409 6.289092 33.415438
25.816569 17.155757 4.078784
26.420944 16.074334 4.993583
16.034438 23.091946 -0.053540
17.088454 24.194323 -0.266649
16.034438 23.091946 29.946460
17.088454 24.194323 29.733351
7.675555 7.992762 8.077965
7.806577 8.083703 6.546246
24.853834 3.250455 -0.009356
24.933293 4.385909 -1.046675
24.853834 3.250455 29.990644
24.933293 4.385909 28.953325
5.261158 -2.597679 9.900933
4.363499 -1.626424 9.111965
5.261158 27.402321 9.900933
4.363499 28.373576 9.111965
17.917037 25.831501 26.776952
19.222887 25.294661 26.162006
-1.321800 3.142804 9.530420
-1.993955 4.447804 9.064821
28.678200 3.142804 9.530420
28.006045 4.447804 9.064821
4.657065 11.787522 11.261617
5.133075 13.251047 11.317380
0.542217 26.889920 7.871653
0.113679 25.899115 8.969952
30.542217 26.889920 7.871653
30.113679 25.899115 8.969952
19.233959 11.111033 14.944065
18.818148 11.396873 16.399055
25.508897 5.780653 7.654806
26.809168 6.590152 7.814828
13.901222 15.114832 -0.098561
14.353576 13.992127 -1.050669
13.901222 15.114832 29.901439
14.353576 13.992127 28.949331
5.015277 7.877338 20.948672
5.903588 7.392329 19.787952
19.764528 1.642839 9.607577
20.882140 2.332562 8.803321
19.764528 31.642839 9.607577
20.882140 32.332562 8.803321
13.745621 14.050292 11.218675
14.561073 14.958781 12.157444
5.213025 -2.380631 18.461278
5.357408 -3.550505 19.452313
5.213025 27.619369 18.461278
5.357408 26.449495 19.452313
22.798326 23.292475 -1.245254
22.720416 23.789194 0.210355
22.798326 23.292475 28.754746
22.720416 23.789194 30.210355
4.142298 19.465943 24.659421
4.233619 19.364425 26.193355
9.821096 25.285531 11.413894
9.749636 23.802449 11.822502
12.464764 5.326856 21.491322
11.298076 4.489274 20.935539
19.962264 4.428210 4.923797
20.543102 3.014634 5.113613
6.003546 18.390746 4.890903
6.775280 18.762756 3.611202
-0.467056 20.443062 -2.411978
0.352081 19.139839 -2.459140
-0.467056 20.443062 27.588022
0.352081 19.139839 27.540860
29.532944 20.443062 -2.411978
30.352081 19.139839 -2.459140
29.532944 20.443062 27.588022
30.352081 19.139839 27.540860
-0.844860 0.580903 5.271094
-0.747100 -0.748656 4.500177
-0.844860 30.580903 5.271094
-0.747100 29.251344 4.500177
29.155140 0.580903 5.271094
29.252900 -0.748656 4.500177
29.155140 30.580903 5.271094
29.252900 29.251344 4.500177
22.295062 21.654552 21.279857
23.805271 21.440780 21.067324
21.846109 1.038420 -2.927127
21.771858 0.205671 -1.633830
21.846109 1.038420 27.072873
21.771858 0.205671 28.366170
21.846109 31.038420 -2.927127
21.771858 30.205671 -1.633830
21.846109 31.038420 27.072873
21.771858 30.205671 28.366170
23.626571 20.476135 25.811997
22.623566 20.069998 24.716262
14.679883 -0.619259 24.528311
13.173608 -0.622458 24.207803
14.679883 29.380741 24.528311
13.173608 29.377542 24.207803
17.819707 5.719338 2.124258
17.487161 6.021931 0.651352
17.819707 5.719338 32.124258
17.487161 6.021931 30.651352
19.721882 16.042087 21.864366
18.631898 15.023415 22.246257
1.506665 26.827447 19.307124
0.701385 26.056375 20.369467
31.506665 26.827447 19.307124
30.701385 26.056375 20.369467
1.387513 3.131031 -0.113550
0.572665 2.965003 -1.409720
1.387513 3.131031 29.886450
0.572665 2.965003 28.590280
31.387513 3.131031 -0.113550
30.572665 2.965003 -1.409720
31.387513 3.131031 29.886450
30.572665 2.965003 28.590280
10.439814 13.228662 1.189779
9.980144 11.944936 1.905565
10.439814 13.228662 31.189779
9.980144 11.944936 31.905565
10.534579 -2.007368 14.559997
12.047186 -1.833330 14.790930
10.534579 27.992632 14.559997
12.047186 28.166670 14.790930
2.213092 2.993979 15.926732
2.933999 2.290220 17.091471
2.213092 32.993979 15.926732
2.933999 32.290220 17.091471
32.213092 2.993979 15.926732
32.933999 2.290220 17.091471
32.213092 32.993979 15.926732
32.933999 32.290220 17.091471
20.632774 17.550985 8.354179
20.261146 17.675860 6.864917
26.055348 17.413890 17.161826
25.376912 16.148211 16.605606
8.738331 3.643030 22.787321
7.363884 4.025565 22.207526
2.449734 17.301874 3.973507
2.864679 17.579093 5.430412
32.449734 17.301874 3.973507
32.864679 17.579093 5.430412
8.479234 3.175322 -2.680690
9.742666 2.294820 -2.673122
8.479234 3.175322 27.319310
9.742666 2.294820 27.326878
8.479234 33.175322 -2.680690
9.742666 32.294820 -2.673122
8.479234 33.175322 27.319310
9.742666 32.294820 27.326878
8.563437 -0.319891 13.891185
9.860870 -0.083370 13.095995
8.563437 29.680109 13.891185
9.860870 29.916630 13.095995
13.509472 23.875143 18.122691
12.209465 23.923320 18.946864
22.347515 -0.357695 21.777369
23.776001 -0.596877 21.254093
22.347515 29.642305 21.777369
23.776001 29.403123 21.254093
13.634985 19.639533 -2.274788
13.257719 20.343242 -3.591627
13.634985 19.639533 27.725212
13.257719 20.343242 26.408373
21.533614 -2.264962 4.353863
20.247037 -2.942555 4.860999
21.533614 27.735038 4.353863
20.247037 27.057445 4.860999
15.736527 21.785458 12.747776
17.090365 21.339957 12.164464
0.881209 18.815892 6.821005
0.243851 18.145884 8.052452
30.881209 18.815892 6.821005
30.243851 18.145884 8.052452
9.137082 22.616212 20.392518
8.215783 22.201581 21.554796
9.686056 14.480778 21.016018
8.343204 14.057845 21.640097
6.070966 10.632388 20.991298
5.773677 12.131676 20.803272
14.695483 19.455411 5.108779
14.540670 20.713029 5.984009
4.283527 -1.314162 26.291961
3.881230 0.137800 25.973269
4.283527 28.685838 26.291961
3.881230 30.137800 25.973269
11.449625 13.474428 16.463204
11.683412 11.968444 16.684463
-2.218651 16.558451 7.636037
-3.482554 17.331907 8.055461
27.781349 16.558451 7.636037
26.517446 17.331907 8.055461
2.885372 10.477783 6.326485
4.144744 10.886468 7.112970
18.682607 7.726802 24.653383
20.182964 7.609456 24.326639
27.389111 15.576739 13.464345
26.110269 16.316307 13.899316
7.306673 6.631739 -2.317243
7.544365 8.027890 -2.922110
7.306673 6.631739 27.682757
7.544365 8.027890 27.077890
18.582677 14.723838 4.421873
18.686197 15.492496 5.752304
0.134968 10.113966 15.586603
0.280753 9.349811 14.257538
30.134968 10.113966 15.586603
30.280753 9.349811 14.257538
-1.619019 6.104443 27.070307
-1.956476 7.402459 26.313419
28.380981 6.104443 27.070307
28.043524 7.402459 26.313419
13.431094 -1.619699 5.065939
12.913982 -1.882277 6.492561
13.431094 28.380301 5.065939
12.913982 28.117723 6.492561
4.231371 19.104004 10.226532
5.231088 19.305391 11.380487
13.836385 9.678345 6.071196
14.549634 8.740580 5.079495
25.415478 25.242421 1.684649
26.100217 24.066098 2.405064
25.415478 25.242421 31.684649
26.100217 24.066098 32.405064
1.797528 1.975884 8.449281
2.443442 0.619625 8.788334
1.797528 31.975884 8.449281
2.443442 30.619625 8.788334
31.797528 1.975884 8.449281
32.443442 0.619625 8.788334
31.797528 31.975884 8.449281
32.443442 30.619625 8.788334
17.527200 18.891204 -3.117395
16.861042 19.135023 -1.750506
17.527200 18.891204 26.882605
16.861042 19.135023 28.249494
3.963940 3.903714 1.711716
4.228723 3.736154 0.203931
3.963940 3.903714 31.711716
4.228723 3.736154 30.203931
-2.228101 17.472438 21.298682
-3.099794 17.733124 20.056188
27.771899 17.472438 21.298682
26.900206 17.733124 20.056188
20.187656 24.029991 14.779536
19.321169 24.118995 16.049528
4.842032 0.402855 -1.111800
6.257759 -0.098843 -1.451824
4.842032 0.402855 28.888200
6.257759 -0.098843 28.548176
4.842032 30.402855 -1.111800
6.257759 29.901157 -1.451824
4.842032 30.402855 28.888200
6.257759 29.901157 28.548176
6.009203 21.565817 3.532975
4.541671 21.610453 3.068262
9.305169 -2.261631 -0.019018
8.832023 -2.532168 1.421309
9.305169 -2.261631 29.980982
8.832023 -2.532168 31.421309
9.305169 27.738369 -0.019018
8.832023 27.467832 1.421309
9.305169 27.738369 29.980982
8.832023 27.467832 31.421309
17.061206 16.769191 12.816786
18.041545 17.825069 13.360530
1.713969 7.699977 12.373362
2.938606 7.187598 13.153959
31.713969 7.699977 12.373362
32.938606 7.187598 13.153959
7.135410 23.147912 19.043326
5.779299 23.877345 19.021175
1.994812 4.343674 5.770362
0.869969 3.303746 5.928091
31.994812 4.343674 5.770362
30.869969 3.303746 5.928091
5.752041 3.524582 16.881945
5.691191 2.891110 15.479585
14.402239 1.273160 16.028758
12.883597 1.484443 16.172582
14.402239 31.273160 16.028758
12.883597 31.484443 16.172582
12.400705 19.697580 21.691570
11.792599 20.467691 22.878472
21.742092 11.884141 12.411573
22.385951 13.281501 12.478145
21.972734 19.653768 -1.278185
23.274589 20.457168 -1.101202
21.972734 19.653768 28.721815
23.274589 20.457168 28.898798
23.173634 23.400897 8.116573
21.921280 23.120061 7.265490
2.470757 21.481971 22.716708
1.183678 20.784170 22.239108
32.470757 21.481971 22.716708
31.183678 20.784170 22.239108
12.137673 17.162190 -3.120400
11.939760 16.750819 -1.649616
12.137673 17.162190 26.879600
11.939760 16.750819 28.350384
22.098272 12.157478 20.646757
21.242554 13.430571 20.783071
14.166732 13.593477 6.112292
15.316915 13.788081 5.106902
14.758684 17.790383 0.366147
13.321796 18.201406 0.737648
14.758684 17.790383 30.366147
13.321796 18.201406 30.737648
0.030645 26.453343 4.333437
1.034308 27.037437 5.344919
30.030645 26.453343 4.333437
31.034308 27.037437 5.344919
-2.707065 0.730719 -0.523647
-2.204524 2.050100 -1.138697
-2.707065 0.730719 29.476353
-2.204524 2.050100 28.861303
-2.707065 30.730719 -0.523647
-2.204524 32.050100 -1.138697
-2.707065 30.730719 29.476353
-2.204524 32.050100 28.861303
27.292935 0.730719 -0.523647
27.795476 2.050100 -1.138697
27.292935 0.730719 29.476353
27.795476 2.050100 28.861303
27.292935 30.730719 -0.523647
27.795476 32.050100 -1.138697
27.292935 30.730719 29.476353
27.795476 32.050100 28.861303
-0.061077 22.375084 8.928497
0.751110 21.412416 8.042370
29.938923 22.375084 8.928497
30.751110 21.412416 8.042370
8.295426 20.737444 23.538674
7.000822 20.020047 23.964046
13.370277 11.895574 18.437056
13.134752 11.022191 19.683383
11.944940 19.275564 18.084713
11.397446 18.643631 16.791457
25.175222 13.928654 2.917223
26.564725 13.378354 3.288779
1.520370 23.309527 -0.554616
-0.017243 23.339942 -0.474467
1.520370 23.309527 29.445384
-0.017243 23.339942 29.525533
31.520370 23.309527 -0.554616
29.982757 23.339942 -0.474467
31.520370 23.309527 29.445384
29.982757 23.339942 29.525533
-0.847240 6.377308 2.460746
-0.506705 5.942509 3.898308
29.152760 6.377308 2.460746
29.493295 5.942509 3.898308
9.391314 8.217684 18.006042
8.169530 7.398569 18.461996
4.842766 23.040247 6.671964
6.320767 23.470971 6.632115
8.292437 7.163249 2.206872
9.277697 6.143272 1.606447
8.292437 7.163249 32.206872
9.277697 6.143272 31.606447
-2.875726 3.027222 13.934790
-1.587475 3.674793 13.393806
27.124274 3.027222 13.934790
28.412525 3.674793 13.393806
26.190404 22.541712 19.225967
27.452412 22.709979 18.359583
24.644949 17.633585 23.411749
24.797153 18.703888 22.314987
17.855816 0.778665 4.718043
18.683328 -0.386335 4.143935
17.855816 30.778665 4.718043
18.683328 29.613665 4.143935
14.633856 5.718414 7.499719
15.820300 5.874620 6.530416
-1.815070 11.832609 23.547845
-0.782839 12.009989 24.676843
28.184930 11.832609 23.547845
29.217161 12.009989 24.676843
22.560318 3.930337 13.986337
22.782356 4.954765 15.114541
19.494837 0.061763 15.100046
20.181610 -1.315459 15.043452
19.494837 30.061763 15.100046
20.181610 28.684541 15.043452
24.587743 7.318271 19.919701
23.391236 6.422399 19.549049
4.709428 15.588600 2.759500
3.378308 14.819362 2.848909
4.709428 15.588600 32.759500
3.378308 14.819362 32.848909
8.728229 20.352500 2.109550
9.731358 20.232767 3.271873
8.728229 20.352500 32.109550
9.731358 20.232767 33.271873
17.133185 2.010090 13.254438
16.944684 3.496962 12.900491
17.133185 32.010090 13.254438
16.944684 33.496962 12.900491
13.352905 25.230927 15.541638
12.900321 25.347899 14.074298
24.800624 14.092467 19.301442
25.356840 14.095719 20.737483
22.289571 26.747667 1.554459
21.085317 26.401802 0.659055
22.289571 26.747667 31.554459
21.085317 26.401802 30.659055
18.974690 1.930706 19.785455
20.289568 1.553588 19.078010
18.974690 31.930706 19.785455
20.289568 31.553588 19.078010
20.956525 14.006724 16.610345
22.071624 14.688306 17.424961
14.733278 20.025280 8.563466
15.321184 18.602856 8.511753
6.519026 23.228702 12.559118
5.152416 22.581244 12.267960
9.056391 14.284461 15.458486
7.748792 14.606074 16.205714
9.325221 3.538096 8.092202
8.113465 3.015706 7.298253
1.962990 22.788617 16.415563
1.051554 21.547834 16.452212
31.962990 22.788617 16.415563
31.051554 21.547834 16.452212
8.385362 18.994055 12.868343
8.073744 18.007385 14.008946
-1.369303 24.457696 11.874742
0.099661 24.744325 12.237494
28.630697 24.457696 11.874742
30.099661 24.744325 12.237494
25.071109 25.658854 26.597269
25.463093 27.106727 26.945996
3.150802 1.979213 10.732009
4.202401 2.909994 10.100039
3.150802 31.979213 10.732009
4.202401 32.909994 10.100039
5.558236 15.741130 21.516578
5.568028 14.463266 22.375978
-2.333294 0.268512 24.690970
-1.328507 -0.387671 23.725865
-2.333294 30.268512 24.690970
-1.328507 29.612329 23.725865
27.666706 0.268512 24.690970
28.671493 -0.387671 23.725865
27.666706 30.268512 24.690970
28.671493 29.612329 23.725865
22.635910 16.433020 -0.449622
23.618519 17.324190 -1.231860
22.635910 16.433020 29.550378
23.618519 17.324190 28.768140
5.554688 0.315355 19.883435
5.535670 1.384817 18.775514
5.554688 30.315355 19.883435
5.535670 31.384817 18.775514
15.863917 23.967737 25.293328
14.538197 24.238114 24.557827
11.857857 2.478800 10.651022
10.444068 2.600728 11.249296
11.857857 32.478800 10.651022
10.444068 32.600728 11.249296
17.554008 5.902768 -2.966476
17.055045 4.449266 -2.866638
17.554008 5.902768 27.033524
17.055045 4.449266 27.133362
14.321411 9.983496 24.842328
15.537013 9.752279 23.925568
11.378775 0.109783 18.329412
11.089817 -1.197910 19.089703
11.378775 30.109783 18.329412
11.089817 28.802090 19.089703
10.892054 23.301227 16.084563
10.179419 22.722626 17.321079
LINES 892 2676
2 0 1
2 2 3
2 4 5
2 6 7
2 8 9
2 10 11
2 12 13
2 14 15
2 16 17
2 18 19
2 20 21
2 22 23
2 24 25
2 26 27
2 28 29
2 30 31
2 32 33
2 34 35
2 36 37
2 38 39
2 40 41
2 42 43
2 44 45
2 46 47
2 48 49
2 50 51
2 52 53
2 54 55
2 56 57
2 58 59
2 60 61
2 62 63
2 64 65
2 66 67
2 68 69
2 70 71
2 72 73
2 74 75
2 76 77
2 78 79
2 80 81
2 82 83
2 84 85
2 86 87
2 88 89
2 90 91
2 92 93
2 94 95
2 96 97
2 98 99
2 100 101
2 102 103
2 104 105
2 106 107
2 108 109
2 110 111
2 112 113
2 114 115
2 116 117
2 118 119
2 120 121
2 122 123
2 124 125
2 126 127
2 128 129
2 130 131
2 132 133
2 134 135
2 136 137
2 138 139
2 140 141
2 142 143
2 144 145
2 146 147
2 148 149
2 150 151
2 152 153
2 154 155
2 156 157
2 158 159
2 160 161
2 162 163
2 164 165
2 166 167
2 168 169
2 170 171
2 172 173
2 174 175
2 176 177
2 178 179
2 180 181
2 182 183
2 184 185
2 186 187
2 188 189
2 190 191
2 192 193
2 194 195
2 196 197
2 198 199
2 200 201
2 202 203
2 204 205
2 206 207
2 208 209
2 210 211
2 212 213
2 214 215
2 216 217
2 218 219
2 220 221
2 222 223
2 224 225
2 226 227
2 228 229
2 230 231
2 232 233
2 234 235
2 236 237
2 238 239
2 240 241
2 242 243
2 244 245
2 246 247
2 248 249
2 250 251
2 252 253
2 254 255
2 256 257
2 258 259
2 260 261
2 262 263
2 264 265
2 266 267
2 268 269
2 270 271
2 272 273
2 274 275
2 276 277
2 278 279
2 280 281
2 282 283
2 284 285
2 286 287
2 288 289
2 290 291
2 292 293
2 294 295
2 296 297
2 298 299
2 300 301
2 302 303
2 304 305
2 306 307
2 308 309
2 310 311
2 312 313
2 314 315
2 316 317
2 318 319
2 320 321
2 322 323
2 324 325
2 326 327
2 328 329
2 330 331
2 332 333
2 334 335
2 336 337
2 338 339
2 340 341
2 342 343
2 344 345
2 346 347
2 348 349
2 350 351
2 352 353
2 354 355
2 356 357
2 358 359
2 360 361
2 362 363
2 364 365
2 366 367
2 368 369
2 370 371
2 372 373
2 374 375
2 376 377
2 378 379
2 380 381
2 382 383
2 384 385
2 386 387
2 388 389
2 390 391
2 392 393
2 394 395
2 396 397
2 398 399
2 400 401
2 402 403
2 404 405
2 406 407
2 408 409
2 410 411
2 412 413
2 414 415
2 416 417
2 418 419
2 420 421
2 422 423
2 424 425
2 426 427
2 428 429
2 430 431
2 432 433
2 434 435
2 436 437
2 438 439
2 440 441
2 442 443
2 444 445
2 446 447
2 448 449
2 450 451
2 452 453
2 454 455
2 456 457
2 458 459
2 460 461
2 462 463
2 464 465
2 466 467
2 468 469
2 470 471
2 472 473
2 474 475
2 476 477
2 478 479
2 480 481
2 482 483
2 484 485
2 486 487
2 488 489
2 490 491
2 492 493
2 494 495
2 496 497
2 498 499
2 500 501
2 502 503
2 504 505
2 506 507
2 508 509
2 510 511
2 512 513
2 514 515
2 516 517
2 518 519
2 520 521
2 522 523
2 524 525
2 526 527
2 528 529
2 530 531
2 532 533
2 534 535
2 536 537
2 538 539
2 540 541
2 542 543
2 544 545
2 546 547
2 548 549
2 550 551
2 552 553
2 554 555
2 556 557
2 558 559
2 560 561
2 562 563
2 564 565
2 566 567
2 568 569
2 570 571
2 572 573
2 574 575
2 576 577
2 578 579
2 580 581
2 582 583
2 584 585
2 586 587
2 588 589
2 590 591
2 592 593
2 594 595
2 596 597
2 598 599
2 600 601
2 602 603
2 604 605
2 606 607
2 608 609
2 610 611
2 612 613
2 614 615
2 616 617
2 618 619
2 620 621
2 622 623
2 624 625
2 626 627
2 628 629
2 630 631
2 632 633
2 634 635
2 636 637
2 638 639
2 640 641
2 642 643
2 644 645
2 646 647
2 648 649
2 650 651
2 652 653
2 654 655
2 656 657
2 658 659
2 660 661
2 662 663
2 664 665
2 666 667
2 668 669
2 670 671
2 672 673
2 674 675
2 676 677
2 678 679
2 680 681
2 682 683
2 684 685
2 686 687
2 688 689
2 690 691
2 692 693
2 694 695
2 696 697
2 698 699
2 700 701
2 702 703
2 704 705
2 706 707
2 708 709
2 710 711
2 712 713
2 714 715
2 716 717
2 718 719
2 720 721
2 722 723
2 724 725
2 726 727
2 728 729
2 730 731
2 732 733
2 734 735
2 736 737
2 738 739
2 740 741
2 742 743
2 744 745
2 746 747
2 748 749
2 750 751
2 752 753
2 754 755
2 756 757
2 758 759
2 760 761
2 762 763
2 764 765
2 766 767
2 768 769
2 770 771
2 772 773
2 774 775
2 776 777
2 778 779
2 780 781
2 782 783
2 784 785
2 786 787
2 788 789
2 790 791
2 792 793
2 794 795
2 796 797
2 798 799
2 800 801
2 802 803
2 804 805
2 806 807
2 808 809
2 810 811
2 812 813
2 814 815
2 816 817
2 818 819
2 820 821
2 822 823
2 824 825
2 826 827
2 828 829
2 830 831
2 832 833
2 834 835
2 836 837
2 838 839
2 840 841
2 842 843
2 844 845
2 846 847
2 848 849
2 850 851
2 852 853
2 854 855
2 856 857
2 858 859
2 860 861
2 862 863
2 864 865
2 866 867
2 868 869
2 870 871
2 872 873
2 874 875
2 876 877
2 878 879
2 880 881
2 882 883
2 884 885
2 886 887
2 888 889
2 890 891
2 892 893
2 894 895
2 896 897
2 898 899
2 900 901
2 902 903
2 904 905
2 906 907
2 908 909
2 910 911
2 912 913
2 914 915
2 916 917
2 918 919
2 920 921
2 922 923
2 924 925
2 926 927
2 928 929
2 930 931
2 932 933
2 934 935
2 936 937
2 938 939
2 940 941
2 942 943
2 944 945
2 946 947
2 948 949
2 950 951
2 952 953
2 954 955
2 956 957
2 958 959
2 960 961
2 962 963
2 964 965
2 966 967
2 968 969
2 970 971
2 972 973
2 974 975
2 976 977
2 978 979
2 980 981
2 982 983
2 984 985
2 986 987
2 988 989
2 990 991
2 992 993
2 994 995
2 996 997
2 998 999
2 1000 1001
2 1002 1003
2 1004 1005
2 1006 1007
2 1008 1009
2 1010 1011
2 1012 1013
2 1014 1015
2 1016 1017
2 1018 1019
2 1020 1021
2 1022 1023
2 1024 1025
2 1026 1027
2 1028 1029
2 1030 1031
2 1032 1033
2 1034 1035
2 1036 1037
2 1038 1039
2 1040 1041
2 1042 1043
2 1044 1045
2 1046 1047
2 1048 1049
2 1050 1051
2 1052 1053
2 1054 1055
2 1056 1057
2 1058 1059
2 1060 1061
2 1062 1063
2 1064 1065
2 1066 1067
2 1068 1069
2 1070 1071
2 1072 1073
2 1074 1075
2 1076 1077
2 1078 1079
2 1080 1081
2 1082 1083
2 1084 1085
2 1086 1087
2 1088 1089
2 1090 1091
2 1092 1093
2 1094 1095
2 1096 1097
2 1098 1099
2 1100 1101
2 1102 1103
2 1104 1105
2 1106 1107
2 1108 1109
2 1110 1111
2 1112 1113
2 1114 1115
2 1116 1117
2 1118 1119
2 1120 1121
2 1122 1123
2 1124 1125
2 1126 1127
2 1128 1129
2 1130 1131
2 1132 1133
2 1134 1135
2 1136 1137
2 1138 1139
2 1140 1141
2 1142 1143
2 1144 1145
2 1146 1147
2 1148 1149
2 1150 1151
2 1152 1153
2 1154 1155
2 1156 1157
2 1158 1159
2 1160 1161
2 1162 1163
2 1164 1165
2 1166 1167
2 1168 1169
2 1170 1171
2 1172 1173
2 1174 1175
2 1176 1177
2 1178 1179
2 1180 1181
2 1182 1183
2 1184 1185
2 1186 1187
2 1188 1189
2 1190 1191
2 1192 1193
2 1194 1195
2 1196 1197
2 1198 1199
2 1200 1201
2 1202 1203
2 1204 1205
2 1206 1207
2 1208 1209
2 1210 1211
2 1212 1213
2 1214 1215
2 1216 1217
2 1218 1219
2 1220 1221
2 1222 1223
2 1224 1225
2 1226 1227
2 1228 1229
2 1230 1231
2 1232 1233
2 1234 1235
2 1236 1237
2 1238 1239
2 1240 1241
2 1242 1243
2 1244 1245
2 1246 1247
2 1248 1249
2 1250 1251
2 1252 1253
2 1254 1255
2 1256 1257
2 1258 1259
2 1260 1261
2 1262 1263
2 1264 1265
2 1266 1267
2 1268 1269
2 1270 1271
2 1272 1273
2 1274 1275
2 1276 1277
2 1278 1279
2 1280 1281
2 1282 1283
2 1284 1285
2 1286 1287
2 1288 1289
2 1290 1291
2 1292 1293
2 1294 1295
2 1296 1297
2 1298 1299
2 1300 1301
2 1302 1303
2 1304 1305
2 1306 1307
2 1308 1309
2 1310 1311
2 1312 1313
2 1314 1315
2 1316 1317
2 1318 1319
2 1320 1321
2 1322 1323
2 1324 1325
2 1326 1327
2 1328 1329
2 1330 1331
2 1332 1333
2 1334 1335
2 1336 1337
2 1338 1339
2 1340 1341
2 1342 1343
2 1344 1345
2 1346 1347
2 1348 1349
2 1350 1351
2 1352 1353
2 1354 1355
2 1356 1357
2 1358 1359
2 1360 1361
2 1362 1363
2 1364 1365
2 1366 1367
2 1368 1369
2 1370 1371
2 1372 1373
2 1374 1375
2 1376 1377
2 1378 1379
2 1380 1381
2 1382 1383
2 1384 1385
2 1386 1387
2 1388 1389
2 1390 1391
2 1392 1393
2 1394 1395
2 1396 1397
2 1398 1399
2 1400 1401
2 1402 1403
2 1404 1405
2 1406 1407
2 1408 1409
2 1410 1411
2 1412 1413
2 1414 1415
2 1416 1417
2 1418 1419
2 1420 1421
2 1422 1423
2 1424 1425
2 1426 1427
2 1428 1429
2 1430 1431
2 1432 1433
2 1434 1435
2 1436 1437
2 1438 1439
2 1440 1441
2 1442 1443
2 1444 1445
2 1446 1447
2 1448 1449
2 1450 1451
2 1452 1453
2 1454 1455
2 1456 1457
2 1458 1459
2 1460 1461
2 1462 1463
2 1464 1465
2 1466 1467
2 1468 1469
2 1470 1471
2 1472 1473
2 1474 1475
2 1476 1477
2 1478 1479
2 1480 1481
2 1482 1483
2 1484 1485
2 1486 1487
2 1488 1489
2 1490 1491
2 1492 1493
2 1494 1495
2 1496 1497
2 1498 1499
2 1500 1501
2 1502 1503
2 1504 1505
2 1506 1507
2 1508 1509
2 1510 1511
2 1512 1513
2 1514 1515
2 1516 1517
2 1518 1519
2 1520 1521
2 1522 1523
2 1524 1525
2 1526 1527
2 1528 1529
2 1530 1531
2 1532 1533
2 1534 1535
2 1536 1537
2 1538 1539
2 1540 1541
2 1542 1543
2 1544 1545
2 1546 1547
2 1548 1549
2 1550 1551
2 1552 1553
2 1554 1555
2 1556 1557
2 1558 1559
2 1560 1561
2 1562 1563
2 1564 1565
2 1566 1567
2 1568 1569
2 1570 1571
2 1572 1573
2 1574 1575
2 1576 1577
2 1578 1579
2 1580 1581
2 1582 1583
2 1584 1585
2 1586 1587
2 1588 1589
2 1590 1591
2 1592 1593
2 1594 1595
2 1596 1597
2 1598 1599
2 1600 1601
2 1602 1603
2 1604 1605
2 1606 1607
2 1608 1609
2 1610 1611
2 1612 1613
2 1614 1615
2 1616 1617
2 1618 1619
2 1620 1621
2 1622 1623
2 1624 1625
2 1626 1627
2 1628 1629
2 1630 1631
2 1632 1633
2 1634 1635
2 1636 1637
2 1638 1639
2 1640 1641
2 1642 1643
2 1644 1645
2 1646 1647
2 1648 1649
2 1650 1651
2 1652 1653
2 1654 1655
2 1656 1657
2 1658 1659
2 1660 1661
2 1662 1663
2 1664 1665
2 1666 1667
2 1668 1669
2 1670 1671
2 1672 1673
2 1674 1675
2 1676 1677
2 1678 1679
2 1680 1681
2 1682 1683
2 1684 1685
2 1686 1687
2 1688 1689
2 1690 1691
2 1692 1693
2 1694 1695
2 1696 1697
2 1698 1699
2 1700 1701
2 1702 1703
2 1704 1705
2 1706 1707
2 1708 1709
2 1710 1711
2 1712 1713
2 1714 1715
2 1716 1717
2 1718 1719
2 1720 1721
2 1722 1723
2 1724 1725
2 1726 1727
2 1728 1729
2 1730 1731
2 1732 1733
2 1734 1735
2 1736 1737
2 1738 1739
2 1740 1741
2 1742 1743
2 1744 1745
2 1746 1747
2 1748 1749
2 1750 1751
2 1752 1753
2 1754 1755
2 1756 1757
2 1758 1759
2 1760 1761
2 1762 1763
2 1764 1765
2 1766 1767
2 1768 1769
2 1770 1771
2 1772 1773
2 1774 1775
2 1776 1777
2 1778 1779
2 1780 1781
2 1782 1783
POINT_DATA 1784
SCALARS my_scalars float
LOOKUP_TABLE default
-1
-1
-1
-1
-1
-1
-1
-1
-1
-1
-1
-1
-1
-1
-1
-1
-1
-1
-1
-1
-1
-1
-1
-1
-1
-1
-1
-1
-1
-1
-1
-1
-1
-1
-1
-1
-1
-1
-1
-1
-1
-1
-1
-1
-1
-1
-1
-1
-1
-1
-1
-1
-1
-1
-1
-1
-1
-1
-1
-1
-1
-1
-1
-1
-1
-1
-1
-1
-1
-1
-1
-1
-1
-1
-1
-1
-1
-1
-1
-1
-1
-1
-1
-1
-1
-1
-1
-1
-1
-1
-1
-1
-1
-1
-1
-1
-1
-1
-1
-1
-1
-1
-1
-1
-1
-1
-1
-1
-1
-1
-1
-1
-1
-1
-1
-1
-1
-1
-1
-1
-1
-1
-1
-1
-1
-1
-1
-1
-1
-1
-1
-1
-1
-1
-1
-1
-1
-1
-1
-1
-1
-1
-1
-1
-1
-1
-1
-1
-1
-1
-1
-1
-1
-1
-1
-1
-1
-1
-1
-1
-1
-1
-1
-1
-1
-1
-1
-1
-1
-1
-1
-1
-1
-1
-1
-1
-1
-1
-1
-1
-1
-1
-1
-1
-1
-1
-1
-1
-1
-1
-1
-1
-1
-1
-1
-1
-1
-1
-1
-1
-1
-1
-1
-1
-1
-1
-1
-1
-1
-1
-1
-1
-1
-1
-1
-1
-1
-1
-1
-1
-1
-1
-1
-1
-1
-1
-1
-1
-1
-1
-1
-1
-1
-1
-1
-1
-1
-1
-1
-1
-1
-1
-1
-1
-1
-1
-1
-1
-1
-1
-1
-1
-1
-1
-1
-1
-1
-1
-1
-1
-1
-1
-1
-1
-1
-1
-1
-1
-1
-1
-1
-1
-1
-1
-1
-1
-1
-1
-1
-1
-1
-1
-1
-1
-1
-1
-1
-1
-1
-1
-1
-1
-1
-1
-1
-1
-1
-1
-1
-1
-1
-1
-1
-1
-1
-1
-1
-1
-1
-1
-1
-1
-1
-1
-1
-1
-1
-1
-1
-1
-1
-1
-1
-1
-1
-1
-1
-1
-1
-1
-1
-1
-1
-1
-1
-1
-1
-1
-1
-1
-1
-1
-1
-1
-1
-1
-1
-1
-1
-1
-1
-1
-1
-1
-1
-1
-1
-1
-1
-1
-1
-1
-1
-1
-1
-1
-1
-1
-1
-1
-1
-1
-1
-1
-1
-1
-1
-1
-1
-1
-1
-1
-1
-1
-1
-1
-1
-1
-1
-1
-1
-1
-1
-1
-1
-1
-1
-1
-1
-1
-1
-1
-1
-1
-1
-1
-1
-1
-1
-1
-1
-1
-1
-1
-1
-1
-1
-1
-1
-1
-1
-1
-1
-1
-1
-1
-1
-1
-1
-1
-1
-1
-1
-1
-1
-1
-1
-1
-1
-1
-1
-1
-1
-1
-1
-1
-1
-1
-1
-1
-1
-1
-1
-1
-1
-1
-1
-1
-1
-1
-1
-1
-1
-1
-1
-1
-1
-1
-1
-1
-1
-1
-1
-1
-1
-1
-1
-1
-1
-1
-1
-1
-1
-1
-1
-1
-1
-1
-1
-1
-1
-1
-1
-1
-1
-1
-1
-1
-1
-1
-1
-1
-1
-1
-1
-1
-1
-1
-1
-1
-1
-1
-1
-1
-1
-1
-1
-1
-1
-1
-1
-1
-1
-1
-1
-1
-1
-1
-1
-1
-1
-1
-1
-1
-1
-1
-1
-1
-1
-1
-1
-1
-1
-1
-1
-1
-1
-1
-1
-1
-1
-1
-1
-1
-1
-1
-1
-1
-1
-1
-1
-1
-1
-1
-1
-1
-1
-1
-1
-1
-1
-1
-1
-1
-1
-1
-1
-1
-1
-1
-1
-1
-1
-1
-1
-1
-1
-1
-1
-1
-1
-1
-1
-1
-1
-1
-1
-1
-1
-1
-1
-1
-1
-1
-1
-1
-1
-1
-1
-1
-1
-1
-1
-1
-1
-1
-1
-1
-1
-1
-1
-1
-1
-1
-1
-1
-1
-1
-1
-1
-1
-1
-1
-1
-1
-1
-1
-1
-1
-1
-1
-1
-1
-1
-1
-1
-1
-1
-1
-1
-1
-1
-1
-1
-1
-1
-1
-1
-1
-1
-1
-1
-1
-1
-1
-1
-1
-1
-1
-1
-1
-1
-1
-1
-1
-1
-1
-1
-1
-1
-1
-1
-1
-1
-1
-1
-1
-1
-1
-1
-1
-1
-1
-1
-1
-1
-1
-1
-1
-1
-1
-1
-1
-1
-1
-1
-1
-1
-1
-1
-1
-1
-1
-1
-1
-1
-1
-1
-1
-1
-1
-1
-1
-1
-1
-1
-1
-1
-1
-1
-1
-1
-1
-1
-1
-1
-1
-1
-1
-1
-1
-1
-1
-1
-1
-1
-1
-1
-1
-1
-1
-1
-1
-1
-1
-1
-1
-1
-1
-1
-1
-1
-1
-1
-1
-1
-1
-1
-1
-1
-1
-1
-1
-1
-1
-1
-1
-1
-1
-1
-1
-1
-1
-1
-1
-1
-1
-1
-1
-1
-1
-1
-1
-1
-1
-1
-1
-1
-1
-1
-1
-1
-1
-1
-1
-1
-1
-1
-1
-1
-1
-1
-1
-1
-1
-1
-1
-1
-1
-1
-1
-1
-1
-1
-1
-1
-1
-1
-1
-1
-1
-1
-1
-1
-1
-1
-1
-1
-1
-1
-1
-1
-1
-1
-1
-1
-1
-1
-1
-1
-1
-1
-1
-1
-1
-1
-1
-1
-1
-1
-1
-1
-1
-1
-1
-1
-1
-1
-1
-1
-1
-1
-1
-1
-1
-1
-1
-1
-1
-1
-1
-1
-1
-1
-1
-1
-1
-1
-1
-1
-1
-1
-1
-1
-1
-1
-1
-1
-1
-1
-1
-1
-1
-1
-1
-1
-1
-1
-1
-1
-1
-1
-1
-1
-1
-1
-1
-1
-1
-1
-1
-1
-1
-1
-1
-1
-1
-1
-1
-1
-1
-1
-1
-1
-1
-1
-1
-1
-1
-1
-1
-1
-1
-1
-1
-1
-1
-1
-1
-1
-1
-1
-1
-1
-1
-1
-1
-1
-1
-1
-1
-1
-1
-1
-1
-1
-1
-1
-1
-1
-1
-1
-1
-1
-1
-1
-1
-1
-1
-1
-1
-1
-1
-1
-1
-1
-1
-1
-1
-1
-1
-1
-1
-1
-1
-1
-1
-1
-1
-1
-1
-1
-1
-1
-1
-1
-1
-1
-1
-1
-1
-1
-1
-1
-1
-1
-1
-1
-1
-1
-1
-1
-1
-1
-1
-1
-1
-1
-1
-1
-1
-1
-1
-1
-1
-1
-1
-1
-1
-1
-1
-1
-1
-1
-1
-1
-1
-1
-1
-1
-1
-1
-1
-1
-1
-1
-1
-1
-1
-1
-1
-1
-1
-1
-1
-1
-1
-1
-1
-1
-1
-1
-1
-1
-1
-1
-1
-1
-1
-1
-1
-1
-1
-1
-1
-1
-1
-1
-1
-1
-1
-1
-1
-1
-1
-1
-1
-1
-1
-1
-1
-1
-1
-1
-1
-1
-1
-1
-1
-1
-1
-1
-1
-1
-1
-1
-1
-1
-1
-1
-1
-1
-1
-1
-1
-1
-1
-1
-1
-1
-1
-1
-1
-1
-1
-1
-1
-1
-1
-1
-1
-1
-1
-1
-1
-1
-1
-1
-1
-1
-1
-1
-1
-1
-1
-1
-1
-1
-1
-1
-1
-1
-1
-1
-1
-1
-1
-1
-1
-1
-1
-1
-1
-1
-1
-1
-1
-1
-1
-1
-1
-1
-1
-1
-1
-1
-1
-1
-1
-1
-1
-1
-1
-1
-1
-1
-1
-1
-1
-1
-1
-1
-1
-1
-1
-1
-1
-1
-1
-1
-1
-1
-1
-1
-1
-1
-1
-1
-1
-1
-1
-1
-1
-1
-1
-1
-1
-1
-1
-1
-1
-1
-1
-1
-1
-1
-1
-1
-1
-1
-1
-1
-1
-1
-1
-1
-1
-1
-1
-1
-1
-1
-1
-1
-1
-1
-1
-1
-1
-1
-1
-1
-1
-1
-1
-1
-1
-1
-1
-1
-1
-1
-1
-1
-1
-1
-1
-1
-1
-1
-1
-1
-1
-1
-1
-1
-1
-1
-1
-1
-1
-1
-1
-1
-1
-1
-1
-1
-1
-1
-1
-1
-1
-1
-1
-1
-1
-1
-1
-1
-1
-1
-1
-1
-1
-1
-1
-1
-1
-1
-1
-1
-1
-1
-1
-1
-1
-1
-1
-1
-1
-1
-1
-1
-1
-1
-1
-1
-1
-1
-1
-1
-1
-1
-1
-1
-1
-1
-1
-1
-1
-1
-1
-1
-1
-1
-1
-1
-1
-1
-1
-1
-1
-1
-1
-1
-1
-1
-1
-1
-1
-1
-1
-1
-1
-1
-1
-1
-1
-1
-1
-1
-1
-1
-1
-1
-1
-1
-1
-1
-1
-1
-1
-1
-1
-1
-1
-1
-1
-1
-1
-1
-1
-1
-1
-1
-1
-1
-1
-1
-1
-1
-1
-1
-1
-1
-1
-1
-1
-1
-1
-1
-1
-1
-1
-1
-1
-1
-1
-1
-1
-1
-1
-1
-1
-1
-1
-1
-1
-1
-1
-1
-1
-1
-1
-1
-1
-1
-1
-1
-1
-1
-1
-1
-1
-1
-1
-1
-1
-1
-1
-1
-1
-1
-1
-1
-1
-1
-1
-1
-1
-1
-1
-1
-1
-1
-1
-1
-1
-1
-1
-1
-1
-1
-1
-1
-1
-1
-1
-1
-1
-1
-1
-1
-1
-1
-1
-1
-1
-1
-1
-1
-1
-1
-1
-1
-1
-1
-1
-1
-1
-1
-1
-1
-1
-1
-1
-1
-1
-1
-1
-1
-1
-1
-1
-1
-1
-1
-1
-1
-1
-1
-1
-1
-1
-1
-1
-1
-1
-1
-1
-1
-1
-1
-1
-1
-1
-1
-1
-1
-1
-1
-1
-1
-1
-1
-1
-1
-1
-1
-1
-1
-1
-1
-1
-1
-1
-1
-1
-1
-1
-1
-1
-1
-1
-1
-1
-1
-1
-1
-1
-1
-1
-1
-1
-1
-1
-1
-1
-1
-1
-1
-1
-1
-1
-1
-1
-1
-1
-1
-1
-1
-1
-1
-1
-1
-1
-1
-1
-1
-1
-1
-1
-1
-1
-1
-1
-1
-1
-1
-1
-1
-1
-1
-1
-1
-1
-1
-1
-1
-1
-1
-1
-1
-1
-1
-1
-1
-1
-1
-1
-1
-1
-1
-1
-1
-1
-1
-1
-1
-1
-1
-1
-1
-1
-1
-1
-1
-1
-1
-1
-1
-1
-1
-1
-1
-1
-1
-1
-1
-1
-1
-1
-1
-1
-1
-1
-1
-1
-1
-1
-1
-1
-1
-1
-1
-1
-1
-1
-1
-1
-1
-1
-1
-1
-1
-1
-1
-1
-1
-1
-1
-1
-1
-1
-1
-1
-1
-1
-1
-1
-1
-1
-1
-1
-1
-1
-1
-1
-1
-1
-1
-1
-1
-1
-1
-1
-1
-1
-1
-1
-1
-1
-1
-1
-1
-1
-1
-1
-1
-1
-1
-1
-1
-1
-1
-1
-1
-1
-1
-1
-1
-1
-1
-1
-1
-1
-1
-1
-1
-1
-1
-1
-1
-1
-1
-1
-1
-1
-1
-1
-1
-1
-1
-1
-1
-1
-1
-1
-1
-1
-1
-1
-1
VECTORS vectors float
-0.03125 0 0
-0.03125 0 0
-0.03125 0 0
-0.03125 0 0
-0.03125 0 0
-0.03125 0 0
-0.03125 0 0
-0.03125 0 0
-0.03125 0 0
-0.03125 0 0
-0.03125 0 0
-0.03125 0 0
-0.03125 0 0
-0.03125 0 0
-0.03125 0 0
-0.03125 0 0
-0.03125 0 0
-0.03125 0 0
-0.03125 0 0
-0.03125 0 0
-0.03125 0 0
-0.03125 0 0
-0.03125 0 0
-0.03125 0 0
-0.03125 0 0
-0.03125 0 0
-0.03125 0 0
-0.03125 0 0
-0.03125 0 0
-0.03125 0 0
-0.03125 0 0
-0.03125 0 0
-0.03125 0 0
-0.03125 0 0
-0.03125 0 0
-0.03125 0 0
-0.03125 0 0
-0.03125 0 0
-0.03125 0 0
-0.03125 0 0
-0.03125 0 0
-0.03125 0 0
-0.03125 0 0
-0.03125 0 0
-0.03125 0 0
-0.03125 0 0
-0.03125 0 0
-0.03125 0 0
-0.03125 0 0
-0.03125 0 0
-0.03125 0 0
-0.03125 0 0
-0.03125 0 0
-0.03125 0 0
-0.03125 0 0
-0.03125 0 0
-0.03125 0 0
-0.03125 0 0
-0.03125 0 0
-0.03125 0 0
-0.03125 0 0
-0.03125 0 0
-0.03125 0 0
-0.03125 0 0
-0.03125 0 0
-0.03125 0 0
-0.03125 0 0
-0.03125 0 0
-0.03125 0 0
-0.03125 0 0
-0.03125 0 0
-0.03125 0 0
-0.03125 0 0
-0.03125 0 0
-0.03125 0 0
-0.03125 0 0
-0.03125 0 0
-0.03125 0 0
-0.03125 0 0
-0.03125 0 0
-0.03125 0 0
-0.03125 0 0
-0.03125 0 0
-0.03125 0 0
-0.03125 0 0
-0.03125 0 0
-0.03125 0 0
-0.03125 0 0
-0.03125 0 0
-0.03125 0 0
-0.03125 0 0
-0.03125 0 0
-0.03125 0 0
-0.03125 0 0
-0.03125 0 0
-0.03125 0 0
-0.03125 0 0
-0.03125 0 0
-0.03125 0 0
-0.03125 0 0
-0.03125 0 0
-0.03125 0 0
-0.03125 0 0
-0.03125 0 0
-0.03125 0 0
-0.03125 0 0
-0.03125 0 0
-0.03125 0 0
-0.03125 0 0
-0.03125 0 0
-0.03125 0 0
-0.03125 0 0
-0.03125 0 0
-0.03125 0 0
-0.03125 0 0
-0.03125 0 0
-0.03125 0 0
-0.03125 0 0
-0.03125 0 0
-0.03125 0 0
-0.03125 0 0
-0.03125 0 0
-0.03125 0 0
-0.03125 0 0
-0.03125 0 0
-0.03125 0 0
-0.03125 0 0
-0.03125 0 0
-0.03125 0 0
-0.03125 0 0
-0.03125 0 0
-0.03125 0 0
-0.03125 0 0
-0.03125 0 0
-0.03125 0 0
-0.03125 0 0
-0.03125 0 0
-0.03125 0 0
-0.03125 0 0
-0.03125 0 0
-0.03125 0 0
-0.03125 0 0
-0.03125 0 0
-0.03125 0 0
-0.03125 0 0
-0.03125 0 0
-0.03125 0 0
-0.03125 0 0
-0.03125 0 0
-0.03125 0 0
-0.03125 0 0
-0.03125 0 0
-0.03125 0 0
-0.03125 0 0
-0.03125 0 0
-0.03125 0 0
-0.03125 0 0
-0.03125 0 0
-0.03125 0 0
-0.03125 0 0
-0.03125 0 0
-0.03125 0 0
-0.03125 0 0
-0.03125 0 0
-0.03125 0 0
-0.03125 0 0
-0.03125 0 0
-0.03125 0 0
-0.03125 0 0
-0.03125 0 0
-0.03125 0 0
-0.03125 0 0
-0.03125 0 0
-0.03125 0 0
-0.03125 0 0
-0.03125 0 0
-0.03125 0 0
-0.03125 0 0
-0.03125 0 0
-0.03125 0 0
-0.03125 0 0
-0.03125 0 0
-0.03125 0 0
-0.03125 0 0
-0.03125 0 0
-0.03125 0 0
-0.03125 0 0
-0.03125 0 0
-0.03125 0 0
-0.03125 0 0
-0.03125 0 0
-0.03125 0 0
-0.03125 0 0
-0.03125 0 0
-0.03125 0 0
-0.03125 0 0
-0.03125 0 0
-0.03125 0 0
-0.03125 0 0
-0.03125 0 0
-0.03125 0 0
-0.03125 0 0
-0.03125 0 0
-0.03125 0 0
-0.03125 0 0
-0.03125 0 0
-0.03125 0 0
-0.03125 0 0
-0.03125 0 0
-0.03125 0 0
-0.03125 0 0
-0.03125 0 0
-0.03125 0 0
-0.03125 0 0
-0.03125 0 0
-0.03125 0 0
-0.03125 0 0
-0.03125 0 0
-0.03125 0 0
-0.03125 0 0
-0.03125 0 0
-0.03125 0 0
-0.03125 0 0
-0.03125 0 0
-0.03125 0 0
-0.03125 0 0
-0.03125 0 0
-0.03125 0 0
-0.03125 0 0
-0.03125 0 0
-0.03125 0 0
-0.03125 0 0
-0.03125 0 0
-0.03125 0 0
-0.03125 0 0
-0.03125 0 0
-0.03125 0 0
-0.03125 0 0
-0.03125 0 0
-0.03125 0 0
-0.03125 0 0
-0.03125 0 0
-0.03125 0 0
-0.03125 0 0
-0.03125 0 0
-0.03125 0 0
-0.03125 0 0
-0.03125 0 0
-0.03125 0 0
-0.03125 0 0
-0.03125 0 0
-0.03125 0 0
-0.03125 0 0
-0.03125 0 0
-0.03125 0 0
-0.03125 0 0
-0.03125 0 0
-0.03125 0 0
-0.03125 0 0
-0.03125 0 0
-0.03125 0 0
-0.03125 0 0
-0.03125 0 0
-0.03125 0 0
-0.03125 0 0
-0.03125 0 0
-0.03125 0 0
-0.03125 0 0
-0.03125 0 0
-0.03125 0 0
-0.03125 0 0
-0.03125 0 0
-0.03125 0 0
-0.03125 0 0
-0.03125 0 0
-0.03125 0 0
-0.03125 0 0
-0.03125 0 0
-0.03125 0 0
-0.03125 0 0
-0.03125 0 0
-0.03125 0 0
-0.03125 0 0
-0.03125 0 0
-0.03125 0 0
-0.03125 0 0
-0.03125 0 0
-0.03125 0 0
-0.03125 0 0
-0.03125 0 0
-0.03125 0 0
-0.03125 0 0
-0.03125 0 0
-0.03125 0 0
-0.03125 0 0
-0.03125 0 0
-0.03125 0 0
-0.03125 0 0
-0.03125 0 0
-0.03125 0 0
-0.03125 0 0
-0.03125 0 0
-0.03125 0 0
-0.03125 0 0
-0.03125 0 0
-0.03125 0 0
-0.03125 0 0
-0.03125 0 0
-0.03125 0 0
-0.03125 0 0
-0.03125 0 0
-0.03125 0 0
-0.03125 0 0
-0.03125 0 0
-0.03125 0 0
-0.03125 0 0
-0.03125 0 0
-0.03125 0 0
-0.03125 0 0
-0.03125 0 0
-0.03125 0 0
-0.03125 0 0
-0.03125 0 0
-0.03125 0 0
-0.03125 0 0
-0.03125 0 0
-0.03125 0 0
-0.03125 0 0
-0.03125 0 0
-0.03125 0 0
-0.03125 0 0
-0.03125 0 0
-0.03125 0 0
-0.03125 0 0
-0.03125 0 0
-0.03125 0 0
-0.03125 0 0
-0.03125 0 0
-0.03125 0 0
-0.03125 0 0
-0.03125 0 0
-0.03125 0 0
-0.03125 0 0
-0.03125 0 0
-0.03125 0 0
-0.03125 0 0
-0.03125 0 0
-0.03125 0 0
-0.03125 0 0
-0.03125 0 0
-0.03125 0 0
-0.03125 0 0
-0.03125 0 0
-0.03125 0 0
-0.03125 0 0
-0.03125 0 0
-0.03125 0 0
-0.03125 0 0
-0.03125 0 0
-0.03125 0 0
-0.03125 0 0
-0.03125 0 0
-0.03125 0 0
-0.03125 0 0
-0.03125 0 0
-0.03125 0 0
-0.03125 0 0
-0.03125 0 0
-0.03125 0 0
-0.03125 0 0
-0.03125 0 0
-0.03125 0 0
-0.03125 0 0
-0.03125 0 0
-0.03125 0 0
-0.03125 0 0
-0.03125 0 0
-0.03125 0 0
-0.03125 0 0
-0.03125 0 0
-0.03125 0 0
-0.03125 0 0
-0.03125 0 0
-0.03125 0 0
-0.03125 0 0
-0.03125 0 0
-0.03125 0 0
-0.03125 0 0
-0.03125 0 0
-0.03125 0 0
-0.03125 0 0
-0.03125 0 0
-0.03125 0 0
-0.03125 0 0
-0.03125 0 0
-0.03125 0 0
-0.03125 0 0
-0.03125 0 0
-0.03125 0 0
-0.03125 0 0
-0.03125 0 0
-0.03125 0 0
-0.03125 0 0
-0.03125 0 0
-0.03125 0 0
-0.03125 0 0
-0.03125 0 0
-0.03125 0 0
-0.03125 0 0
-0.03125 0 0
-0.03125 0 0
-0.03125 0 0
-0.03125 0 0
-0.03125 0 0
-0.03125 0 0
-0.03125 0 0
-0.03125 0 0
-0.03125 0 0
-0.03125 0 0
-0.03125 0 0
-0.03125 0 0
-0.03125 0 0
-0.03125 0 0
-0.03125 0 0
-0.03125 0 0
-0.03125 0 0
-0.03125 0 0
-0.03125 0 0
-0.03125 0 0
-0.03125 0 0
-0.03125 0 0
-0.03125 0 0
-0.03125 0 0
-0.03125 0 0
-0.03125 0 0
-0.03125 0 0
-0.03125 0 0
-0.03125 0 0
-0.03125 0 0
-0.03125 0 0
-0.03125 0 0
-0.03125 0 0
-0.03125 0 0
-0.03125 0 0
-0.03125 0 0
-0.03125 0 0
-0.03125 0 0
-0.03125 0 0
-0.03125 0 0
-0.03125 0 0
-0.03125 0 0
-0.03125 0 0
-0.03125 0 0
-0.03125 0 0
-0.03125 0 0
-0.03125 0 0
-0.03125 0 0
-0.03125 0 0
-0.03125 0 0
-0.03125 0 0
-0.03125 0 0
-0.03125 0 0
-0.03125 0 0
-0.03125 0 0
-0.03125 0 0
-0.03125 0 0
-0.03125 0 0
-0.03125 0 0
-0.03125 0 0
-0.03125 0 0
-0.03125 0 0
-0.03125 0 0
-0.03125 0 0
-0.03125 0 0
-0.03125 0 0
-0.03125 0 0
-0.03125 0 0
-0.03125 0 0
-0.03125 0 0
-0.03125 0 0
-0.03125 0 0
-0.03125 0 0
-0.03125 0 0
-0.03125 0 0
-0.03125 0 0
-0.03125 0 0
-0.03125 0 0
-0.03125 0 0
-0.03125 0 0
-0.03125 0 0
-0.03125 0 0
-0.03125 0 0
-0.03125 0 0
-0.03125 0 0
-0.03125 0 0
-0.03125 0 0
-0.03125 0 0
-0.03125 0 0
-0.03125 0 0
-0.03125 0 0
-0.03125 0 0
-0.03125 0 0
-0.03125 0 0
-0.03125 0 0
-0.03125 0 0
-0.03125 0 0
-0.03125 0 0
-0.03125 0 0
-0.03125 0 0
-0.03125 0 0
-0.03125 0 0
-0.03125 0 0
-0.03125 0 0
-0.03125 0 0
-0.03125 0 0
-0.03125 0 0
-0.03125 0 0
-0.03125 0 0
-0.03125 0 0
-0.03125 0 0
-0.03125 0 0
-0.03125 0 0
-0.03125 0 0
-0.03125 0 0
-0.03125 0 0
-0.03125 0 0
-0.03125 0 0
-0.03125 0 0
-0.03125 0 0
-0.03125 0 0
-0.03125 0 0
-0.03125 0 0
-0.03125 0 0
-0.03125 0 0
-0.03125 0 0
-0.03125 0 0
-0.03125 0 0
-0.03125 0 0
-0.03125 0 0
-0.03125 0 0
-0.03125 0 0
-0.03125 0 0
-0.03125 0 0
-0.03125 0 0
-0.03125 0 0
-0.03125 0 0
-0.03125 0 0
-0.03125 0 0
-0.03125 0 0
-0.03125 0 0
-0.03125 0 0
-0.03125 0 0
-0.03125 0 0
-0.03125 0 0
-0.03125 0 0
-0.03125 0 0
-0.03125 0 0
-0.03125 0 0
-0.03125 0 0
-0.03125 0 0
-0.03125 0 0
-0.03125 0 0
-0.03125 0 0
-0.03125 0 0
-0.03125 0 0
-0.03125 0 0
-0.03125 0 0
-0.03125 0 0
-0.03125 0 0
-0.03125 0 0
-0.03125 0 0
-0.03125 0 0
-0.03125 0 0
-0.03125 0 0
-0.03125 0 0
-0.03125 0 0
-0.03125 0 0
-0.03125 0 0
-0.03125 0 0
-0.03125 0 0
-0.03125 0 0
-0.03125 0 0
-0.03125 0 0
-0.03125 0 0
-0.03125 0 0
-0.03125 0 0
-0.03125 0 0
-0.03125 0 0
-0.03125 0 0
-0.03125 0 0
-0.03125 0 0
-0.03125 0 0
-0.03125 0 0
-0.03125 0 0
-0.03125 0 0
-0.03125 0 0
-0.03125 0 0
-0.03125 0 0
-0.03125 0 0
-0.03125 0 0
-0.03125 0 0
-0.03125 0 0
-0.03125 0 0
-0.03125 0 0
-0.03125 0 0
-0.03125 0 0
-0.03125 0 0
-0.03125 0 0
-0.03125 0 0
-0.03125 0 0
-0.03125 0 0
-0.03125 0 0
-0.03125 0 0
-0.03125 0 0
-0.03125 0 0
-0.03125 0 0
-0.03125 0 0
-0.03125 0 0
-0.03125 0 0
-0.03125 0 0
-0.03125 0 0
-0.03125 0 0
-0.03125 0 0
-0.03125 0 0
-0.03125 0 0
-0.03125 0 0
-0.03125 0 0
-0.03125 0 0
-0.03125 0 0
-0.03125 0 0
-0.03125 0 0
-0.03125 0 0
-0.03125 0 0
-0.03125 0 0
-0.03125 0 0
-0.03125 0 0
-0.03125 0 0
-0.03125 0 0
-0.03125 0 0
-0.03125 0 0
-0.03125 0 0
-0.03125 0 0
-0.03125 0 0
-0.03125 0 0
-0.03125 0 0
-0.03125 0 0
-0.03125 0 0
-0.03125 0 0
-0.03125 0 0
-0.03125 0 0
-0.03125 0 0
-0.03125 0 0
-0.03125 0 0
-0.03125 0 0
-0.03125 0 0
-0.03125 0 0
-0.03125 0 0
-0.03125 0 0
-0.03125 0 0
-0.03125 0 0
-0.03125 0 0
-0.03125 0 0
-0.03125 0 0
-0.03125 0 0
-0.03125 0 0
-0.03125 0 0
-0.03125 0 0
-0.03125 0 0
-0.03125 0 0
-0.03125 0 0
-0.03125 0 0
-0.03125 0 0
-0.03125 0 0
-0.03125 0 0
-0.03125 0 0
-0.03125 0 0
-0.03125 0 0
-0.03125 0 0
-0.03125 0 0
-0.03125 0 0
-0.03125 0 0
-0.03125 0 0
-0.03125 0 0
-0.03125 0 0
-0.03125 0 0
-0.03125 0 0
-0.03125 0 0
-0.03125 0 0
-0.03125 0 0
-0.03125 0 0
-0.03125 0 0
-0.03125 0 0
-0.03125 0 0
-0.03125 0 0
-0.03125 0 0
-0.03125 0 0
-0.03125 0 0
-0.03125 0 0
-0.03125 0 0
-0.03125 0 0
-0.03125 0 0
-0.03125 0 0
-0.03125 0 0
-0.03125 0 0
-0.03125 0 0
-0.03125 0 0
-0.03125 0 0
-0.03125 0 0
-0.03125 0 0
-0.03125 0 0
-0.03125 0 0
-0.03125 0 0
-0.03125 0 0
-0.03125 0 0
-0.03125 0 0
-0.03125 0 0
-0.03125 0 0
-0.03125 0 0
-0.03125 0 0
-0.03125 0 0
-0.03125 0 0
-0.03125 0 0
-0.03125 0 0
-0.03125 0 0
-0.03125 0 0
-0.03125 0 0
-0.03125 0 0
-0.03125 0 0
-0.03125 0 0
-0.03125 0 0
-0.03125 0 0
-0.03125 0 0
-0.03125 0 0
-0.03125 0 0
-0.03125 0 0
-0.03125 0 0
-0.03125 0 0
-0.03125 0 0
-0.03125 0 0
-0.03125 0 0
-0.03125 0 0
-0.03125 0 0
-0.03125 0 0
-0.03125 0 0
-0.03125 0 0
-0.03125 0 0
-0.03125 0 0
-0.03125 0 0
-0.03125 0 0
-0.03125 0 0
-0.03125 0 0
-0.03125 0 0
-0.03125 0 0
-0.03125 0 0
-0.03125 0 0
-0.03125 0 0
-0.03125 0 0
-0.03125 0 0
-0.03125 0 0
-0.03125 0 0
-0.03125 0 0
-0.03125 0 0
-0.03125 0 0
-0.03125 0 0
-0.03125 0 0
-0.03125 0 0
-0.03125 0 0
-0.03125 0 0
-0.03125 0 0
-0.03125 0 0
-0.03125 0 0
-0.03125 0 0
-0.03125 0 0
-0.03125 0 0
-0.03125 0 0
-0.03125 0 0
-0.03125 0 0
-0.03125 0 0
-0.03125 0 0
-0.03125 0 0
-0.03125 0 0
-0.03125 0 0
-0.03125 0 0
-0.03125 0 0
-0.03125 0 0
-0.03125 0 0
-0.03125 0 0
-0.03125 0 0
-0.03125 0 0
-0.03125 0 0
-0.03125 0 0
-0.03125 0 0
-0.03125 0 0
-0.03125 0 0
-0.03125 0 0
-0.03125 0 0
-0.03125 0 0
-0.03125 0 0
-0.03125 0 0
-0.03125 0 0
-0.03125 0 0
-0.03125 0 0
-0.03125 0 0
-0.03125 0 0
-0.03125 0 0
-0.03125 0 0
-0.03125 0 0
-0.03125 0 0
-0.03125 0 0
-0.03125 0 0
-0.03125 0 0
-0.03125 0 0
-0.03125 0 0
-0.03125 0 0
-0.03125 0 0
-0.03125 0 0
-0.03125 0 0
-0.03125 0 0
-0.03125 0 0
-0.03125 0 0
-0.03125 0 0
-0.03125 0 0
-0.03125 0 0
-0.03125 0 0
-0.03125 0 0
-0.03125 0 0
-0.03125 0 0
-0.03125 0 0
-0.03125 0 0
-0.03125 0 0
-0.03125 0 0
-0.03125 0 0
-0.03125 0 0
-0.03125 0 0
-0.03125 0 0
-0.03125 0 0
-0.03125 0 0
-0.03125 0 0
-0.03125 0 0
-0.03125 0 0
-0.03125 0 0
-0.03125 0 0
-0.03125 0 0
-0.03125 0 0
-0.03125 0 0
-0.03125 0 0
-0.03125 0 0
-0.03125 0 0
-0.03125 0 0
-0.03125 0 0
-0.03125 0 0
-0.03125 0 0
-0.03125 0 0
-0.03125 0 0
-0.03125 0 0
-0.03125 0 0
-0.03125 0 0
-0.03125 0 0
-0.03125 0 0
-0.03125 0 0
-0.03125 0 0
-0.03125 0 0
-0.03125 0 0
-0.03125 0 0
-0.03125 0 0
-0.03125 0 0
-0.03125 0 0
-0.03125 0 0
-0.03125 0 0
-0.03125 0 0
-0.03125 0 0
-0.03125 0 0
-0.03125 0 0
-0.03125 0 0
-0.03125 0 0
-0.03125 0 0
-0.03125 0 0
-0.03125 0 0
-0.03125 0 0
-0.03125 0 0
-0.03125 0 0
-0.03125 0 0
-0.03125 0 0
-0.03125 0 0
-0.03125 0 0
-0.03125 0 0
-0.03125 0 0
-0.03125 0 0
-0.03125 0 0
-0.03125 0 0
-0.03125 0 0
-0.03125 0 0
-0.03125 0 0
-0.03125 0 0
-0.03125 0 0
-0.03125 0 0
-0.03125 0 0
-0.03125 0 0
-0.03125 0 0
-0.03125 0 0
-0.03125 0 0
-0.03125 0 0
-0.03125 0 0
-0.03125 0 0
-0.03125 0 0
-0.03125 0 0
-0.03125 0 0
-0.03125 0 0
-0.03125 0 0
-0.03125 0 0
-0.03125 0 0
-0.03125 0 0
-0.03125 0 0
-0.03125 0 0
-0.03125 0 0
-0.03125 0 0
-0.03125 0 0
-0.03125 0 0
-0.03125 0 0
-0.03125 0 0
-0.03125 0 0
-0.03125 0 0
-0.03125 0 0
-0.03125 0 0
-0.03125 0 0
-0.03125 0 0
-0.03125 0 0
-0.03125 0 0
-0.03125 0 0
-0.03125 0 0
-0.03125 0 0
-0.03125 0 0
-0.03125 0 0
-0.03125 0 0
-0.03125 0 0
-0.03125 0 0
-0.03125 0 0
-0.03125 0 0
-0.03125 0 0
-0.03125 0 0
-0.03125 0 0
-0.03125 0 0
-0.03125 0 0
-0.03125 0 0
-0.03125 0 0
-0.03125 0 0
-0.03125 0 0
-0.03125 0 0
-0.03125 0 0
-0.03125 0 0
-0.03125 0 0
-0.03125 0 0
-0.03125 0 0
-0.03125 0 0
-0.03125 0 0
-0.03125 0 0
-0.03125 0 0
-0.03125 0 0
-0.03125 0 0
-0.03125 0 0
-0.03125 0 0
-0.03125 0 0
-0.03125 0 0
-0.03125 0 0
-0.03125 0 0
-0.03125 0 0
-0.03125 0 0
-0.03125 0 0
-0.03125 0 0
-0.03125 0 0
-0.03125 0 0
-0.03125 0 0
-0.03125 0 0
-0.03125 0 0
-0.03125 0 0
-0.03125 0 0
-0.03125 0 0
-0.03125 0 0
-0.03125 0 0
-0.03125 0 0
-0.03125 0 0
-0.03125 0 0
-0.03125 0 0
-0.03125 0 0
-0.03125 0 0
-0.03125 0 0
-0.03125 0 0
-0.03125 0 0
-0.03125 0 0
-0.03125 0 0
-0.03125 0 0
-0.03125 0 0
-0.03125 0 0
-0.03125 0 0
-0.03125 0 0
-0.03125 0 0
-0.03125 0 0
-0.03125 0 0
-0.03125 0 0
-0.03125 0 0
-0.03125 0 0
-0.03125 0 0
-0.03125 0 0
-0.03125 0 0
-0.03125 0 0
-0.03125 0 0
-0.03125 0 0
-0.03125 0 0
-0.03125 0 0
-0.03125 0 0
-0.03125 0 0
-0.03125 0 0
-0.03125 0 0
-0.03125 0 0
-0.03125 0 0
-0.03125 0 0
-0.03125 0 0
-0.03125 0 0
-0.03125 0 0
-0.03125 0 0
-0.03125 0 0
-0.03125 0 0
-0.03125 0 0
-0.03125 0 0
-0.03125 0 0
-0.03125 0 0
-0.03125 0 0
-0.03125 0 0
-0.03125 0 0
-0.03125 0 0
-0.03125 0 0
-0.03125 0 0
-0.03125 0 0
-0.03125 0 0
-0.03125 0 0
-0.03125 0 0
-0.03125 0 0
-0.03125 0 0
-0.03125 0 0
-0.03125 0 0
-0.03125 0 0
-0.03125 0 0
-0.03125 0 0
-0.03125 0 0
-0.03125 0 0
-0.03125 0 0
-0.03125 0 0
-0.03125 0 0
-0.03125 0 0
-0.03125 0 0
-0.03125 0 0
-0.03125 0 0
-0.03125 0 0
-0.03125 0 0
-0.03125 0 0
-0.03125 0 0
-0.03125 0 0
-0.03125 0 0
-0.03125 0 0
-0.03125 0 0
-0.03125 0 0
-0.03125 0 0
-0.03125 0 0
-0.03125 0 0
-0.03125 0 0
-0.03125 0 0
-0.03125 0 0
-0.03125 0 0
-0.03125 0 0
-0.03125 0 0
-0.03125 0 0
-0.03125 0 0
-0.03125 0 0
-0.03125 0 0
-0.03125 0 0
-0.03125 0 0
-0.03125 0 0
-0.03125 0 0
-0.03125 0 0
-0.03125 0 0
-0.03125 0 0
-0.03125 0 0
-0.03125 0 0
-0.03125 0 0
-0.03125 0 0
-0.03125 0 0
-0.03125 0 0
-0.03125 0 0
-0.03125 0 0
-0.03125 0 0
-0.03125 0 0
-0.03125 0 0
-0.03125 0 0
-0.03125 0 0
-0.03125 0 0
-0.03125 0 0
-0.03125 0 0
-0.03125 0 0
-0.03125 0 0
-0.03125 0 0
-0.03125 0 0
-0.03125 0 0
-0.03125 0 0
-0.03125 0 0
-0.03125 0 0
-0.03125 0 0
-0.03125 0 0
-0.03125 0 0
-0.03125 0 0
-0.03125 0 0
-0.03125 0 0
-0.03125 0 0
-0.03125 0 0
-0.03125 0 0
-0.03125 0 0
-0.03125 0 0
-0.03125 0 0
-0.03125 0 0
-0.03125 0 0
-0.03125 0 0
-0.03125 0 0
-0.03125 0 0
-0.03125 0 0
-0.03125 0 0
-0.03125 0 0
-0.03125 0 0
-0.03125 0 0
-0.03125 0 0
-0.03125 0 0
-0.03125 0 0
-0.03125 0 0
-0.03125 0 0
-0.03125 0 0
-0.03125 0 0
-0.03125 0 0
-0.03125 0 0
-0.03125 0 0
-0.03125 0 0
-0.03125 0 0
-0.03125 0 0
-0.03125 0 0
-0.03125 0 0
-0.03125 0 0
-0.03125 0 0
-0.03125 0 0
-0.03125 0 0
-0.03125 0 0
-0.03125 0 0
-0.03125 0 0
-0.03125 0 0
-0.03125 0 0
-0.03125 0 0
-0.03125 0 0
-0.03125 0 0
-0.03125 0 0
-0.03125 0 0
-0.03125 0 0
-0.03125 0 0
-0.03125 0 0
-0.03125 0 0
-0.03125 0 0
-0.03125 0 0
-0.03125 0 0
-0.03125 0 0
-0.03125 0 0
-0.03125 0 0
-0.03125 0 0
-0.03125 0 0
-0.03125 0 0
-0.03125 0 0
-0.03125 0 0
-0.03125 0 0
-0.03125 0 0
-0.03125 0 0
-0.03125 0 0
-0.03125 0 0
-0.03125 0 0
-0.03125 0 0
-0.03125 0 0
-0.03125 0 0
-0.03125 0 0
-0.03125 0 0
-0.03125 0 0
-0.03125 0 0
-0.03125 0 0
-0.03125 0 0
-0.03125 0 0
-0.03125 0 0
-0.03125 0 0
-0.03125 0 0
-0.03125 0 0
-0.03125 0 0
-0.03125 0 0
-0.03125 0 0
-0.03125 0 0
-0.03125 0 0
-0.03125 0 0
-0.03125 0 0
-0.03125 0 0
-0.03125 0 0
-0.03125 0 0
-0.03125 0 0
-0.03125 0 0
-0.03125 0 0
-0.03125 0 0
-0.03125 0 0
-0.03125 0 0
-0.03125 0 0
-0.03125 0 0
-0.03125 0 0
-0.03125 0 0
-0.03125 0 0
-0.03125 0 0
-0.03125 0 0
-0.03125 0 0
-0.03125 0 0
-0.03125 0 0
-0.03125 0 0
-0.03125 0 0
-0.03125 0 0
-0.03125 0 0
-0.03125 0 0
-0.03125 0 0
-0.03125 0 0
-0.03125 0 0
-0.03125 0 0
-0.03125 0 0
-0.03125 0 0
-0.03125 0 0
-0.03125 0 0
-0.03125 0 0
-0.03125 0 0
-0.03125 0 0
-0.03125 0 0
-0.03125 0 0
-0.03125 0 0
-0.03125 0 0
-0.03125 0 0
-0.03125 0 0
-0.03125 0 0
-0.03125 0 0
-0.03125 0 0
-0.03125 0 0
-0.03125 0 0
-0.03125 0 0
-0.03125 0 0
-0.03125 0 0
-0.03125 0 0
-0.03125 0 0
-0.03125 0 0
-0.03125 0 0
-0.03125 0 0
-0.03125 0 0
-0.03125 0 0
-0.03125 0 0
-0.03125 0 0
-0.03125 0 0
-0.03125 0 0
-0.03125 0 0
-0.03125 0 0
-0.03125 0 0
-0.03125 0 0
-0.03125 0 0
-0.03125 0 0
-0.03125 0 0
-0.03125 0 0
-0.03125 0 0
-0.03125 0 0
-0.03125 0 0
-0.03125 0 0
-0.03125 0 0
-0.03125 0 0
-0.03125 0 0
-0.03125 0 0
-0.03125 0 0
-0.03125 0 0
-0.03125 0 0
-0.03125 0 0
-0.03125 0 0
-0.03125 0 0
-0.03125 0 0
-0.03125 0 0
-0.03125 0 0
-0.03125 0 0
-0.03125 0 0
-0.03125 0 0
-0.03125 0 0
-0.03125 0 0
-0.03125 0 0
-0.03125 0 0
-0.03125 0 0
-0.03125 0 0
-0.03125 0 0
-0.03125 0 0
-0.03125 0 0
-0.03125 0 0
-0.03125 0 0
-0.03125 0 0
-0.03125 0 0
-0.03125 0 0
-0.03125 0 0
-0.03125 0 0
-0.03125 0 0
-0.03125 0 0
-0.03125 0 0
-0.03125 0 0
-0.03125 0 0
-0.03125 0 0
-0.03125 0 0
-0.03125 0 0
-0.03125 0 0
-0.03125 0 0
-0.03125 0 0
-0.03125 0 0
-0.03125 0 0
-0.03125 0 0
-0.03125 0 0
-0.03125 0 0
-0.03125 0 0
-0.03125 0 0
-0.03125 0 0
-0.03125 0 0
-0.03125 0 0
-0.03125 0 0
-0.03125 0 0
-0.03125 0 0
-0.03125 0 0
-0.03125 0 0
-0.03125 0 0
-0.03125 0 0
-0.03125 0 0
-0.03125 0 0
-0.03125 0 0
-0.03125 0 0
-0.03125 0 0
-0.03125 0 0
-0.03125 0 0
-0.03125 0 0
-0.03125 0 0
-0.03125 0 0
-0.03125 0 0
-0.03125 0 0
-0.03125 0 0
-0.03125 0 0
-0.03125 0 0
-0.03125 0 0
-0.03125 0 0
-0.03125 0 0
-0.03125 0 0
-0.03125 0 0
-0.03125 0 0
-0.03125 0 0
-0.03125 0 0
-0.03125 0 0
-0.03125 0 0
-0.03125 0 0
-0.03125 0 0
-0.03125 0 0
-0.03125 0 0
-0.03125 0 0
-0.03125 0 0
-0.03125 0 0
-0.03125 0 0
-0.03125 0 0
-0.03125 0 0
-0.03125 0 0
-0.03125 0 0
-0.03125 0 0
-0.03125 0 0
-0.03125 0 0
-0.03125 0 0
-0.03125 0 0
-0.03125 0 0
-0.03125 0 0
-0.03125 0 0
-0.03125 0 0
-0.03125 0 0
-0.03125 0 0
-0.03125 0 0
-0.03125 0 0
-0.03125 0 0
-0.03125 0 0
-0.03125 0 0
-0.03125 0 0
-0.03125 0 0
-0.03125 0 0
-0.03125 0 0
-0.03125 0 0
-0.03125 0 0
-0.03125 0 0
-0.03125 0 0
-0.03125 0 0
-0.03125 0 0
-0.03125 0 0
-0.03125 0 0
-0.03125 0 0
-0.03125 0 0
-0.03125 0 0
-0.03125 0 0
-0.03125 0 0
-0.03125 0 0
-0.03125 0 0
-0.03125 0 0
-0.03125 0 0
-0.03125 0 0
-0.03125 0 0
-0.03125 0 0
-0.03125 0 0
-0.03125 0 0
-0.03125 0 0
-0.03125 0 0
-0.03125 0 0
-0.03125 0 0
-0.03125 0 0
-0.03125 0 0
-0.03125 0 0
-0.03125 0 0
-0.03125 0 0
-0.03125 0 0
-0.03125 0 0
-0.03125 0 0
-0.03125 0 0
-0.03125 0 0
-0.03125 0 0
-0.03125 0 0
-0.03125 0 0
-0.03125 0 0
-0.03125 0 0
-0.03125 0 0
-0.03125 0 0
-0.03125 0 0
-0.03125 0 0
-0.03125 0 0
-0.03125 0 0
-0.03125 0 0
-0.03125 0 0
-0.03125 0 0
-0.03125 0 0
-0.03125 0 0
-0.03125 0 0
-0.03125 0 0
-0.03125 0 0
-0.03125 0 0
-0.03125 0 0
-0.03125 0 0
-0.03125 0 0
-0.03125 0 0
-0.03125 0 0
-0.03125 0 0
-0.03125 0 0
-0.03125 0 0
-0.03125 0 0
-0.03125 0 0
-0.03125 0 0
-0.03125 0 0
-0.03125 0 0
-0.03125 0 0
-0.03125 0 0
-0.03125 0 0
-0.03125 0 0
-0.03125 0 0
-0.03125 0 0
-0.03125 0 0
-0.03125 0 0
-0.03125 0 0
-0.03125 0 0
-0.03125 0 0
-0.03125 0 0
-0.03125 0 0
-0.03125 0 0
-0.03125 0 0
-0.03125 0 0
-0.03125 0 0
-0.03125 0 0
-0.03125 0 0
-0.03125 0 0
-0.03125 0 0
-0.03125 0 0
-0.03125 0 0
-0.03125 0 0
-0.03125 0 0
-0.03125 0 0
-0.03125 0 0
-0.03125 0 0
-0.03125 0 0
-0.03125 0 0
-0.03125 0 0
-0.03125 0 0
-0.03125 0 0
-0.03125 0 0
-0.03125 0 0
-0.03125 0 0
-0.03125 0 0
-0.03125 0 0
-0.03125 0 0
-0.03125 0 0
-0.03125 0 0
-0.03125 0 0
-0.03125 0 0
-0.03125 0 0
-0.03125 0 0
-0.03125 0 0
-0.03125 0 0
-0.03125 0 0
-0.03125 0 0
-0.03125 0 0
-0.03125 0 0
-0.03125 0 0
-0.03125 0 0
-0.03125 0 0
-0.03125 0 0
-0.03125 0 0
-0.03125 0 0
-0.03125 0 0
-0.03125 0 0
-0.03125 0 0
-0.03125 0 0
-0.03125 0 0
-0.03125 0 0
-0.03125 0 0
-0.03125 0 0
-0.03125 0 0
-0.03125 0 0
-0.03125 0 0
-0.03125 0 0
-0.03125 0 0
-0.03125 0 0
-0.03125 0 0
-0.03125 0 0
-0.03125 0 0
-0.03125 0 0
-0.03125 0 0
-0.03125 0 0
-0.03125 0 0
-0.03125 0 0
-0.03125 0 0
-0.03125 0 0
-0.03125 0 0
-0.03125 0 0
-0.03125 0 0
-0.03125 0 0
-0.03125 0 0
-0.03125 0 0
-0.03125 0 0
-0.03125 0 0
-0.03125 0 0
-0.03125 0 0
-0.03125 0 0
-0.03125 0 0
-0.03125 0 0
-0.03125 0 0
-0.03125 0 0
-0.03125 0 0
-0.03125 0 0
-0.03125 0 0
-0.03125 0 0
-0.03125 0 0
-0.03125 0 0
-0.03125 0 0
-0.03125 0 0
-0.03125 0 0
-0.03125 0 0
-0.03125 0 0
-0.03125 0 0
-0.03125 0 0
-0.03125 0 0
-0.03125 0 0
-0.03125 0 0
-0.03125 0 0
-0.03125 0 0
-0.03125 0 0
-0.03125 0 0
-0.03125 0 0
-0.03125 0 0
-0.03125 0 0
-0.03125 0 0
-0.03125 0 0
-0.03125 0 0
-0.03125 0 0
-0.03125 0 0
-0.03125 0 0
-0.03125 0 0
-0.03125 0 0
-0.03125 0 0
-0.03125 0 0
-0.03125 0 0
-0.03125 0 0
-0.03125 0 0
-0.03125 0 0
-0.03125 0 0
-0.03125 0 0
-0.03125 0 0
-0.03125 0 0
-0.03125 0 0
-0.03125 0 0
-0.03125 0 0
-0.03125 0 0
-0.03125 0 0
-0.03125 0 0
-0.03125 0 0
-0.03125 0 0
-0.03125 0 0
-0.03125 0 0
-0.03125 0 0
-0.03125 0 0
-0.03125 0 0
-0.03125 0 0
-0.03125 0 0
-0.03125 0 0
-0.03125 0 0
-0.03125 0 0
-0.03125 0 0
-0.03125 0 0
-0.03125 0 0
-0.03125 0 0
-0.03125 0 0
-0.03125 0 0
-0.03125 0 0
-0.03125 0 0
-0.03125 0 0
-0.03125 0 0
-0.03125 0 0
-0.03125 0 0
-0.03125 0 0
-0.03125 0 0
-0.03125 0 0
-0.03125 0 0
-0.03125 0 0
-0.03125 0 0
-0.03125 0 0
-0.03125 0 0
-0.03125 0 0
-0.03125 0 0
-0.03125 0 0
-0.03125 0 0
-0.03125 0 0
-0.03125 0 0
-0.03125 0 0
-0.03125 0 0
-0.03125 0 0
-0.03125 0 0
-0.03125 0 0
-0.03125 0 0
-0.03125 0 0
-0.03125 0 0
-0.03125 0 0
-0.03125 0 0
-0.03125 0 0
-0.03125 0 0
-0.03125 0 0
-0.03125 0 0
-0.03125 0 0
-0.03125 0 0
-0.03125 0 0
-0.03125 0 0
-0.03125 0 0
-0.03125 0 0
-0.03125 0 0
-0.03125 0 0
-0.03125 0 0
-0.03125 0 0
-0.03125 0 0
-0.03125 0 0
-0.03125 0 0
-0.03125 0 0
-0.03125 0 0
-0.03125 0 0
-0.03125 0 0
-0.03125 0 0
-0.03125 0 0
-0.03125 0 0
-0.03125 0 0
-0.03125 0 0
-0.03125 0 0
-0.03125 0 0
-0.03125 0 0
-0.03125 0 0
-0.03125 0 0
-0.03125 0 0
-0.03125 0 0
-0.03125 0 0
-0.03125 0 0
-0.03125 0 0
-0.03125 0 0
-0.03125 0 0
-0.03125 0 0
-0.03125 0 0
-0.03125 0 0
-0.03125 0 0
-0.03125 0 0
-0.03125 0 0
-0.03125 0 0
-0.03125 0 0
-0.03125 0 0
-0.03125 0 0
-0.03125 0 0
-0.03125 0 0
-0.03125 0 0
-0.03125 0 0
-0.03125 0 0
-0.03125 0 0
-0.03125 0 0
-0.03125 0 0
-0.03125 0 0
-0.03125 0 0
-0.03125 0 0
-0.03125 0 0
-0.03125 0 0
-0.03125 0 0
-0.03125 0 0
-0.03125 0 0
-0.03125 0 0
-0.03125 0 0
-0.03125 0 0
-0.03125 0 0
-0.03125 0 0
-0.03125 0 0
-0.03125 0 0
-0.03125 0 0
-0.03125 0 0
-0.03125 0 0
-0.03125 0 0
-0.03125 0 0
-0.03125 0 0
-0.03125 0 0
-0.03125 0 0
-0.03125 0 0
-0.03125 0 0
-0.03125 0 0
-0.03125 0 0
-0.03125 0 0
-0.03125 0 0
-0.03125 0 0
-0.03125 0 0
-0.03125 0 0
-0.03125 0 0
-0.03125 0 0
-0.03125 0 0
-0.03125 0 0
-0.03125 0 0
-0.03125 0 0
-0.03125 0 0
-0.03125 0 0
-0.03125 0 0
-0.03125 0 0
-0.03125 0 0
-0.03125 0 0
-0.03125 0 0
-0.03125 0 0
-0.03125 0 0
-0.03125 0 0
-0.03125 0 0
-0.03125 0 0
-0.03125 0 0
-0.03125 0 0
-0.03125 0 0
-0.03125 0 0
-0.03125 0 0
-0.03125 0 0
-0.03125 0 0
-0.03125 0 0
-0.03125 0 0
-0.03125 0 0
-0.03125 0 0
-0.03125 0 0
-0.03125 0 0
-0.03125 0 0
-0.03125 0 0
-0.03125 0 0
-0.03125 0 0
-0.03125 0 0
-0.03125 0 0
-0.03125 0 0
-0.03125 0 0
-0.03125 0 0
-0.03125 0 0
-0.03125 0 0
-0.03125 0 0
-0.03125 0 0
-0.03125 0 0
-0.03125 0 0
-0.03125 0 0
-0.03125 0 0
-0.03125 0 0
