# vtk DataFile Version 1.0
Cube
ASCII

DATASET POLYDATA
POINTS 8 float
0.000000 0.000000 0.000000
0.000000 0.000000 30.000000
0.000000 30.000000 0.000000
0.000000 30.000000 30.000000
30.000000 0.000000 0.000000
30.000000 0.000000 30.000000
30.000000 30.000000 0.000000
30.000000 30.000000 30.000000
POINT_DATA 8
SCALARS my_scalars float
LOOKUP_TABLE default
-1
-1
-1
-1
-1
-1
-1
-1
VECTORS vectors float
-0.03125 0 0
-0.03125 0 0
-0.03125 0 0
-0.03125 0 0
-0.03125 0 0
-0.03125 0 0
-0.03125 0 0
-0.03125 0 0
