# vtk DataFile Version 1.0
Cube
ASCII

DATASET POLYDATA
POINTS 14 float
39.800097 16.112561 -3.184481
38.941042 14.971788 -3.760901
38.080846 13.830255 -4.334108
37.221764 12.687809 -4.907166
36.362780 11.544630 -5.478907
35.504888 10.404642 -6.058602
34.647889 9.264396 -6.639114
39.800097 16.112561 53.549819
38.941042 14.971788 52.973399
38.080846 13.830255 52.400192
37.221764 12.687809 51.827134
36.362780 11.544630 51.255393
35.504888 10.404642 50.675698
34.647889 9.264396 50.095186
LINES 12 36
2 0 1
2 1 2
2 2 3
2 3 4
2 4 5
2 5 6
2 7 8
2 8 9
2 9 10
2 10 11
2 11 12
2 12 13
POINT_DATA 14
SCALARS my_scalars float
LOOKUP_TABLE default
-1
-1
-1
-1
-1
-1
-1
-1
-1
-1
-1
-1
-1
-1
VECTORS vectors float
-0.03125 0 0
-0.03125 0 0
-0.03125 0 0
-0.03125 0 0
-0.03125 0 0
-0.03125 0 0
-0.03125 0 0
-0.03125 0 0
-0.03125 0 0
-0.03125 0 0
-0.03125 0 0
-0.03125 0 0
-0.03125 0 0
-0.03125 0 0
