# vtk DataFile Version 1.0
Cube
ASCII

DATASET POLYDATA
POINTS 204 float
4.501607 33.757631 38.818370
5.805924 34.535231 38.562061
5.793465 35.526349 37.383447
6.986607 36.499362 37.347933
7.094707 37.381892 36.090534
-4.117133 10.540520 38.462373
-2.971642 10.794642 39.459806
-2.245776 12.152649 39.436681
-3.019090 13.306371 40.101895
-3.555858 12.919816 41.492598
45.526267 10.540520 38.462373
46.671758 10.794642 39.459806
47.397624 12.152649 39.436681
46.624310 13.306371 40.101895
46.087542 12.919816 41.492598
4.779869 38.063367 0.457493
3.336201 37.554911 0.627481
3.124599 36.441518 1.670162
3.081533 36.901392 3.139264
4.306007 37.791219 3.422939
4.779869 38.063367 57.191793
3.336201 37.554911 57.361781
3.124599 36.441518 58.404462
3.081533 36.901392 59.873564
4.306007 37.791219 60.157239
20.386496 17.516938 1.282405
18.955828 17.275483 1.798632
18.783791 17.151566 3.323967
17.319882 16.907272 3.734931
17.095778 16.655888 5.237656
20.386496 17.516938 58.016705
18.955828 17.275483 58.532932
18.783791 17.151566 60.058267
17.319882 16.907272 60.469231
17.095778 16.655888 61.971956
-12.167872 30.242467 19.462955
-13.021827 31.067263 20.443808
-14.306698 30.284860 20.773284
-15.155678 29.863386 19.559533
-16.386777 29.010883 19.919024
37.475528 30.242467 19.462955
36.621573 31.067263 20.443808
35.336702 30.284860 20.773284
34.487722 29.863386 19.559533
33.256623 29.010883 19.919024
25.254726 -0.073893 -3.640775
23.795210 0.138580 -4.083798
22.696293 0.249071 -3.010591
22.854658 1.514552 -2.147412
21.744452 1.813712 -1.122939
25.254726 -0.073893 53.093525
23.795210 0.138580 52.650502
22.696293 0.249071 53.723709
22.854658 1.514552 54.586888
21.744452 1.813712 55.611361
0.433026 42.918553 -3.640775
-1.026490 43.131025 -4.083798
-2.125407 43.241517 -3.010591
-1.967042 44.506998 -2.147412
-3.077248 44.806158 -1.122939
0.433026 42.918553 53.093525
-1.026490 43.131025 52.650502
-2.125407 43.241517 53.723709
-1.967042 44.506998 54.586888
-3.077248 44.806158 55.611361
29.974377 20.958911 18.529750
29.250899 22.285136 18.828593
28.459989 22.375610 20.146878
27.929708 23.769784 20.529866
28.983001 24.659278 21.216143
2.761318 15.368459 9.822964
3.117214 15.815479 11.253038
2.987194 17.336726 11.454291
4.325984 18.014364 11.107812
4.388870 19.551028 11.187250
24.317173 28.863375 16.866701
23.920400 28.495435 15.424900
24.735016 27.333914 14.825844
24.889032 26.101019 15.735706
25.442034 24.782873 15.162748
7.114111 24.774052 29.000420
8.051879 24.837673 30.220315
9.286487 23.917553 30.247201
8.850191 22.467462 30.527350
9.923537 21.699939 31.321351
9.830763 23.551189 -4.095127
9.354264 24.793407 -3.319599
8.868646 26.036925 -2.551849
8.385001 27.280300 -1.782624
7.900134 28.523759 -1.014307
7.416054 29.767202 -0.245465
6.929757 31.011051 0.521316
9.830763 23.551189 52.639173
9.354264 24.793407 53.414701
8.868646 26.036925 54.182451
8.385001 27.280300 54.951676
7.900134 28.523759 55.719993
7.416054 29.767202 56.488835
6.929757 31.011051 57.255616
31.542371 20.113727 6.721251
31.333615 20.675753 5.302748
31.123749 21.237132 3.884154
30.910627 21.786351 2.461292
30.698812 22.334925 1.037985
30.486121 22.883765 -0.385088
30.276622 23.431125 -1.809204
31.542371 20.113727 63.455551
31.333615 20.675753 62.037048
31.123749 21.237132 60.618454
30.910627 21.786351 59.195592
30.698812 22.334925 57.772285
30.486121 22.883765 56.349212
30.276622 23.431125 54.925096
12.693503 -2.922799 43.682703
11.820931 -1.788716 44.251976
10.946345 -0.655154 44.819194
10.067534 0.474103 45.388465
9.187756 1.603195 45.956570
8.307221 2.731724 46.524619
7.429698 3.862071 47.093714
-12.128197 40.069646 43.682703
-13.000769 41.203730 44.251976
-13.875355 42.337292 44.819194
-14.754166 43.466549 45.388465
-15.633944 44.595641 45.956570
-16.514479 45.724170 46.524619
-17.392002 46.854516 47.093714
17.328506 31.790860 17.498179
17.683921 32.678363 16.290861
18.030771 33.562981 15.078943
18.377923 34.447743 13.867216
18.723744 35.332139 12.654841
19.070397 36.216750 11.442861
19.416220 37.101027 10.230401
-5.109299 21.906280 8.646862
-5.189541 20.865874 7.514291
-5.271034 19.827506 6.379940
-5.351415 18.787269 5.247225
-5.432480 17.747867 4.113791
-5.512025 16.706414 2.982133
-5.594915 15.666926 1.848911
-5.109299 21.906280 65.381162
-5.189541 20.865874 64.248591
-5.271034 19.827506 63.114240
-5.351415 18.787269 61.981525
-5.432480 17.747867 60.848091
-5.512025 16.706414 59.716433
-5.594915 15.666926 58.583211
12.583048 1.168292 42.064553
12.877566 2.426236 42.902669
13.173817 3.685228 43.738596
13.468850 4.942244 44.577921
13.764865 6.198641 45.417826
14.059541 7.454052 46.259676
14.357100 8.707558 47.103347
-5.201285 10.241854 47.402607
-6.576819 10.671588 46.859620
-7.950213 11.102920 46.312499
-9.322365 11.538176 45.765369
-10.693667 11.973997 45.216561
-12.065573 12.409566 44.669063
-13.437655 12.847502 44.123899
44.442115 10.241854 47.402607
43.066581 10.671588 46.859620
41.693187 11.102920 46.312499
40.321035 11.538176 45.765369
38.949733 11.973997 45.216561
37.577827 12.409566 44.669063
36.205745 12.847502 44.123899
-0.957720 18.944835 -1.376758
-2.318177 19.375053 -0.797389
-3.676961 19.809872 -0.217527
-5.036696 20.242344 0.361858
-6.397031 20.675453 0.939358
-7.758048 21.107926 1.515726
-9.116890 21.541683 2.096244
-0.957720 18.944835 55.357542
-2.318177 19.375053 55.936911
-3.676961 19.809872 56.516773
-5.036696 20.242344 57.096158
-6.397031 20.675453 57.673658
-7.758048 21.107926 58.250026
-9.116890 21.541683 58.830544
16.189203 29.169920 0.791642
15.658716 27.816583 1.300231
15.123075 26.464719 1.807333
14.586755 25.112357 2.312385
14.051484 23.760244 2.819214
13.515331 22.408044 3.324877
12.982121 21.056120 3.834376
16.189203 29.169920 57.525942
15.658716 27.816583 58.034531
15.123075 26.464719 58.541633
14.586755 25.112357 59.046685
14.051484 23.760244 59.553514
13.515331 22.408044 60.059177
12.982121 21.056120 60.568676
14.671495 12.464983 45.184235
14.047230 13.370071 46.262525
13.422135 14.274981 47.340484
12.799065 15.180446 48.419148
12.175039 16.085535 49.497575
11.550434 16.991424 50.574995
10.927395 17.898956 51.651939
LINES 170 510
2 0 1
2 1 2
2 2 3
2 3 4
2 5 6
2 6 7
2 7 8
2 8 9
2 10 11
2 11 12
2 12 13
2 13 14
2 15 16
2 16 17
2 17 18
2 18 19
2 20 21
2 21 22
2 22 23
2 23 24
2 25 26
2 26 27
2 27 28
2 28 29
2 30 31
2 31 32
2 32 33
2 33 34
2 35 36
2 36 37
2 37 38
2 38 39
2 40 41
2 41 42
2 42 43
2 43 44
2 45 46
2 46 47
2 47 48
2 48 49
2 50 51
2 51 52
2 52 53
2 53 54
2 55 56
2 56 57
2 57 58
2 58 59
2 60 61
2 61 62
2 62 63
2 63 64
2 65 66
2 66 67
2 67 68
2 68 69
2 70 71
2 71 72
2 72 73
2 73 74
2 75 76
2 76 77
2 77 78
2 78 79
2 80 81
2 81 82
2 82 83
2 83 84
2 85 86
2 86 87
2 87 88
2 88 89
2 89 90
2 90 91
2 92 93
2 93 94
2 94 95
2 95 96
2 96 97
2 97 98
2 99 100
2 100 101
2 101 102
2 102 103
2 103 104
2 104 105
2 106 107
2 107 108
2 108 109
2 109 110
2 110 111
2 111 112
2 113 114
2 114 115
2 115 116
2 116 117
2 117 118
2 118 119
2 120 121
2 121 122
2 122 123
2 123 124
2 124 125
2 125 126
2 127 128
2 128 129
2 129 130
2 130 131
2 131 132
2 132 133
2 134 135
2 135 136
2 136 137
2 137 138
2 138 139
2 139 140
2 141 142
2 142 143
2 143 144
2 144 145
2 145 146
2 146 147
2 148 149
2 149 150
2 150 151
2 151 152
2 152 153
2 153 154
2 155 156
2 156 157
2 157 158
2 158 159
2 159 160
2 160 161
2 162 163
2 163 164
2 164 165
2 165 166
2 166 167
2 167 168
2 169 170
2 170 171
2 171 172
2 172 173
2 173 174
2 174 175
2 176 177
2 177 178
2 178 179
2 179 180
2 180 181
2 181 182
2 183 184
2 184 185
2 185 186
2 186 187
2 187 188
2 188 189
2 190 191
2 191 192
2 192 193
2 193 194
2 194 195
2 195 196
2 197 198
2 198 199
2 199 200
2 200 201
2 201 202
2 202 203
POINT_DATA 204
SCALARS my_scalars float
LOOKUP_TABLE default
-1
-1
-1
-1
-1
-1
-1
-1
-1
-1
-1
-1
-1
-1
-1
-1
-1
-1
-1
-1
-1
-1
-1
-1
-1
-1
-1
-1
-1
-1
-1
-1
-1
-1
-1
-1
-1
-1
-1
-1
-1
-1
-1
-1
-1
-1
-1
-1
-1
-1
-1
-1
-1
-1
-1
-1
-1
-1
-1
-1
-1
-1
-1
-1
-1
-1
-1
-1
-1
-1
-1
-1
-1
-1
-1
-1
-1
-1
-1
-1
-1
-1
-1
-1
-1
-1
-1
-1
-1
-1
-1
-1
-1
-1
-1
-1
-1
-1
-1
-1
-1
-1
-1
-1
-1
-1
-1
-1
-1
-1
-1
-1
-1
-1
-1
-1
-1
-1
-1
-1
-1
-1
-1
-1
-1
-1
-1
-1
-1
-1
-1
-1
-1
-1
-1
-1
-1
-1
-1
-1
-1
-1
-1
-1
-1
-1
-1
-1
-1
-1
-1
-1
-1
-1
-1
-1
-1
-1
-1
-1
-1
-1
-1
-1
-1
-1
-1
-1
-1
-1
-1
-1
-1
-1
-1
-1
-1
-1
-1
-1
-1
-1
-1
-1
-1
-1
-1
-1
-1
-1
-1
-1
-1
-1
-1
-1
-1
-1
-1
-1
-1
-1
-1
-1
VECTORS vectors float
-0.03125 0 0
-0.03125 0 0
-0.03125 0 0
-0.03125 0 0
-0.03125 0 0
-0.03125 0 0
-0.03125 0 0
-0.03125 0 0
-0.03125 0 0
-0.03125 0 0
-0.03125 0 0
-0.03125 0 0
-0.03125 0 0
-0.03125 0 0
-0.03125 0 0
-0.03125 0 0
-0.03125 0 0
-0.03125 0 0
-0.03125 0 0
-0.03125 0 0
-0.03125 0 0
-0.03125 0 0
-0.03125 0 0
-0.03125 0 0
-0.03125 0 0
-0.03125 0 0
-0.03125 0 0
-0.03125 0 0
-0.03125 0 0
-0.03125 0 0
-0.03125 0 0
-0.03125 0 0
-0.03125 0 0
-0.03125 0 0
-0.03125 0 0
-0.03125 0 0
-0.03125 0 0
-0.03125 0 0
-0.03125 0 0
-0.03125 0 0
-0.03125 0 0
-0.03125 0 0
-0.03125 0 0
-0.03125 0 0
-0.03125 0 0
-0.03125 0 0
-0.03125 0 0
-0.03125 0 0
-0.03125 0 0
-0.03125 0 0
-0.03125 0 0
-0.03125 0 0
-0.03125 0 0
-0.03125 0 0
-0.03125 0 0
-0.03125 0 0
-0.03125 0 0
-0.03125 0 0
-0.03125 0 0
-0.03125 0 0
-0.03125 0 0
-0.03125 0 0
-0.03125 0 0
-0.03125 0 0
-0.03125 0 0
-0.03125 0 0
-0.03125 0 0
-0.03125 0 0
-0.03125 0 0
-0.03125 0 0
-0.03125 0 0
-0.03125 0 0
-0.03125 0 0
-0.03125 0 0
-0.03125 0 0
-0.03125 0 0
-0.03125 0 0
-0.03125 0 0
-0.03125 0 0
-0.03125 0 0
-0.03125 0 0
-0.03125 0 0
-0.03125 0 0
-0.03125 0 0
-0.03125 0 0
-0.03125 0 0
-0.03125 0 0
-0.03125 0 0
-0.03125 0 0
-0.03125 0 0
-0.03125 0 0
-0.03125 0 0
-0.03125 0 0
-0.03125 0 0
-0.03125 0 0
-0.03125 0 0
-0.03125 0 0
-0.03125 0 0
-0.03125 0 0
-0.03125 0 0
-0.03125 0 0
-0.03125 0 0
-0.03125 0 0
-0.03125 0 0
-0.03125 0 0
-0.03125 0 0
-0.03125 0 0
-0.03125 0 0
-0.03125 0 0
-0.03125 0 0
-0.03125 0 0
-0.03125 0 0
-0.03125 0 0
-0.03125 0 0
-0.03125 0 0
-0.03125 0 0
-0.03125 0 0
-0.03125 0 0
-0.03125 0 0
-0.03125 0 0
-0.03125 0 0
-0.03125 0 0
-0.03125 0 0
-0.03125 0 0
-0.03125 0 0
-0.03125 0 0
-0.03125 0 0
-0.03125 0 0
-0.03125 0 0
-0.03125 0 0
-0.03125 0 0
-0.03125 0 0
-0.03125 0 0
-0.03125 0 0
-0.03125 0 0
-0.03125 0 0
-0.03125 0 0
-0.03125 0 0
-0.03125 0 0
-0.03125 0 0
-0.03125 0 0
-0.03125 0 0
-0.03125 0 0
-0.03125 0 0
-0.03125 0 0
-0.03125 0 0
-0.03125 0 0
-0.03125 0 0
-0.03125 0 0
-0.03125 0 0
-0.03125 0 0
-0.03125 0 0
-0.03125 0 0
-0.03125 0 0
-0.03125 0 0
-0.03125 0 0
-0.03125 0 0
-0.03125 0 0
-0.03125 0 0
-0.03125 0 0
-0.03125 0 0
-0.03125 0 0
-0.03125 0 0
-0.03125 0 0
-0.03125 0 0
-0.03125 0 0
-0.03125 0 0
-0.03125 0 0
-0.03125 0 0
-0.03125 0 0
-0.03125 0 0
-0.03125 0 0
-0.03125 0 0
-0.03125 0 0
-0.03125 0 0
-0.03125 0 0
-0.03125 0 0
-0.03125 0 0
-0.03125 0 0
-0.03125 0 0
-0.03125 0 0
-0.03125 0 0
-0.03125 0 0
-0.03125 0 0
-0.03125 0 0
-0.03125 0 0
-0.03125 0 0
-0.03125 0 0
-0.03125 0 0
-0.03125 0 0
-0.03125 0 0
-0.03125 0 0
-0.03125 0 0
-0.03125 0 0
-0.03125 0 0
-0.03125 0 0
-0.03125 0 0
-0.03125 0 0
-0.03125 0 0
-0.03125 0 0
-0.03125 0 0
-0.03125 0 0
-0.03125 0 0
-0.03125 0 0
