# vtk DataFile Version 1.0
Cube
ASCII

DATASET POLYDATA
POINTS 184 float
4.613454 10.300123 42.911238
3.361142 9.562335 43.420141
3.688696 8.239111 44.136652
4.662479 8.491495 45.302692
4.064609 9.149449 46.560169
-6.631045 17.350840 18.548817
-5.674984 16.897936 19.667935
-4.709090 18.020453 20.090552
-3.467629 17.410177 20.767264
-3.029579 16.111063 20.065827
18.728475 20.411417 30.287699
19.174748 18.950783 30.090241
18.516713 18.049807 31.151764
18.958733 16.582632 30.998092
18.431119 15.618576 32.076897
28.844199 23.586143 46.009598
28.691927 22.313953 46.863966
29.403235 21.164570 46.126023
30.925029 21.212880 45.894916
31.521646 21.411373 47.300707
-12.961029 30.246734 29.314594
-11.818115 30.502904 30.314457
-12.331545 30.924099 31.703911
-11.204948 30.676890 32.724337
-11.568027 30.977046 34.190516
38.488009 5.294024 -5.772882
38.536476 6.141188 -4.487749
37.273273 7.018599 -4.409861
35.916077 6.315345 -4.222636
34.783304 7.061927 -4.951363
38.488009 5.294024 50.961418
38.536476 6.141188 52.246551
37.273273 7.018599 52.324439
35.916077 6.315345 52.511664
34.783304 7.061927 51.782937
29.958135 7.579556 28.035876
28.445807 7.837596 27.902168
27.649711 6.689435 27.254435
26.148668 6.721096 27.597169
25.321896 5.620585 26.906571
17.644562 3.605240 20.261632
16.924528 4.316427 21.422393
17.886808 5.223310 22.211811
18.610712 6.347554 21.447849
19.148774 7.436822 22.394202
-22.012877 34.616149 27.999344
-23.166955 35.576027 28.343347
-24.541815 35.028620 27.917074
-25.700707 35.804140 28.570632
-27.085852 35.153379 28.398926
27.630523 34.616149 27.999344
26.476445 35.576027 28.343347
25.101585 35.028620 27.917074
23.942693 35.804140 28.570632
22.557548 35.153379 28.398926
34.311338 12.862335 0.151214
33.103345 13.790292 0.377597
31.780099 13.493293 -0.352069
31.179242 12.134311 0.052576
29.930235 11.713014 -0.743722
34.311338 12.862335 56.885514
33.103345 13.790292 57.111897
31.780099 13.493293 56.382231
31.179242 12.134311 56.786876
29.930235 11.713014 55.990578
-6.372510 10.401532 13.829670
-7.303392 11.060189 14.864672
-8.232461 11.715558 15.903383
-9.162318 12.372738 16.940244
-10.090224 13.026886 17.980763
-11.019544 13.682098 19.019350
-11.944975 14.332609 20.064344
43.270890 10.401532 13.829670
42.340008 11.060189 14.864672
41.410939 11.715558 15.903383
40.481082 12.372738 16.940244
39.553176 13.026886 17.980763
38.623856 13.682098 19.019350
37.698425 14.332609 20.064344
23.014145 8.111915 6.426926
22.367011 9.125301 7.389144
21.720088 10.135122 8.355247
21.072348 11.148667 9.316890
20.425004 12.160059 10.281065
19.776939 13.172930 11.243200
19.130615 14.186901 12.205348
8.419876 23.507303 30.728031
8.275391 23.661207 29.202568
8.133826 23.810494 27.676372
7.997145 23.960819 26.149833
7.854756 24.111191 24.623821
7.715346 24.263277 23.097703
7.575680 24.417393 21.571813
-0.585559 21.641329 17.343781
0.199954 21.492204 16.027600
0.989197 21.339957 14.714011
1.777600 21.184538 13.400289
2.566234 21.031127 12.086470
3.354065 20.871631 10.772894
4.142428 20.714124 9.459396
22.916253 0.937913 31.203690
21.752307 1.581827 30.427671
20.587829 2.228215 29.654513
19.423679 2.873819 28.880206
18.257261 3.522119 28.111587
17.091302 4.169960 27.341885
15.923931 4.819343 26.575630
-1.905447 43.930359 31.203690
-3.069393 44.574272 30.427671
-4.233871 45.220660 29.654513
-5.398021 45.866264 28.880206
-6.564439 46.514564 28.111587
-7.730398 47.162405 27.341885
-8.897769 47.811788 26.575630
11.855486 22.553365 27.167032
13.108020 23.340769 27.594530
14.358808 24.131442 28.021103
15.610213 24.920745 28.448405
16.861495 25.710394 28.875425
18.112941 26.499288 29.303362
19.363678 27.291002 29.728151
5.753708 32.930062 0.156360
5.860923 31.395051 0.094354
5.972253 29.860285 0.033534
6.082140 28.325448 -0.028125
6.198434 26.791062 -0.089225
6.313708 25.256623 -0.150955
6.433117 23.722418 -0.210576
5.753708 32.930062 56.890660
5.860923 31.395051 56.828654
5.972253 29.860285 56.767834
6.082140 28.325448 56.706175
6.198434 26.791062 56.645075
6.313708 25.256623 56.583345
6.433117 23.722418 56.523724
15.435123 17.641325 28.834962
13.921491 17.583112 28.557239
12.407833 17.533911 28.277923
10.894058 17.482413 27.999654
9.379722 17.431340 27.724374
7.865089 17.376455 27.451475
6.350784 17.322984 27.176480
27.705880 0.792519 -3.862335
26.400441 0.651553 -3.057627
25.090203 0.515782 -2.259852
23.781733 0.377509 -1.459611
22.471195 0.241745 -0.662330
21.164601 0.106368 0.141465
19.858421 -0.026724 0.946312
27.705880 0.792519 52.871965
26.400441 0.651553 53.676673
25.090203 0.515782 54.474448
23.781733 0.377509 55.274689
22.471195 0.241745 56.071970
21.164601 0.106368 56.875765
19.858421 -0.026724 57.680612
2.884180 43.784964 -3.862335
1.578741 43.643998 -3.057627
0.268503 43.508227 -2.259852
-1.039967 43.369955 -1.459611
-2.350505 43.234190 -0.662330
-3.657099 43.098813 0.141465
-4.963279 42.965722 0.946312
2.884180 43.784964 52.871965
1.578741 43.643998 53.676673
0.268503 43.508227 54.474448
-1.039967 43.369955 55.274689
-2.350505 43.234190 56.071970
-3.657099 43.098813 56.875765
-4.963279 42.965722 57.680612
-17.357708 39.429583 8.264380
-18.222542 38.434309 9.060052
-19.085734 37.439344 9.857889
-19.948310 36.445425 10.657693
-20.810958 35.449504 11.454925
-21.673992 34.453454 12.251578
-22.533326 33.457637 13.052512
32.285692 39.429583 8.264380
31.420858 38.434309 9.060052
30.557666 37.439344 9.857889
29.695090 36.445425 10.657693
28.832442 35.449504 11.454925
27.969408 34.453454 12.251578
27.110074 33.457637 13.052512
LINES 154 462
2 0 1
2 1 2
2 2 3
2 3 4
2 5 6
2 6 7
2 7 8
2 8 9
2 10 11
2 11 12
2 12 13
2 13 14
2 15 16
2 16 17
2 17 18
2 18 19
2 20 21
2 21 22
2 22 23
2 23 24
2 25 26
2 26 27
2 27 28
2 28 29
2 30 31
2 31 32
2 32 33
2 33 34
2 35 36
2 36 37
2 37 38
2 38 39
2 40 41
2 41 42
2 42 43
2 43 44
2 45 46
2 46 47
2 47 48
2 48 49
2 50 51
2 51 52
2 52 53
2 53 54
2 55 56
2 56 57
2 57 58
2 58 59
2 60 61
2 61 62
2 62 63
2 63 64
2 65 66
2 66 67
2 67 68
2 68 69
2 69 70
2 70 71
2 72 73
2 73 74
2 74 75
2 75 76
2 76 77
2 77 78
2 79 80
2 80 81
2 81 82
2 82 83
2 83 84
2 84 85
2 86 87
2 87 88
2 88 89
2 89 90
2 90 91
2 91 92
2 93 94
2 94 95
2 95 96
2 96 97
2 97 98
2 98 99
2 100 101
2 101 102
2 102 103
2 103 104
2 104 105
2 105 106
2 107 108
2 108 109
2 109 110
2 110 111
2 111 112
2 112 113
2 114 115
2 115 116
2 116 117
2 117 118
2 118 119
2 119 120
2 121 122
2 122 123
2 123 124
2 124 125
2 125 126
2 126 127
2 128 129
2 129 130
2 130 131
2 131 132
2 132 133
2 133 134
2 135 136
2 136 137
2 137 138
2 138 139
2 139 140
2 140 141
2 142 143
2 143 144
2 144 145
2 145 146
2 146 147
2 147 148
2 149 150
2 150 151
2 151 152
2 152 153
2 153 154
2 154 155
2 156 157
2 157 158
2 158 159
2 159 160
2 160 161
2 161 162
2 163 164
2 164 165
2 165 166
2 166 167
2 167 168
2 168 169
2 170 171
2 171 172
2 172 173
2 173 174
2 174 175
2 175 176
2 177 178
2 178 179
2 179 180
2 180 181
2 181 182
2 182 183
POINT_DATA 184
SCALARS my_scalars float
LOOKUP_TABLE default
-1
-1
-1
-1
-1
-1
-1
-1
-1
-1
-1
-1
-1
-1
-1
-1
-1
-1
-1
-1
-1
-1
-1
-1
-1
-1
-1
-1
-1
-1
-1
-1
-1
-1
-1
-1
-1
-1
-1
-1
-1
-1
-1
-1
-1
-1
-1
-1
-1
-1
-1
-1
-1
-1
-1
-1
-1
-1
-1
-1
-1
-1
-1
-1
-1
-1
-1
-1
-1
-1
-1
-1
-1
-1
-1
-1
-1
-1
-1
-1
-1
-1
-1
-1
-1
-1
-1
-1
-1
-1
-1
-1
-1
-1
-1
-1
-1
-1
-1
-1
-1
-1
-1
-1
-1
-1
-1
-1
-1
-1
-1
-1
-1
-1
-1
-1
-1
-1
-1
-1
-1
-1
-1
-1
-1
-1
-1
-1
-1
-1
-1
-1
-1
-1
-1
-1
-1
-1
-1
-1
-1
-1
-1
-1
-1
-1
-1
-1
-1
-1
-1
-1
-1
-1
-1
-1
-1
-1
-1
-1
-1
-1
-1
-1
-1
-1
-1
-1
-1
-1
-1
-1
-1
-1
-1
-1
-1
-1
-1
-1
-1
-1
-1
-1
VECTORS vectors float
-0.03125 0 0
-0.03125 0 0
-0.03125 0 0
-0.03125 0 0
-0.03125 0 0
-0.03125 0 0
-0.03125 0 0
-0.03125 0 0
-0.03125 0 0
-0.03125 0 0
-0.03125 0 0
-0.03125 0 0
-0.03125 0 0
-0.03125 0 0
-0.03125 0 0
-0.03125 0 0
-0.03125 0 0
-0.03125 0 0
-0.03125 0 0
-0.03125 0 0
-0.03125 0 0
-0.03125 0 0
-0.03125 0 0
-0.03125 0 0
-0.03125 0 0
-0.03125 0 0
-0.03125 0 0
-0.03125 0 0
-0.03125 0 0
-0.03125 0 0
-0.03125 0 0
-0.03125 0 0
-0.03125 0 0
-0.03125 0 0
-0.03125 0 0
-0.03125 0 0
-0.03125 0 0
-0.03125 0 0
-0.03125 0 0
-0.03125 0 0
-0.03125 0 0
-0.03125 0 0
-0.03125 0 0
-0.03125 0 0
-0.03125 0 0
-0.03125 0 0
-0.03125 0 0
-0.03125 0 0
-0.03125 0 0
-0.03125 0 0
-0.03125 0 0
-0.03125 0 0
-0.03125 0 0
-0.03125 0 0
-0.03125 0 0
-0.03125 0 0
-0.03125 0 0
-0.03125 0 0
-0.03125 0 0
-0.03125 0 0
-0.03125 0 0
-0.03125 0 0
-0.03125 0 0
-0.03125 0 0
-0.03125 0 0
-0.03125 0 0
-0.03125 0 0
-0.03125 0 0
-0.03125 0 0
-0.03125 0 0
-0.03125 0 0
-0.03125 0 0
-0.03125 0 0
-0.03125 0 0
-0.03125 0 0
-0.03125 0 0
-0.03125 0 0
-0.03125 0 0
-0.03125 0 0
-0.03125 0 0
-0.03125 0 0
-0.03125 0 0
-0.03125 0 0
-0.03125 0 0
-0.03125 0 0
-0.03125 0 0
-0.03125 0 0
-0.03125 0 0
-0.03125 0 0
-0.03125 0 0
-0.03125 0 0
-0.03125 0 0
-0.03125 0 0
-0.03125 0 0
-0.03125 0 0
-0.03125 0 0
-0.03125 0 0
-0.03125 0 0
-0.03125 0 0
-0.03125 0 0
-0.03125 0 0
-0.03125 0 0
-0.03125 0 0
-0.03125 0 0
-0.03125 0 0
-0.03125 0 0
-0.03125 0 0
-0.03125 0 0
-0.03125 0 0
-0.03125 0 0
-0.03125 0 0
-0.03125 0 0
-0.03125 0 0
-0.03125 0 0
-0.03125 0 0
-0.03125 0 0
-0.03125 0 0
-0.03125 0 0
-0.03125 0 0
-0.03125 0 0
-0.03125 0 0
-0.03125 0 0
-0.03125 0 0
-0.03125 0 0
-0.03125 0 0
-0.03125 0 0
-0.03125 0 0
-0.03125 0 0
-0.03125 0 0
-0.03125 0 0
-0.03125 0 0
-0.03125 0 0
-0.03125 0 0
-0.03125 0 0
-0.03125 0 0
-0.03125 0 0
-0.03125 0 0
-0.03125 0 0
-0.03125 0 0
-0.03125 0 0
-0.03125 0 0
-0.03125 0 0
-0.03125 0 0
-0.03125 0 0
-0.03125 0 0
-0.03125 0 0
-0.03125 0 0
-0.03125 0 0
-0.03125 0 0
-0.03125 0 0
-0.03125 0 0
-0.03125 0 0
-0.03125 0 0
-0.03125 0 0
-0.03125 0 0
-0.03125 0 0
-0.03125 0 0
-0.03125 0 0
-0.03125 0 0
-0.03125 0 0
-0.03125 0 0
-0.03125 0 0
-0.03125 0 0
-0.03125 0 0
-0.03125 0 0
-0.03125 0 0
-0.03125 0 0
-0.03125 0 0
-0.03125 0 0
-0.03125 0 0
-0.03125 0 0
-0.03125 0 0
-0.03125 0 0
-0.03125 0 0
-0.03125 0 0
-0.03125 0 0
-0.03125 0 0
-0.03125 0 0
-0.03125 0 0
-0.03125 0 0
-0.03125 0 0
-0.03125 0 0
-0.03125 0 0
-0.03125 0 0
