# vtk DataFile Version 1.0
Cube
ASCII

DATASET POLYDATA
POINTS 510 float
13.727705 3.967984 4.145556
14.796572 2.860747 4.201678
16.194449 3.407530 4.546014
-0.727506 4.603688 25.665552
0.134184 4.996099 24.451014
1.609132 4.582001 24.608020
29.272494 4.603688 25.665552
30.134184 4.996099 24.451014
31.609132 4.582001 24.608020
24.954016 24.025256 9.902747
26.064200 24.260924 10.943685
27.477301 24.105053 10.351697
2.415448 10.994759 9.855798
3.866286 11.042403 10.369994
4.337974 9.587947 10.553477
16.897336 4.994705 10.289982
17.711876 5.347852 11.548319
17.015571 4.932905 12.857738
13.773456 17.503809 0.047140
12.956370 18.648808 0.673995
12.576457 18.631406 2.166296
13.773456 17.503809 30.047140
12.956370 18.648808 30.673995
12.576457 18.631406 32.166296
5.578290 17.367879 5.809139
5.998060 16.270687 6.804911
6.538047 14.949924 6.225602
4.724464 7.629421 22.548818
3.870687 8.652983 23.320171
3.693003 8.057305 24.729141
7.113512 4.221817 -2.304344
6.329427 2.990396 -1.814024
5.594550 2.092894 -2.826963
7.113512 4.221817 27.695656
6.329427 2.990396 28.185976
5.594550 2.092894 27.173037
13.843775 24.041537 9.922842
14.441345 24.403197 11.295326
13.953985 23.396738 12.354156
15.725828 15.218403 11.842306
15.722647 14.936684 10.328296
14.474391 15.419033 9.566196
4.347131 14.641010 2.783653
5.285377 13.421169 2.726351
6.795586 13.711271 2.644440
4.347131 14.641010 32.783653
5.285377 13.421169 32.726351
6.795586 13.711271 32.644440
11.405640 7.370535 7.227899
11.688992 6.714707 8.592158
10.746597 7.099085 9.747902
12.891567 19.406025 12.353191
12.090405 18.789606 11.191397
11.809196 17.279665 11.303639
20.130395 17.966847 5.657157
18.726766 18.597777 5.715066
17.632213 17.588667 5.321047
9.986103 5.482836 21.511135
8.879924 6.544812 21.369104
9.413811 7.982313 21.227125
1.380827 18.414730 14.726408
0.807239 17.923753 16.068622
1.447334 16.742039 16.820573
31.380827 18.414730 14.726408
30.807239 17.923753 16.068622
31.447334 16.742039 16.820573
8.658475 10.662443 8.645355
10.086159 10.670301 9.222639
10.060365 11.275007 10.638713
-0.393693 21.268662 19.242602
-1.618970 21.193324 20.172452
-2.144659 19.746499 20.216585
29.606307 21.268662 19.242602
28.381030 21.193324 20.172452
27.855341 19.746499 20.216585
-1.668663 15.354758 27.912703
-2.410617 15.981381 26.717526
-3.187577 15.014235 25.805078
28.331337 15.354758 27.912703
27.589383 15.981381 26.717526
26.812423 15.014235 25.805078
9.528573 7.580259 15.485165
10.779105 8.136794 16.190882
10.265520 9.001993 17.356756
21.367551 9.625052 19.351881
22.724667 9.018370 19.754092
22.647409 7.480449 19.774866
13.361213 2.944780 11.288259
13.077728 3.866244 12.489151
12.415601 5.189638 12.062752
23.329344 5.135421 17.060268
23.645319 5.440712 15.584275
25.145776 5.504006 15.243359
23.536091 -1.841257 23.374490
24.556480 -0.691004 23.460062
25.966096 -1.192737 23.824546
23.536091 28.158743 23.374490
24.556480 29.308996 23.460062
25.966096 28.807263 23.824546
23.342235 22.615272 20.735329
22.988031 23.510475 21.937307
23.227069 22.981487 23.363712
13.713374 3.874982 23.301537
14.224802 2.561829 22.680512
15.738800 2.309097 22.555870
13.713374 33.874982 23.301537
14.224802 32.561829 22.680512
15.738800 32.309097 22.555870
0.826392 -0.482467 23.093202
0.841756 0.515028 21.920015
2.186362 0.794078 21.223046
0.826392 29.517533 23.093202
0.841756 30.515028 21.920015
2.186362 30.794078 21.223046
30.826392 -0.482467 23.093202
30.841756 0.515028 21.920015
32.186362 0.794078 21.223046
30.826392 29.517533 23.093202
30.841756 30.515028 21.920015
32.186362 30.794078 21.223046
13.274909 3.075353 17.949612
12.356165 2.089306 17.204481
10.883581 2.504049 17.028170
13.274909 33.075353 17.949612
12.356165 32.089306 17.204481
10.883581 32.504049 17.028170
20.107714 26.703070 24.922559
20.070658 25.361628 24.167073
18.951111 24.485856 24.759726
25.461695 24.804898 15.725440
26.629879 24.034967 15.081894
27.835750 24.055263 16.039529
25.166244 25.807793 5.325314
25.884830 25.827477 6.687241
26.610050 27.161260 6.945465
20.030411 3.112805 0.581858
20.611135 2.532828 -0.721211
19.726144 1.487450 -1.425182
20.030411 3.112805 30.581858
20.611135 2.532828 29.278789
19.726144 1.487450 28.574818
20.030411 33.112805 0.581858
20.611135 32.532828 -0.721211
19.726144 31.487450 -1.425182
20.030411 33.112805 30.581858
20.611135 32.532828 29.278789
19.726144 31.487450 28.574818
13.971603 9.956293 23.091299
12.793757 10.784903 22.545697
11.684656 11.056474 23.579014
10.086177 17.921665 25.826810
11.584103 18.038153 26.164817
12.518134 17.835638 24.957269
19.807463 4.393464 18.687341
18.684301 3.339887 18.696430
18.989222 2.012816 19.415809
13.455563 25.453369 23.223157
14.345965 25.618295 24.468782
13.647035 25.421614 25.826874
8.160362 16.272105 9.670629
8.648942 15.314685 10.773460
7.675556 14.127894 10.898542
24.529932 4.728339 22.652986
24.534554 3.204599 22.429839
25.166579 2.820258 21.079125
10.272451 18.742973 6.573408
10.587945 20.234956 6.358816
12.123701 20.272496 6.250916
16.374706 -2.753168 -1.863135
16.026762 -1.551272 -0.965370
14.812080 -1.736315 -0.036981
16.374706 -2.753168 28.136865
16.026762 -1.551272 29.034630
14.812080 -1.736315 29.963019
16.374706 27.246832 -1.863135
16.026762 28.448728 -0.965370
14.812080 28.263685 -0.036981
16.374706 27.246832 28.136865
16.026762 28.448728 29.034630
14.812080 28.263685 29.963019
0.150671 27.358478 18.801843
0.669746 26.519334 17.619473
2.157809 26.123443 17.642694
30.150671 27.358478 18.801843
30.669746 26.519334 17.619473
32.157809 26.123443 17.642694
-0.787721 22.506628 5.888348
0.264179 23.629248 5.957845
0.110210 24.753630 4.916855
29.212279 22.506628 5.888348
30.264179 23.629248 5.957845
30.110210 24.753630 4.916855
3.540435 7.301102 14.098764
2.984421 8.693595 14.450062
1.545059 8.716218 14.997169
33.540435 7.301102 14.098764
32.984421 8.693595 14.450062
31.545059 8.716218 14.997169
0.011433 9.078786 26.859138
-0.469351 10.370507 26.172186
-1.708097 11.067782 26.764569
30.011433 9.078786 26.859138
29.530649 10.370507 26.172186
28.291903 11.067782 26.764569
18.418680 24.850969 -0.156898
18.939441 23.403619 -0.082163
17.903486 22.418141 0.489877
18.418680 24.850969 29.843102
18.939441 23.403619 29.917837
17.903486 22.418141 30.489877
20.266564 4.025309 5.945424
21.446726 4.938976 5.565912
20.987710 6.126681 4.699736
5.451540 -1.045732 1.214445
4.438537 -0.066294 0.593055
4.028229 1.100994 1.509944
5.451540 -1.045732 31.214445
4.438537 -0.066294 30.593055
4.028229 1.100994 31.509944
5.451540 28.954268 1.214445
4.438537 29.933706 0.593055
4.028229 31.100994 1.509944
5.451540 28.954268 31.214445
4.438537 29.933706 30.593055
4.028229 31.100994 31.509944
9.534793 24.973238 5.133955
8.765293 24.210355 4.039660
9.643759 23.611706 2.925426
9.605613 25.109833 17.189591
8.574506 25.346830 16.070551
7.663917 26.573621 16.263973
11.387998 8.391664 2.875506
12.868273 8.075688 3.159308
13.643867 7.495072 1.962253
11.387998 8.391664 32.875506
12.868273 8.075688 33.159308
13.643867 7.495072 31.962253
9.090502 25.780925 8.844769
9.995221 25.921327 10.083062
10.378899 27.383011 10.379491
4.160237 10.139415 3.286165
2.733274 10.665247 3.043521
2.144164 10.102956 1.736472
4.160237 10.139415 33.286165
2.733274 10.665247 33.043521
2.144164 10.102956 31.736472
34.160237 10.139415 3.286165
32.733274 10.665247 3.043521
32.144164 10.102956 1.736472
34.160237 10.139415 33.286165
32.733274 10.665247 33.043521
32.144164 10.102956 31.736472
21.889249 12.300260 21.462795
22.425220 12.451535 22.898571
23.752372 11.741913 23.225225
10.247363 3.274790 -0.130389
9.653908 2.692518 1.165902
8.586728 3.521368 1.904640
10.247363 3.274790 29.869611
9.653908 2.692518 31.165902
8.586728 3.521368 31.904640
21.357799 27.841711 -2.188393
22.708453 27.168407 -1.881803
22.562669 25.636892 -1.812470
21.357799 27.841711 27.811607
22.708453 27.168407 28.118197
22.562669 25.636892 28.187530
0.386388 23.051836 23.610354
0.079358 22.181599 24.843245
-1.350306 21.614819 24.763122
30.386388 23.051836 23.610354
30.079358 22.181599 24.843245
28.649694 21.614819 24.763122
22.679764 -2.958721 18.802837
21.831788 -1.761086 18.335709
20.626133 -1.585029 19.277516
22.679764 27.041279 18.802837
21.831788 28.238914 18.335709
20.626133 28.414971 19.277516
3.931372 13.854700 19.539545
5.170576 13.374056 18.761756
5.164564 13.608433 17.239708
17.134239 -1.114829 19.998250
15.763323 -0.885236 20.661180
14.525336 -0.626628 19.782482
17.134239 28.885171 19.998250
15.763323 29.114764 20.661180
14.525336 29.373372 19.782482
19.484674 21.261186 17.016950
19.487387 22.761574 17.363980
18.469915 23.235497 18.418374
-1.673734 10.405232 0.577630
-2.928138 9.513446 0.524846
-2.690792 7.998458 0.666547
-1.673734 10.405232 30.577630
-2.928138 9.513446 30.524846
-2.690792 7.998458 30.666547
28.326266 10.405232 0.577630
27.071862 9.513446 0.524846
27.309208 7.998458 0.666547
28.326266 10.405232 30.577630
27.071862 9.513446 30.524846
27.309208 7.998458 30.666547
0.455419 27.618362 -1.241820
0.878235 26.605798 -0.161291
1.461184 25.290925 -0.711635
0.455419 27.618362 28.758180
0.878235 26.605798 29.838709
1.461184 25.290925 29.288365
30.455419 27.618362 -1.241820
30.878235 26.605798 -0.161291
31.461184 25.290925 -0.711635
30.455419 27.618362 28.758180
30.878235 26.605798 29.838709
31.461184 25.290925 29.288365
2.334599 14.698434 5.799080
2.613655 15.049218 7.272403
3.362795 13.981604 8.091298
32.334599 14.698434 5.799080
32.613655 15.049218 7.272403
33.362795 13.981604 8.091298
13.019637 1.950509 26.423661
12.655649 0.708167 27.257747
11.178653 0.287866 27.141863
13.019637 31.950509 26.423661
12.655649 30.708167 27.257747
11.178653 30.287866 27.141863
20.248629 25.049938 9.807937
19.242467 24.277950 8.934282
17.805326 24.300472 9.487199
9.362447 1.521998 21.113421
8.273610 1.924120 22.125514
7.874393 0.998859 23.290039
9.362447 31.521998 21.113421
8.273610 31.924120 22.125514
7.874393 30.998859 23.290039
3.107052 26.799209 21.382258
3.718172 27.282716 22.710548
4.260668 26.318666 23.781951
25.208291 19.136799 16.768108
24.150931 18.732833 15.723886
24.429998 19.506581 14.421951
6.500720 20.245996 -0.758145
7.991602 20.031523 -0.437406
8.215031 19.519110 0.997554
6.500720 20.245996 29.241855
7.991602 20.031523 29.562594
8.215031 19.519110 30.997554
22.899912 20.810695 -1.519790
22.111611 19.530170 -1.187468
22.680392 18.176084 -1.650652
22.899912 20.810695 28.480210
22.111611 19.530170 28.812532
22.680392 18.176084 28.349348
3.933888 10.726111 -1.430663
4.533659 9.309371 -1.499389
5.520681 8.762460 -0.451402
3.933888 10.726111 28.569337
4.533659 9.309371 28.500611
5.520681 8.762460 29.548598
24.560791 8.697631 25.391783
25.810032 7.907029 24.960567
26.495416 7.146667 26.111088
23.403070 6.228486 10.080154
22.227256 5.846887 10.998546
22.506422 4.673502 11.956061
0.890492 15.911056 11.343032
-0.193049 14.933860 11.835603
-0.860327 14.168780 10.677591
30.890492 15.911056 11.343032
29.806951 14.933860 11.835603
29.139673 14.168780 10.677591
22.111971 21.430248 9.114755
21.640025 20.552176 10.288577
21.419745 21.465701 11.508637
13.792773 9.734118 15.551360
13.682023 9.367572 14.059724
14.228657 7.957796 13.767624
13.852192 24.766986 -0.002351
12.863172 23.906298 0.805521
13.028962 24.103507 2.323817
13.852192 24.766986 29.997649
12.863172 23.906298 30.805521
13.028962 24.103507 32.323817
20.874279 13.032595 8.134013
22.141678 13.698055 8.701872
22.513847 13.212124 10.115011
-3.313904 11.711683 9.061987
-2.631684 10.417648 8.580685
-1.172827 10.406116 8.087529
26.686096 11.711683 9.061987
27.368316 10.417648 8.580685
28.827173 10.406116 8.087529
2.475484 12.725413 14.471223
0.990206 12.353264 14.635707
0.545284 12.003100 16.067849
32.475484 12.725413 14.471223
30.990206 12.353264 14.635707
30.545284 12.003100 16.067849
16.977143 -2.349441 7.238160
16.090930 -2.072248 8.466732
16.869756 -1.987441 9.792567
16.977143 27.650559 7.238160
16.090930 27.927752 8.466732
16.869756 28.012559 9.792567
26.991710 0.910677 18.272625
27.254858 -0.245161 17.289573
26.041863 -1.144712 16.987825
26.991710 30.910677 18.272625
27.254858 29.754839 17.289573
26.041863 28.855288 16.987825
12.676807 6.673189 -2.445249
13.600443 5.442840 -2.376421
13.957821 4.898192 -0.980985
12.676807 6.673189 27.554751
13.600443 5.442840 27.623579
13.957821 4.898192 29.019015
0.119888 3.163126 17.166668
-0.226611 2.783929 15.714859
0.566506 3.659019 14.726536
30.119888 3.163126 17.166668
29.773389 2.783929 15.714859
30.566506 3.659019 14.726536
6.042470 -0.052867 17.342286
4.584555 -0.255865 17.794918
3.449487 -0.260143 16.754147
6.042470 29.947133 17.342286
4.584555 29.744135 17.794918
3.449487 29.739857 16.754147
17.889103 0.723168 15.517146
16.390796 1.078139 15.491182
15.662195 0.962077 14.139416
17.889103 30.723168 15.517146
16.390796 31.078139 15.491182
15.662195 30.962077 14.139416
-2.507990 0.122919 12.618506
-3.158071 1.033510 13.676721
-3.068296 2.556061 13.463698
-2.507990 30.122919 12.618506
-3.158071 31.033510 13.676721
-3.068296 32.556061 13.463698
27.492010 0.122919 12.618506
26.841929 1.033510 13.676721
26.931704 2.556061 13.463698
27.492010 30.122919 12.618506
26.841929 31.033510 13.676721
26.931704 32.556061 13.463698
2.246256 22.066940 9.838636
1.431835 21.023670 10.625977
2.229501 19.707461 10.680024
32.246256 22.066940 9.838636
31.431835 21.023670 10.625977
32.229501 19.707461 10.680024
11.102513 -1.515602 2.063121
10.923624 -1.255428 0.555836
9.524983 -1.608446 0.016595
11.102513 -1.515602 32.063121
10.923624 -1.255428 30.555836
9.524983 -1.608446 30.016595
11.102513 28.484398 2.063121
10.923624 28.744572 0.555836
9.524983 28.391554 0.016595
11.102513 28.484398 32.063121
10.923624 28.744572 30.555836
9.524983 28.391554 30.016595
8.086175 13.612078 23.246244
6.761232 12.863410 23.482087
6.510093 11.899510 24.656576
2.369569 13.305246 24.882326
3.502732 14.172261 25.461830
3.361754 15.691031 25.674111
25.070568 12.303427 -2.107431
25.053987 12.980467 -0.724339
24.169204 14.240899 -0.715938
25.070568 12.303427 27.892569
25.053987 12.980467 29.275661
24.169204 14.240899 29.284062
5.786141 18.202307 13.100384
4.917999 17.368377 12.139920
4.680220 15.888011 12.491454
23.824458 19.590356 3.451247
24.056862 21.014682 2.913768
24.538213 22.004582 3.990800
20.694653 0.625059 9.137889
20.843271 -0.734468 9.845844
21.291673 -0.484281 11.297720
20.694653 30.625059 9.137889
20.843271 29.265532 9.845844
21.291673 29.515719 11.297720
26.454900 23.144452 -2.079243
25.665456 24.369702 -1.582110
25.859254 24.591622 -0.070557
26.454900 23.144452 27.920757
25.665456 24.369702 28.417890
25.859254 24.591622 29.929443
-1.656214 6.063896 11.690975
-2.898622 6.020208 10.782067
-3.123173 4.618727 10.184547
28.343786 6.063896 11.690975
27.101378 6.020208 10.782067
26.876827 4.618727 10.184547
9.374182 2.531641 11.262128
8.608596 1.565198 12.184876
9.330570 0.287098 12.650509
9.374182 32.531641 11.262128
8.608596 31.565198 12.184876
9.330570 30.287098 12.650509
8.098124 26.728565 21.931803
8.926442 25.810561 21.013785
9.160703 24.356745 21.464496
LINES 340 1020
2 0 1
2 1 2
2 3 4
2 4 5
2 6 7
2 7 8
2 9 10
2 10 11
2 12 13
2 13 14
2 15 16
2 16 17
2 18 19
2 19 20
2 21 22
2 22 23
2 24 25
2 25 26
2 27 28
2 28 29
2 30 31
2 31 32
2 33 34
2 34 35
2 36 37
2 37 38
2 39 40
2 40 41
2 42 43
2 43 44
2 45 46
2 46 47
2 48 49
2 49 50
2 51 52
2 52 53
2 54 55
2 55 56
2 57 58
2 58 59
2 60 61
2 61 62
2 63 64
2 64 65
2 66 67
2 67 68
2 69 70
2 70 71
2 72 73
2 73 74
2 75 76
2 76 77
2 78 79
2 79 80
2 81 82
2 82 83
2 84 85
2 85 86
2 87 88
2 88 89
2 90 91
2 91 92
2 93 94
2 94 95
2 96 97
2 97 98
2 99 100
2 100 101
2 102 103
2 103 104
2 105 106
2 106 107
2 108 109
2 109 110
2 111 112
2 112 113
2 114 115
2 115 116
2 117 118
2 118 119
2 120 121
2 121 122
2 123 124
2 124 125
2 126 127
2 127 128
2 129 130
2 130 131
2 132 133
2 133 134
2 135 136
2 136 137
2 138 139
2 139 140
2 141 142
2 142 143
2 144 145
2 145 146
2 147 148
2 148 149
2 150 151
2 151 152
2 153 154
2 154 155
2 156 157
2 157 158
2 159 160
2 160 161
2 162 163
2 163 164
2 165 166
2 166 167
2 168 169
2 169 170
2 171 172
2 172 173
2 174 175
2 175 176
2 177 178
2 178 179
2 180 181
2 181 182
2 183 184
2 184 185
2 186 187
2 187 188
2 189 190
2 190 191
2 192 193
2 193 194
2 195 196
2 196 197
2 198 199
2 199 200
2 201 202
2 202 203
2 204 205
2 205 206
2 207 208
2 208 209
2 210 211
2 211 212
2 213 214
2 214 215
2 216 217
2 217 218
2 219 220
2 220 221
2 222 223
2 223 224
2 225 226
2 226 227
2 228 229
2 229 230
2 231 232
2 232 233
2 234 235
2 235 236
2 237 238
2 238 239
2 240 241
2 241 242
2 243 244
2 244 245
2 246 247
2 247 248
2 249 250
2 250 251
2 252 253
2 253 254
2 255 256
2 256 257
2 258 259
2 259 260
2 261 262
2 262 263
2 264 265
2 265 266
2 267 268
2 268 269
2 270 271
2 271 272
2 273 274
2 274 275
2 276 277
2 277 278
2 279 280
2 280 281
2 282 283
2 283 284
2 285 286
2 286 287
2 288 289
2 289 290
2 291 292
2 292 293
2 294 295
2 295 296
2 297 298
2 298 299
2 300 301
2 301 302
2 303 304
2 304 305
2 306 307
2 307 308
2 309 310
2 310 311
2 312 313
2 313 314
2 315 316
2 316 317
2 318 319
2 319 320
2 321 322
2 322 323
2 324 325
2 325 326
2 327 328
2 328 329
2 330 331
2 331 332
2 333 334
2 334 335
2 336 337
2 337 338
2 339 340
2 340 341
2 342 343
2 343 344
2 345 346
2 346 347
2 348 349
2 349 350
2 351 352
2 352 353
2 354 355
2 355 356
2 357 358
2 358 359
2 360 361
2 361 362
2 363 364
2 364 365
2 366 367
2 367 368
2 369 370
2 370 371
2 372 373
2 373 374
2 375 376
2 376 377
2 378 379
2 379 380
2 381 382
2 382 383
2 384 385
2 385 386
2 387 388
2 388 389
2 390 391
2 391 392
2 393 394
2 394 395
2 396 397
2 397 398
2 399 400
2 400 401
2 402 403
2 403 404
2 405 406
2 406 407
2 408 409
2 409 410
2 411 412
2 412 413
2 414 415
2 415 416
2 417 418
2 418 419
2 420 421
2 421 422
2 423 424
2 424 425
2 426 427
2 427 428
2 429 430
2 430 431
2 432 433
2 433 434
2 435 436
2 436 437
2 438 439
2 439 440
2 441 442
2 442 443
2 444 445
2 445 446
2 447 448
2 448 449
2 450 451
2 451 452
2 453 454
2 454 455
2 456 457
2 457 458
2 459 460
2 460 461
2 462 463
2 463 464
2 465 466
2 466 467
2 468 469
2 469 470
2 471 472
2 472 473
2 474 475
2 475 476
2 477 478
2 478 479
2 480 481
2 481 482
2 483 484
2 484 485
2 486 487
2 487 488
2 489 490
2 490 491
2 492 493
2 493 494
2 495 496
2 496 497
2 498 499
2 499 500
2 501 502
2 502 503
2 504 505
2 505 506
2 507 508
2 508 509
POINT_DATA 510
SCALARS my_scalars float
LOOKUP_TABLE default
-1
-1
-1
-1
-1
-1
-1
-1
-1
-1
-1
-1
-1
-1
-1
-1
-1
-1
-1
-1
-1
-1
-1
-1
-1
-1
-1
-1
-1
-1
-1
-1
-1
-1
-1
-1
-1
-1
-1
-1
-1
-1
-1
-1
-1
-1
-1
-1
-1
-1
-1
-1
-1
-1
-1
-1
-1
-1
-1
-1
-1
-1
-1
-1
-1
-1
-1
-1
-1
-1
-1
-1
-1
-1
-1
-1
-1
-1
-1
-1
-1
-1
-1
-1
-1
-1
-1
-1
-1
-1
-1
-1
-1
-1
-1
-1
-1
-1
-1
-1
-1
-1
-1
-1
-1
-1
-1
-1
-1
-1
-1
-1
-1
-1
-1
-1
-1
-1
-1
-1
-1
-1
-1
-1
-1
-1
-1
-1
-1
-1
-1
-1
-1
-1
-1
-1
-1
-1
-1
-1
-1
-1
-1
-1
-1
-1
-1
-1
-1
-1
-1
-1
-1
-1
-1
-1
-1
-1
-1
-1
-1
-1
-1
-1
-1
-1
-1
-1
-1
-1
-1
-1
-1
-1
-1
-1
-1
-1
-1
-1
-1
-1
-1
-1
-1
-1
-1
-1
-1
-1
-1
-1
-1
-1
-1
-1
-1
-1
-1
-1
-1
-1
-1
-1
-1
-1
-1
-1
-1
-1
-1
-1
-1
-1
-1
-1
-1
-1
-1
-1
-1
-1
-1
-1
-1
-1
-1
-1
-1
-1
-1
-1
-1
-1
-1
-1
-1
-1
-1
-1
-1
-1
-1
-1
-1
-1
-1
-1
-1
-1
-1
-1
-1
-1
-1
-1
-1
-1
-1
-1
-1
-1
-1
-1
-1
-1
-1
-1
-1
-1
-1
-1
-1
-1
-1
-1
-1
-1
-1
-1
-1
-1
-1
-1
-1
-1
-1
-1
-1
-1
-1
-1
-1
-1
-1
-1
-1
-1
-1
-1
-1
-1
-1
-1
-1
-1
-1
-1
-1
-1
-1
-1
-1
-1
-1
-1
-1
-1
-1
-1
-1
-1
-1
-1
-1
-1
-1
-1
-1
-1
-1
-1
-1
-1
-1
-1
-1
-1
-1
-1
-1
-1
-1
-1
-1
-1
-1
-1
-1
-1
-1
-1
-1
-1
-1
-1
-1
-1
-1
-1
-1
-1
-1
-1
-1
-1
-1
-1
-1
-1
-1
-1
-1
-1
-1
-1
-1
-1
-1
-1
-1
-1
-1
-1
-1
-1
-1
-1
-1
-1
-1
-1
-1
-1
-1
-1
-1
-1
-1
-1
-1
-1
-1
-1
-1
-1
-1
-1
-1
-1
-1
-1
-1
-1
-1
-1
-1
-1
-1
-1
-1
-1
-1
-1
-1
-1
-1
-1
-1
-1
-1
-1
-1
-1
-1
-1
-1
-1
-1
-1
-1
-1
-1
-1
-1
-1
-1
-1
-1
-1
-1
-1
-1
-1
-1
-1
-1
-1
-1
-1
-1
-1
-1
-1
-1
-1
-1
-1
-1
-1
-1
-1
-1
-1
-1
-1
-1
-1
-1
-1
-1
-1
-1
-1
-1
-1
-1
-1
-1
-1
-1
-1
-1
-1
-1
-1
-1
-1
-1
-1
-1
-1
-1
-1
-1
-1
-1
-1
-1
-1
VECTORS vectors float
-0.03125 0 0
-0.03125 0 0
-0.03125 0 0
-0.03125 0 0
-0.03125 0 0
-0.03125 0 0
-0.03125 0 0
-0.03125 0 0
-0.03125 0 0
-0.03125 0 0
-0.03125 0 0
-0.03125 0 0
-0.03125 0 0
-0.03125 0 0
-0.03125 0 0
-0.03125 0 0
-0.03125 0 0
-0.03125 0 0
-0.03125 0 0
-0.03125 0 0
-0.03125 0 0
-0.03125 0 0
-0.03125 0 0
-0.03125 0 0
-0.03125 0 0
-0.03125 0 0
-0.03125 0 0
-0.03125 0 0
-0.03125 0 0
-0.03125 0 0
-0.03125 0 0
-0.03125 0 0
-0.03125 0 0
-0.03125 0 0
-0.03125 0 0
-0.03125 0 0
-0.03125 0 0
-0.03125 0 0
-0.03125 0 0
-0.03125 0 0
-0.03125 0 0
-0.03125 0 0
-0.03125 0 0
-0.03125 0 0
-0.03125 0 0
-0.03125 0 0
-0.03125 0 0
-0.03125 0 0
-0.03125 0 0
-0.03125 0 0
-0.03125 0 0
-0.03125 0 0
-0.03125 0 0
-0.03125 0 0
-0.03125 0 0
-0.03125 0 0
-0.03125 0 0
-0.03125 0 0
-0.03125 0 0
-0.03125 0 0
-0.03125 0 0
-0.03125 0 0
-0.03125 0 0
-0.03125 0 0
-0.03125 0 0
-0.03125 0 0
-0.03125 0 0
-0.03125 0 0
-0.03125 0 0
-0.03125 0 0
-0.03125 0 0
-0.03125 0 0
-0.03125 0 0
-0.03125 0 0
-0.03125 0 0
-0.03125 0 0
-0.03125 0 0
-0.03125 0 0
-0.03125 0 0
-0.03125 0 0
-0.03125 0 0
-0.03125 0 0
-0.03125 0 0
-0.03125 0 0
-0.03125 0 0
-0.03125 0 0
-0.03125 0 0
-0.03125 0 0
-0.03125 0 0
-0.03125 0 0
-0.03125 0 0
-0.03125 0 0
-0.03125 0 0
-0.03125 0 0
-0.03125 0 0
-0.03125 0 0
-0.03125 0 0
-0.03125 0 0
-0.03125 0 0
-0.03125 0 0
-0.03125 0 0
-0.03125 0 0
-0.03125 0 0
-0.03125 0 0
-0.03125 0 0
-0.03125 0 0
-0.03125 0 0
-0.03125 0 0
-0.03125 0 0
-0.03125 0 0
-0.03125 0 0
-0.03125 0 0
-0.03125 0 0
-0.03125 0 0
-0.03125 0 0
-0.03125 0 0
-0.03125 0 0
-0.03125 0 0
-0.03125 0 0
-0.03125 0 0
-0.03125 0 0
-0.03125 0 0
-0.03125 0 0
-0.03125 0 0
-0.03125 0 0
-0.03125 0 0
-0.03125 0 0
-0.03125 0 0
-0.03125 0 0
-0.03125 0 0
-0.03125 0 0
-0.03125 0 0
-0.03125 0 0
-0.03125 0 0
-0.03125 0 0
-0.03125 0 0
-0.03125 0 0
-0.03125 0 0
-0.03125 0 0
-0.03125 0 0
-0.03125 0 0
-0.03125 0 0
-0.03125 0 0
-0.03125 0 0
-0.03125 0 0
-0.03125 0 0
-0.03125 0 0
-0.03125 0 0
-0.03125 0 0
-0.03125 0 0
-0.03125 0 0
-0.03125 0 0
-0.03125 0 0
-0.03125 0 0
-0.03125 0 0
-0.03125 0 0
-0.03125 0 0
-0.03125 0 0
-0.03125 0 0
-0.03125 0 0
-0.03125 0 0
-0.03125 0 0
-0.03125 0 0
-0.03125 0 0
-0.03125 0 0
-0.03125 0 0
-0.03125 0 0
-0.03125 0 0
-0.03125 0 0
-0.03125 0 0
-0.03125 0 0
-0.03125 0 0
-0.03125 0 0
-0.03125 0 0
-0.03125 0 0
-0.03125 0 0
-0.03125 0 0
-0.03125 0 0
-0.03125 0 0
-0.03125 0 0
-0.03125 0 0
-0.03125 0 0
-0.03125 0 0
-0.03125 0 0
-0.03125 0 0
-0.03125 0 0
-0.03125 0 0
-0.03125 0 0
-0.03125 0 0
-0.03125 0 0
-0.03125 0 0
-0.03125 0 0
-0.03125 0 0
-0.03125 0 0
-0.03125 0 0
-0.03125 0 0
-0.03125 0 0
-0.03125 0 0
-0.03125 0 0
-0.03125 0 0
-0.03125 0 0
-0.03125 0 0
-0.03125 0 0
-0.03125 0 0
-0.03125 0 0
-0.03125 0 0
-0.03125 0 0
-0.03125 0 0
-0.03125 0 0
-0.03125 0 0
-0.03125 0 0
-0.03125 0 0
-0.03125 0 0
-0.03125 0 0
-0.03125 0 0
-0.03125 0 0
-0.03125 0 0
-0.03125 0 0
-0.03125 0 0
-0.03125 0 0
-0.03125 0 0
-0.03125 0 0
-0.03125 0 0
-0.03125 0 0
-0.03125 0 0
-0.03125 0 0
-0.03125 0 0
-0.03125 0 0
-0.03125 0 0
-0.03125 0 0
-0.03125 0 0
-0.03125 0 0
-0.03125 0 0
-0.03125 0 0
-0.03125 0 0
-0.03125 0 0
-0.03125 0 0
-0.03125 0 0
-0.03125 0 0
-0.03125 0 0
-0.03125 0 0
-0.03125 0 0
-0.03125 0 0
-0.03125 0 0
-0.03125 0 0
-0.03125 0 0
-0.03125 0 0
-0.03125 0 0
-0.03125 0 0
-0.03125 0 0
-0.03125 0 0
-0.03125 0 0
-0.03125 0 0
-0.03125 0 0
-0.03125 0 0
-0.03125 0 0
-0.03125 0 0
-0.03125 0 0
-0.03125 0 0
-0.03125 0 0
-0.03125 0 0
-0.03125 0 0
-0.03125 0 0
-0.03125 0 0
-0.03125 0 0
-0.03125 0 0
-0.03125 0 0
-0.03125 0 0
-0.03125 0 0
-0.03125 0 0
-0.03125 0 0
-0.03125 0 0
-0.03125 0 0
-0.03125 0 0
-0.03125 0 0
-0.03125 0 0
-0.03125 0 0
-0.03125 0 0
-0.03125 0 0
-0.03125 0 0
-0.03125 0 0
-0.03125 0 0
-0.03125 0 0
-0.03125 0 0
-0.03125 0 0
-0.03125 0 0
-0.03125 0 0
-0.03125 0 0
-0.03125 0 0
-0.03125 0 0
-0.03125 0 0
-0.03125 0 0
-0.03125 0 0
-0.03125 0 0
-0.03125 0 0
-0.03125 0 0
-0.03125 0 0
-0.03125 0 0
-0.03125 0 0
-0.03125 0 0
-0.03125 0 0
-0.03125 0 0
-0.03125 0 0
-0.03125 0 0
-0.03125 0 0
-0.03125 0 0
-0.03125 0 0
-0.03125 0 0
-0.03125 0 0
-0.03125 0 0
-0.03125 0 0
-0.03125 0 0
-0.03125 0 0
-0.03125 0 0
-0.03125 0 0
-0.03125 0 0
-0.03125 0 0
-0.03125 0 0
-0.03125 0 0
-0.03125 0 0
-0.03125 0 0
-0.03125 0 0
-0.03125 0 0
-0.03125 0 0
-0.03125 0 0
-0.03125 0 0
-0.03125 0 0
-0.03125 0 0
-0.03125 0 0
-0.03125 0 0
-0.03125 0 0
-0.03125 0 0
-0.03125 0 0
-0.03125 0 0
-0.03125 0 0
-0.03125 0 0
-0.03125 0 0
-0.03125 0 0
-0.03125 0 0
-0.03125 0 0
-0.03125 0 0
-0.03125 0 0
-0.03125 0 0
-0.03125 0 0
-0.03125 0 0
-0.03125 0 0
-0.03125 0 0
-0.03125 0 0
-0.03125 0 0
-0.03125 0 0
-0.03125 0 0
-0.03125 0 0
-0.03125 0 0
-0.03125 0 0
-0.03125 0 0
-0.03125 0 0
-0.03125 0 0
-0.03125 0 0
-0.03125 0 0
-0.03125 0 0
-0.03125 0 0
-0.03125 0 0
-0.03125 0 0
-0.03125 0 0
-0.03125 0 0
-0.03125 0 0
-0.03125 0 0
-0.03125 0 0
-0.03125 0 0
-0.03125 0 0
-0.03125 0 0
-0.03125 0 0
-0.03125 0 0
-0.03125 0 0
-0.03125 0 0
-0.03125 0 0
-0.03125 0 0
-0.03125 0 0
-0.03125 0 0
-0.03125 0 0
-0.03125 0 0
-0.03125 0 0
-0.03125 0 0
-0.03125 0 0
-0.03125 0 0
-0.03125 0 0
-0.03125 0 0
-0.03125 0 0
-0.03125 0 0
-0.03125 0 0
-0.03125 0 0
-0.03125 0 0
-0.03125 0 0
-0.03125 0 0
-0.03125 0 0
-0.03125 0 0
-0.03125 0 0
-0.03125 0 0
-0.03125 0 0
-0.03125 0 0
-0.03125 0 0
-0.03125 0 0
-0.03125 0 0
-0.03125 0 0
-0.03125 0 0
-0.03125 0 0
-0.03125 0 0
-0.03125 0 0
-0.03125 0 0
-0.03125 0 0
-0.03125 0 0
-0.03125 0 0
-0.03125 0 0
-0.03125 0 0
-0.03125 0 0
-0.03125 0 0
-0.03125 0 0
-0.03125 0 0
-0.03125 0 0
-0.03125 0 0
-0.03125 0 0
-0.03125 0 0
-0.03125 0 0
-0.03125 0 0
-0.03125 0 0
-0.03125 0 0
-0.03125 0 0
-0.03125 0 0
-0.03125 0 0
-0.03125 0 0
-0.03125 0 0
-0.03125 0 0
-0.03125 0 0
-0.03125 0 0
-0.03125 0 0
-0.03125 0 0
-0.03125 0 0
-0.03125 0 0
-0.03125 0 0
-0.03125 0 0
-0.03125 0 0
-0.03125 0 0
-0.03125 0 0
-0.03125 0 0
-0.03125 0 0
-0.03125 0 0
-0.03125 0 0
-0.03125 0 0
-0.03125 0 0
-0.03125 0 0
-0.03125 0 0
-0.03125 0 0
-0.03125 0 0
-0.03125 0 0
-0.03125 0 0
-0.03125 0 0
-0.03125 0 0
-0.03125 0 0
-0.03125 0 0
-0.03125 0 0
-0.03125 0 0
-0.03125 0 0
-0.03125 0 0
-0.03125 0 0
-0.03125 0 0
-0.03125 0 0
-0.03125 0 0
-0.03125 0 0
-0.03125 0 0
-0.03125 0 0
-0.03125 0 0
-0.03125 0 0
-0.03125 0 0
-0.03125 0 0
-0.03125 0 0
-0.03125 0 0
-0.03125 0 0
-0.03125 0 0
-0.03125 0 0
-0.03125 0 0
-0.03125 0 0
-0.03125 0 0
-0.03125 0 0
-0.03125 0 0
-0.03125 0 0
-0.03125 0 0
-0.03125 0 0
-0.03125 0 0
-0.03125 0 0
-0.03125 0 0
-0.03125 0 0
-0.03125 0 0
-0.03125 0 0
-0.03125 0 0
-0.03125 0 0
-0.03125 0 0
-0.03125 0 0
-0.03125 0 0
-0.03125 0 0
-0.03125 0 0
-0.03125 0 0
-0.03125 0 0
-0.03125 0 0
-0.03125 0 0
-0.03125 0 0
-0.03125 0 0
-0.03125 0 0
-0.03125 0 0
-0.03125 0 0
-0.03125 0 0
