# vtk DataFile Version 1.0
Cube
ASCII

DATASET POLYDATA
POINTS 330 float
10.334492 9.473753 23.173553
11.383560 8.415007 22.786107
9.771027 24.350083 22.107021
8.985204 25.622693 22.473824
5.498189 9.859961 19.648030
6.162842 11.246456 19.561624
7.001878 8.596550 24.665788
6.999924 8.571549 26.205584
3.658175 15.716587 20.801378
4.807711 16.641713 20.360572
14.832883 4.838191 3.730875
16.317242 5.245148 3.679259
9.476733 22.370500 5.528230
9.814941 22.037884 6.993351
18.999928 0.500821 17.810312
19.337288 -0.695945 18.718904
18.999928 30.500821 17.810312
19.337288 29.304055 18.718904
3.863719 15.003603 14.827001
3.557489 14.356816 16.190632
6.504547 11.357557 8.985451
6.431047 10.535587 10.285667
10.586535 13.042957 11.856043
11.337742 12.412824 13.043569
0.484228 -1.345041 13.657424
-0.195594 -1.629993 15.009550
0.484228 28.654959 13.657424
-0.195594 28.370007 15.009550
30.484228 -1.345041 13.657424
29.804406 -1.629993 15.009550
30.484228 28.654959 13.657424
29.804406 28.370007 15.009550
13.361746 -1.105408 2.710477
12.953930 -2.423454 3.394611
13.361746 28.894592 2.710477
12.953930 27.576546 3.394611
9.093093 4.072257 17.676334
8.521771 4.488607 16.308180
19.367427 1.277911 4.048263
18.246966 1.973037 3.252672
19.367427 31.277911 4.048263
18.246966 31.973037 3.252672
13.081839 25.859124 17.741317
13.455241 27.127284 16.951417
8.160877 22.465026 -0.117157
9.194944 22.085510 0.959074
8.160877 22.465026 29.882843
9.194944 22.085510 30.959074
10.421905 18.033644 1.934067
8.968368 18.130678 2.433482
10.421905 18.033644 31.934067
8.968368 18.130678 32.433482
-3.008219 19.210457 3.530824
-1.851900 19.132586 4.544955
26.991781 19.210457 3.530824
28.148100 19.132586 4.544955
12.818919 3.321206 1.002954
11.946067 2.724167 2.122451
12.818919 3.321206 31.002954
11.946067 2.724167 32.122451
12.818919 33.321206 1.002954
11.946067 32.724167 2.122451
12.818919 33.321206 31.002954
11.946067 32.724167 32.122451
19.832217 23.776254 8.748198
21.273930 24.192099 8.401588
20.507261 15.020106 -0.663816
19.491453 14.669415 0.439248
20.507261 15.020106 29.336184
19.491453 14.669415 30.439248
14.781671 9.203302 18.319258
13.517781 9.777108 17.652229
1.409662 12.546538 21.163265
1.321289 12.340531 22.686863
31.409662 12.546538 21.163265
31.321289 12.340531 22.686863
18.594040 10.456150 13.626993
17.770316 10.246182 14.911125
9.900598 -2.105797 0.190617
9.975553 -1.693732 -1.291336
9.900598 -2.105797 30.190617
9.975553 -1.693732 28.708664
9.900598 27.894203 0.190617
9.975553 28.306268 -1.291336
9.900598 27.894203 30.190617
9.975553 28.306268 28.708664
0.233020 0.841538 21.701709
-1.030043 0.133800 21.176945
0.233020 30.841538 21.701709
-1.030043 30.133800 21.176945
30.233020 0.841538 21.701709
28.969957 0.133800 21.176945
30.233020 30.841538 21.701709
28.969957 30.133800 21.176945
16.286842 13.615282 24.400153
14.831757 13.189166 24.130425
14.927735 27.397655 9.836865
16.082386 26.489036 10.298157
10.158312 10.345553 8.355903
9.382675 9.151656 7.768878
3.698034 24.731715 0.358442
4.721783 24.665040 1.506959
3.698034 24.731715 30.358442
4.721783 24.665040 31.506959
23.010574 6.754589 6.973971
23.133895 8.270492 7.215694
5.944193 3.849382 24.168946
7.032157 2.788374 24.418340
16.183804 19.917868 19.259510
15.006535 20.587379 18.526439
4.671892 9.760110 14.704031
5.852146 10.576185 14.144906
17.139061 21.074695 13.963983
15.833006 21.218544 14.767181
7.957169 13.193306 24.897750
7.954556 14.012429 23.593668
1.262661 16.816340 11.324852
2.533014 17.564038 11.770668
31.262661 16.816340 11.324852
32.533014 17.564038 11.770668
10.320149 22.875277 10.530941
10.028550 22.199208 11.883531
24.739488 25.973693 18.092011
25.599007 25.848519 16.820336
16.905404 22.795728 21.962334
16.630426 23.061903 23.454023
15.101783 22.520269 9.073933
14.967070 23.070403 10.505996
26.353300 8.958255 8.969783
27.056125 9.324543 10.290188
3.016872 -2.273100 27.100555
4.323040 -2.167218 26.291659
3.016872 27.726900 27.100555
4.323040 27.832782 26.291659
6.773950 11.674477 4.154604
7.142313 12.044517 2.705818
21.896504 13.778639 17.616382
21.682383 15.303395 17.645899
3.771339 13.890025 27.139710
4.130029 14.271186 25.691381
14.287687 13.619674 8.596530
14.211167 14.075596 10.065503
18.879157 15.559350 4.066701
19.063690 14.067927 4.403157
14.728089 18.155973 9.449844
15.979200 18.892267 9.963842
26.440877 8.005625 13.886863
26.094071 9.458917 13.513675
17.423738 19.634473 -2.904668
18.389028 19.509745 -1.711246
17.423738 19.634473 27.095332
18.389028 19.509745 28.288754
0.888347 -2.555353 2.476743
2.221142 -2.067621 3.074552
0.888347 -2.555353 32.476743
2.221142 -2.067621 33.074552
0.888347 27.444647 2.476743
2.221142 27.932379 3.074552
0.888347 27.444647 32.476743
2.221142 27.932379 33.074552
30.888347 -2.555353 2.476743
32.221142 -2.067621 3.074552
30.888347 -2.555353 32.476743
32.221142 -2.067621 33.074552
30.888347 27.444647 2.476743
32.221142 27.932379 3.074552
30.888347 27.444647 32.476743
32.221142 27.932379 33.074552
7.690996 16.341580 -1.213074
7.098020 17.757401 -1.337287
7.690996 16.341580 28.786926
7.098020 17.757401 28.662713
22.748113 6.676004 24.775313
21.888260 6.458110 23.516434
20.095053 7.389734 10.188227
21.011801 6.436035 10.976663
20.389898 19.837558 20.823547
21.766898 20.250943 20.271656
25.104190 18.843260 12.193034
24.987003 17.397012 11.677057
14.769287 11.638950 -1.500586
13.759783 12.798253 -1.408284
14.769287 11.638950 28.499414
13.759783 12.798253 28.591716
12.656668 13.270757 18.232003
13.470980 14.137669 19.210246
17.764696 0.035805 11.150714
16.551202 0.483691 11.986437
17.764696 30.035805 11.150714
16.551202 30.483691 11.986437
15.443009 5.009413 13.001891
16.639999 4.095523 13.323795
3.225105 23.163520 6.010361
2.548602 24.020734 4.924485
33.225105 23.163520 6.010361
32.548602 24.020734 4.924485
14.822204 18.903184 5.768955
15.601748 19.749248 4.745194
3.611936 7.834460 10.193451
2.674882 6.746976 9.635858
13.806909 2.470575 14.766573
13.261989 1.064474 14.454258
13.806909 32.470575 14.766573
13.261989 31.064474 14.454258
25.392336 22.167362 19.536464
25.477813 20.666050 19.868663
4.809866 5.142967 3.876712
4.504776 4.872101 5.361688
5.049753 6.451625 19.290151
4.952683 6.164942 20.800114
1.675171 8.236293 2.888812
0.594052 9.200833 2.366850
1.675171 8.236293 32.888812
0.594052 9.200833 32.366850
31.675171 8.236293 2.888812
30.594052 9.200833 2.366850
31.675171 8.236293 32.888812
30.594052 9.200833 32.366850
5.088249 19.313428 2.356837
5.802149 20.654903 2.606618
5.088249 19.313428 32.356837
5.802149 20.654903 32.606618
-2.673565 -3.336606 25.523631
-2.127016 -1.971878 25.982326
-2.673565 26.663394 25.523631
-2.127016 28.028122 25.982326
27.326435 -3.336606 25.523631
27.872984 -1.971878 25.982326
27.326435 26.663394 25.523631
27.872984 28.028122 25.982326
20.789832 22.200926 14.204528
21.157970 21.869661 15.662725
6.637671 1.867897 20.721555
6.966730 1.833335 19.217518
6.637671 31.867897 20.721555
6.966730 31.833335 19.217518
24.638064 15.060168 2.988012
23.345808 14.223888 3.036055
24.638064 15.060168 32.988012
23.345808 14.223888 33.036055
8.639148 18.110653 24.515660
8.105154 18.024485 23.073778
7.467963 25.427025 25.997740
8.791594 24.874412 26.558294
9.219649 7.200556 11.825868
10.154153 6.982179 10.621453
19.726626 16.522731 25.013152
19.820175 14.990177 25.131998
7.003958 16.041082 12.612804
7.486700 15.265184 11.373231
14.117646 20.748021 24.323476
13.264868 21.145947 23.104450
20.397060 7.087696 15.302157
20.190988 6.515779 16.717093
14.512405 25.762200 21.300871
14.334298 26.729018 22.486257
25.873824 0.508434 24.521174
24.946811 -0.601479 23.991703
25.873824 30.508434 24.521174
24.946811 29.398521 23.991703
0.824431 6.800693 6.193614
-0.096632 7.712021 7.025914
30.824431 6.800693 6.193614
29.903368 7.712021 7.025914
7.358645 18.458816 8.578024
8.517273 17.522492 8.968508
13.373523 13.102674 2.957172
13.731065 11.968205 1.979039
13.373523 13.102674 32.957172
13.731065 11.968205 31.979039
10.758847 27.123941 10.684893
9.761151 26.630621 9.620544
20.412856 7.211922 3.347889
19.755641 6.595747 2.098890
20.412856 7.211922 33.347889
19.755641 6.595747 32.098890
1.662911 8.571303 18.384500
0.339669 9.290864 18.063774
31.662911 8.571303 18.384500
30.339669 9.290864 18.063774
4.265682 16.797609 7.277032
3.286039 15.647330 7.574956
-0.427156 22.991220 11.549254
-1.590538 21.988385 11.660889
29.572844 22.991220 11.549254
28.409462 21.988385 11.660889
13.636789 0.035124 6.851138
15.017468 0.432519 7.405577
13.636789 30.035124 6.851138
15.017468 30.432519 7.405577
2.897004 7.619658 -0.720981
3.763665 6.516046 -0.086520
2.897004 7.619658 29.279019
3.763665 6.516046 29.913480
0.185171 6.847539 12.753969
0.140464 8.269003 12.163171
30.185171 6.847539 12.753969
30.140464 8.269003 12.163171
-1.427262 1.416565 17.280263
-2.567377 2.420735 17.532014
-1.427262 31.416565 17.280263
-2.567377 32.420735 17.532014
28.572738 1.416565 17.280263
27.432623 2.420735 17.532014
28.572738 31.416565 17.280263
27.432623 32.420735 17.532014
-0.494243 2.085172 2.962886
-1.917305 1.915965 2.399092
-0.494243 2.085172 32.962886
-1.917305 1.915965 32.399092
-0.494243 32.085172 2.962886
-1.917305 31.915965 2.399092
-0.494243 32.085172 32.962886
-1.917305 31.915965 32.399092
29.505757 2.085172 2.962886
28.082695 1.915965 2.399092
29.505757 2.085172 32.962886
28.082695 1.915965 32.399092
29.505757 32.085172 2.962886
28.082695 31.915965 2.399092
29.505757 32.085172 32.962886
28.082695 31.915965 32.399092
21.336017 8.567420 -1.327143
20.711929 7.994830 -2.613321
21.336017 8.567420 28.672857
20.711929 7.994830 27.386679
24.540916 22.213591 3.303333
25.825466 23.024578 3.050684
24.437600 25.979856 6.223966
24.538073 24.605131 6.910723
LINES 165 495
2 0 1
2 2 3
2 4 5
2 6 7
2 8 9
2 10 11
2 12 13
2 14 15
2 16 17
2 18 19
2 20 21
2 22 23
2 24 25
2 26 27
2 28 29
2 30 31
2 32 33
2 34 35
2 36 37
2 38 39
2 40 41
2 42 43
2 44 45
2 46 47
2 48 49
2 50 51
2 52 53
2 54 55
2 56 57
2 58 59
2 60 61
2 62 63
2 64 65
2 66 67
2 68 69
2 70 71
2 72 73
2 74 75
2 76 77
2 78 79
2 80 81
2 82 83
2 84 85
2 86 87
2 88 89
2 90 91
2 92 93
2 94 95
2 96 97
2 98 99
2 100 101
2 102 103
2 104 105
2 106 107
2 108 109
2 110 111
2 112 113
2 114 115
2 116 117
2 118 119
2 120 121
2 122 123
2 124 125
2 126 127
2 128 129
2 130 131
2 132 133
2 134 135
2 136 137
2 138 139
2 140 141
2 142 143
2 144 145
2 146 147
2 148 149
2 150 151
2 152 153
2 154 155
2 156 157
2 158 159
2 160 161
2 162 163
2 164 165
2 166 167
2 168 169
2 170 171
2 172 173
2 174 175
2 176 177
2 178 179
2 180 181
2 182 183
2 184 185
2 186 187
2 188 189
2 190 191
2 192 193
2 194 195
2 196 197
2 198 199
2 200 201
2 202 203
2 204 205
2 206 207
2 208 209
2 210 211
2 212 213
2 214 215
2 216 217
2 218 219
2 220 221
2 222 223
2 224 225
2 226 227
2 228 229
2 230 231
2 232 233
2 234 235
2 236 237
2 238 239
2 240 241
2 242 243
2 244 245
2 246 247
2 248 249
2 250 251
2 252 253
2 254 255
2 256 257
2 258 259
2 260 261
2 262 263
2 264 265
2 266 267
2 268 269
2 270 271
2 272 273
2 274 275
2 276 277
2 278 279
2 280 281
2 282 283
2 284 285
2 286 287
2 288 289
2 290 291
2 292 293
2 294 295
2 296 297
2 298 299
2 300 301
2 302 303
2 304 305
2 306 307
2 308 309
2 310 311
2 312 313
2 314 315
2 316 317
2 318 319
2 320 321
2 322 323
2 324 325
2 326 327
2 328 329
POINT_DATA 330
SCALARS my_scalars float
LOOKUP_TABLE default
-1
-1
-1
-1
-1
-1
-1
-1
-1
-1
-1
-1
-1
-1
-1
-1
-1
-1
-1
-1
-1
-1
-1
-1
-1
-1
-1
-1
-1
-1
-1
-1
-1
-1
-1
-1
-1
-1
-1
-1
-1
-1
-1
-1
-1
-1
-1
-1
-1
-1
-1
-1
-1
-1
-1
-1
-1
-1
-1
-1
-1
-1
-1
-1
-1
-1
-1
-1
-1
-1
-1
-1
-1
-1
-1
-1
-1
-1
-1
-1
-1
-1
-1
-1
-1
-1
-1
-1
-1
-1
-1
-1
-1
-1
-1
-1
-1
-1
-1
-1
-1
-1
-1
-1
-1
-1
-1
-1
-1
-1
-1
-1
-1
-1
-1
-1
-1
-1
-1
-1
-1
-1
-1
-1
-1
-1
-1
-1
-1
-1
-1
-1
-1
-1
-1
-1
-1
-1
-1
-1
-1
-1
-1
-1
-1
-1
-1
-1
-1
-1
-1
-1
-1
-1
-1
-1
-1
-1
-1
-1
-1
-1
-1
-1
-1
-1
-1
-1
-1
-1
-1
-1
-1
-1
-1
-1
-1
-1
-1
-1
-1
-1
-1
-1
-1
-1
-1
-1
-1
-1
-1
-1
-1
-1
-1
-1
-1
-1
-1
-1
-1
-1
-1
-1
-1
-1
-1
-1
-1
-1
-1
-1
-1
-1
-1
-1
-1
-1
-1
-1
-1
-1
-1
-1
-1
-1
-1
-1
-1
-1
-1
-1
-1
-1
-1
-1
-1
-1
-1
-1
-1
-1
-1
-1
-1
-1
-1
-1
-1
-1
-1
-1
-1
-1
-1
-1
-1
-1
-1
-1
-1
-1
-1
-1
-1
-1
-1
-1
-1
-1
-1
-1
-1
-1
-1
-1
-1
-1
-1
-1
-1
-1
-1
-1
-1
-1
-1
-1
-1
-1
-1
-1
-1
-1
-1
-1
-1
-1
-1
-1
-1
-1
-1
-1
-1
-1
-1
-1
-1
-1
-1
-1
-1
-1
-1
-1
-1
-1
-1
-1
-1
-1
-1
-1
-1
-1
-1
-1
-1
-1
VECTORS vectors float
-0.03125 0 0
-0.03125 0 0
-0.03125 0 0
-0.03125 0 0
-0.03125 0 0
-0.03125 0 0
-0.03125 0 0
-0.03125 0 0
-0.03125 0 0
-0.03125 0 0
-0.03125 0 0
-0.03125 0 0
-0.03125 0 0
-0.03125 0 0
-0.03125 0 0
-0.03125 0 0
-0.03125 0 0
-0.03125 0 0
-0.03125 0 0
-0.03125 0 0
-0.03125 0 0
-0.03125 0 0
-0.03125 0 0
-0.03125 0 0
-0.03125 0 0
-0.03125 0 0
-0.03125 0 0
-0.03125 0 0
-0.03125 0 0
-0.03125 0 0
-0.03125 0 0
-0.03125 0 0
-0.03125 0 0
-0.03125 0 0
-0.03125 0 0
-0.03125 0 0
-0.03125 0 0
-0.03125 0 0
-0.03125 0 0
-0.03125 0 0
-0.03125 0 0
-0.03125 0 0
-0.03125 0 0
-0.03125 0 0
-0.03125 0 0
-0.03125 0 0
-0.03125 0 0
-0.03125 0 0
-0.03125 0 0
-0.03125 0 0
-0.03125 0 0
-0.03125 0 0
-0.03125 0 0
-0.03125 0 0
-0.03125 0 0
-0.03125 0 0
-0.03125 0 0
-0.03125 0 0
-0.03125 0 0
-0.03125 0 0
-0.03125 0 0
-0.03125 0 0
-0.03125 0 0
-0.03125 0 0
-0.03125 0 0
-0.03125 0 0
-0.03125 0 0
-0.03125 0 0
-0.03125 0 0
-0.03125 0 0
-0.03125 0 0
-0.03125 0 0
-0.03125 0 0
-0.03125 0 0
-0.03125 0 0
-0.03125 0 0
-0.03125 0 0
-0.03125 0 0
-0.03125 0 0
-0.03125 0 0
-0.03125 0 0
-0.03125 0 0
-0.03125 0 0
-0.03125 0 0
-0.03125 0 0
-0.03125 0 0
-0.03125 0 0
-0.03125 0 0
-0.03125 0 0
-0.03125 0 0
-0.03125 0 0
-0.03125 0 0
-0.03125 0 0
-0.03125 0 0
-0.03125 0 0
-0.03125 0 0
-0.03125 0 0
-0.03125 0 0
-0.03125 0 0
-0.03125 0 0
-0.03125 0 0
-0.03125 0 0
-0.03125 0 0
-0.03125 0 0
-0.03125 0 0
-0.03125 0 0
-0.03125 0 0
-0.03125 0 0
-0.03125 0 0
-0.03125 0 0
-0.03125 0 0
-0.03125 0 0
-0.03125 0 0
-0.03125 0 0
-0.03125 0 0
-0.03125 0 0
-0.03125 0 0
-0.03125 0 0
-0.03125 0 0
-0.03125 0 0
-0.03125 0 0
-0.03125 0 0
-0.03125 0 0
-0.03125 0 0
-0.03125 0 0
-0.03125 0 0
-0.03125 0 0
-0.03125 0 0
-0.03125 0 0
-0.03125 0 0
-0.03125 0 0
-0.03125 0 0
-0.03125 0 0
-0.03125 0 0
-0.03125 0 0
-0.03125 0 0
-0.03125 0 0
-0.03125 0 0
-0.03125 0 0
-0.03125 0 0
-0.03125 0 0
-0.03125 0 0
-0.03125 0 0
-0.03125 0 0
-0.03125 0 0
-0.03125 0 0
-0.03125 0 0
-0.03125 0 0
-0.03125 0 0
-0.03125 0 0
-0.03125 0 0
-0.03125 0 0
-0.03125 0 0
-0.03125 0 0
-0.03125 0 0
-0.03125 0 0
-0.03125 0 0
-0.03125 0 0
-0.03125 0 0
-0.03125 0 0
-0.03125 0 0
-0.03125 0 0
-0.03125 0 0
-0.03125 0 0
-0.03125 0 0
-0.03125 0 0
-0.03125 0 0
-0.03125 0 0
-0.03125 0 0
-0.03125 0 0
-0.03125 0 0
-0.03125 0 0
-0.03125 0 0
-0.03125 0 0
-0.03125 0 0
-0.03125 0 0
-0.03125 0 0
-0.03125 0 0
-0.03125 0 0
-0.03125 0 0
-0.03125 0 0
-0.03125 0 0
-0.03125 0 0
-0.03125 0 0
-0.03125 0 0
-0.03125 0 0
-0.03125 0 0
-0.03125 0 0
-0.03125 0 0
-0.03125 0 0
-0.03125 0 0
-0.03125 0 0
-0.03125 0 0
-0.03125 0 0
-0.03125 0 0
-0.03125 0 0
-0.03125 0 0
-0.03125 0 0
-0.03125 0 0
-0.03125 0 0
-0.03125 0 0
-0.03125 0 0
-0.03125 0 0
-0.03125 0 0
-0.03125 0 0
-0.03125 0 0
-0.03125 0 0
-0.03125 0 0
-0.03125 0 0
-0.03125 0 0
-0.03125 0 0
-0.03125 0 0
-0.03125 0 0
-0.03125 0 0
-0.03125 0 0
-0.03125 0 0
-0.03125 0 0
-0.03125 0 0
-0.03125 0 0
-0.03125 0 0
-0.03125 0 0
-0.03125 0 0
-0.03125 0 0
-0.03125 0 0
-0.03125 0 0
-0.03125 0 0
-0.03125 0 0
-0.03125 0 0
-0.03125 0 0
-0.03125 0 0
-0.03125 0 0
-0.03125 0 0
-0.03125 0 0
-0.03125 0 0
-0.03125 0 0
-0.03125 0 0
-0.03125 0 0
-0.03125 0 0
-0.03125 0 0
-0.03125 0 0
-0.03125 0 0
-0.03125 0 0
-0.03125 0 0
-0.03125 0 0
-0.03125 0 0
-0.03125 0 0
-0.03125 0 0
-0.03125 0 0
-0.03125 0 0
-0.03125 0 0
-0.03125 0 0
-0.03125 0 0
-0.03125 0 0
-0.03125 0 0
-0.03125 0 0
-0.03125 0 0
-0.03125 0 0
-0.03125 0 0
-0.03125 0 0
-0.03125 0 0
-0.03125 0 0
-0.03125 0 0
-0.03125 0 0
-0.03125 0 0
-0.03125 0 0
-0.03125 0 0
-0.03125 0 0
-0.03125 0 0
-0.03125 0 0
-0.03125 0 0
-0.03125 0 0
-0.03125 0 0
-0.03125 0 0
-0.03125 0 0
-0.03125 0 0
-0.03125 0 0
-0.03125 0 0
-0.03125 0 0
-0.03125 0 0
-0.03125 0 0
-0.03125 0 0
-0.03125 0 0
-0.03125 0 0
-0.03125 0 0
-0.03125 0 0
-0.03125 0 0
-0.03125 0 0
-0.03125 0 0
-0.03125 0 0
-0.03125 0 0
-0.03125 0 0
-0.03125 0 0
-0.03125 0 0
-0.03125 0 0
-0.03125 0 0
-0.03125 0 0
-0.03125 0 0
-0.03125 0 0
-0.03125 0 0
-0.03125 0 0
-0.03125 0 0
-0.03125 0 0
-0.03125 0 0
-0.03125 0 0
-0.03125 0 0
-0.03125 0 0
-0.03125 0 0
-0.03125 0 0
-0.03125 0 0
-0.03125 0 0
-0.03125 0 0
-0.03125 0 0
-0.03125 0 0
-0.03125 0 0
-0.03125 0 0
-0.03125 0 0
-0.03125 0 0
-0.03125 0 0
-0.03125 0 0
-0.03125 0 0
-0.03125 0 0
-0.03125 0 0
-0.03125 0 0
-0.03125 0 0
-0.03125 0 0
-0.03125 0 0
-0.03125 0 0
-0.03125 0 0
-0.03125 0 0
-0.03125 0 0
